<svg height="1024" preserveAspectRatio="xMidYMid meet" viewBox="0 0 595 1024" width="595" xmlns="http://www.w3.org/2000/svg"><g fill="#000118"><path d="m359.3 957c-3.1-1.2-2.9-4.4.2-5.8 4.1-1.9 11.9-1.5 13.8.6 1 1 1.7 2.4 1.7 3.1 0 2.7-10.7 4.1-15.7 2.1z"/><path d="m405 956.3c-13.6-2.5-15.8-7.6-5.3-12.1 8.9-3.8 17.3-4.7 45.3-4.7 27.5 0 34.6.8 43.6 5.1 3.9 1.9 5.3 5 3.1 7.1-3.9 3.9-10.9 4.6-48.2 4.9-19.8.1-37.1 0-38.5-.3z"/><path d="m85.5 932.9c-20.8-2-35.5-5.2-35.5-7.9 0-1.3 1.8-2 8.8-3.4l5.4-1.1.2-43 .1-43 2.7-5.1c3.2-6.1 8.9-11.4 16-15 2.9-1.5 7-3.8 9.1-5.1l3.9-2.4-2.6-2.6c-2.2-2.2-2.6-3.5-2.6-8.5 0-3.3.5-6.8 1.1-7.9.8-1.5.7-2.4-.2-3.6-.8-.8-1.3-4.1-1.4-7.3 0-6.3 1.4-8.8 7-11.9 2.6-1.4 7.6-1.6 41-1.6 34.3 0 38.3.2 41.2 1.7 1.7 1 3.9 2.8 4.7 4 1.9 2.7 2 10.4.2 13.7-1.1 2.1-1.1 3 0 5.7 2.4 5.7 1.3 13.4-2.2 16.1-2.5 1.8-.8 3.2 9.2 7.9 10.7 4.9 17.7 10.8 20.8 17.4 2 4.3 2.1 6.3 2.3 40.5l.2 36 9.5.3c10.4.3 9.7.7 11.1-7.1.8-4.8 5.1-9.7 14.5-16.2 9-6.3 17.3-14.3 19.7-18.8 1.3-2.5 1.8-6.8 2.1-20.3.6-22.1-1.1-32.8-6.8-44.1-4.7-9.1-7.6-20.3-12.4-47-2-10.6-4.1-20.1-4.7-21.1-.7-1-2.8-2.5-4.7-3.2-4.9-1.7-11.9-8.5-15-14.5-3.9-7.3-3.6-16.1 1.1-33.5 1.9-7.4 4.3-17.3 5.2-22 1.6-8.5 4.6-39.2 3.9-39.9-.2-.2-2 1.1-4.1 2.9-12.4 10.9-31.1 11.8-52.6 2.5-4.8-2-9.9-3.5-12.2-3.5-6.2 0-13.5-4-19.1-10.4-2.7-3-5.5-5.6-6.1-5.6-2.1 0-2.6 4.5-2.1 17.5l.5 12.4-6.1 8.5c-3.4 4.7-12.8 20-20.9 34s-15.4 25.9-16 26.5c-3 2.5-3.6-.7-5.6-29.4-3.7-55-3.7-50.1-.7-54 3.1-4 10.4-19 10.8-22.1.2-1.5-1-3.1-4.1-5.5-6.5-5-8.5-9.6-8.9-20.4-.4-9.7 1.3-18.7 4.9-25.8 3-5.9 10.1-12.5 14.2-13.2 2-.4 3.8-1.2 4-1.8 1.1-3.1 6-32.7 5.5-33.3-.4-.3-1.5-.1-2.6.5-3.5 1.9-8 1.3-9.3-1-1.4-2.7.7-5 8.8-9.3 4.8-2.6 5.9-3.7 6.6-6.6 3.3-13 4.9-16.9 8.7-21.2 5-5.7 10.6-8.1 18.7-8.1 7.6.1 16 3.7 20 8.7 2.6 3.3 2.6 3.3 6.9 2 2.4-.7 8.3-2 13.1-2.9s9.4-1.9 10.1-2.1c.9-.3-.1-2.3-3.2-6.1-2.4-3.2-6.6-9.4-9.3-13.8-4.2-6.8-5.7-8.4-10.8-11.3-3.3-1.8-7.1-4.4-8.5-5.7-1.6-1.5-4.7-2.6-9-3.4-14.6-2.5-27.4-12.2-34.3-26.2-7-14.2-11-36-9-49.7 1.6-10.8 3.5-15.7 11.6-31.1 11.8-22 19.2-28.3 37.6-31.8l9-1.7 1.1-5.1c1-5 1-5.2-4-14.8-5.3-10-14.4-36.1-17.5-50.1-3.1-14.1-.4-26.1 11.8-52.1 16.4-35 32.7-55.2 53.9-66.8 7.5-4.1 11.2-5.1 13.8-3.7 3 1.6 2.4 5-2.4 14.2-8.3 15.8-15.2 39-16.5 55.9-1.6 20.2 1.4 36.2 8.9 47.8l4.1 6.3 4.2-2.7c9-5.6 30.7-15.7 40.7-18.9 24-7.8 45.4-10 67.7-7.2 11.5 1.5 29.5 5.2 34.4 7.1 1.2.4 2.1-.6 3.7-4.2 8.8-20.8 5.2-55.8-8.9-86.2-2.1-4.6-3.9-9.4-3.9-10.7 0-3.9 6.1-3.2 15.6 1.5 14 7 26.9 19.7 36.8 35.9 4.4 7.2 16.2 31.8 20.1 41.6 4.5 11.5 6.8 22.3 6.2 29-.5 6.2-5.5 21.1-10.9 32.2l-2.9 6 8.3 8.2c9.4 9.1 15.5 18.5 18.9 28.8 1.9 6 2.3 9.5 2.6 26.2.2 15.2.6 19.8 1.8 21.5.8 1.2 1.5 3 1.5 4.1 0 1.6.5 1.8 4.3 1.2 10.2-1.7 19.3-2.5 34.2-3.2 19.2-.8 19.1-.8 18.1 8.6-.6 5.4-2 10.4-4.4 16.5-2.7 6.7-13.4 26.5-18.9 34.8-8.8 13.3-17.7 22.1-29.4 29l-9.5 5.6-1.2 5.8c-.9 4.3-2 6.7-4.3 8.9-2.7 2.6-3.7 2.9-9.4 2.9-7 0-10.2-1.9-12.5-7.6-1-2.3-1.9-2.9-4.4-2.9-2.7 0-4.6 1.6-13.6 11.2-17.2 18.3-33.6 30.9-51.4 39.3-4.7 2.2-5.6 3.1-6.2 6-.9 4.9 2 13.7 5.9 17.8 1.7 1.8 6.6 5.3 10.7 7.7 4.1 2.3 9.6 5.8 12.3 7.6 2.6 1.9 5.3 3.4 6 3.4 2.8 0 11.9-6.8 16.7-12.5 6.2-7.3 12.4-19.7 14.6-29.1 2.8-12.3 3.3-14 6.1-17.8l2.8-3.7 16.5.4c24.5.7 45.3 5.4 74 16.8 12.6 5 31.1 14.7 36.4 19.1 2.5 2.2 2.7 2.7 1.6 4.7-1 2-1.7 2.2-5.3 1.7-2.3-.4-7.1-1-10.7-1.5-3.8-.5-9.6-2.3-14.1-4.4-8-3.8-31.2-12.7-33.1-12.7-2.2 0-.1 9.9 3.6 17l3.6 7-1.9 5.8c-1.1 3.1-2.5 9.7-3.2 14.6-1.2 8.6-3.1 12.6-5.9 12.6-.5 0-2.9-1.9-5.4-4.2-3.2-3.2-4.8-5.8-6-9.9-2.4-8.4-8.9-20.8-14-26.4l-4.5-5-.1 13c0 16.2-.8 23.5-2.6 23.5-.7 0-2 2.5-2.8 5.5-.9 3-2.2 7.9-3.1 10.8-1.7 6.1-4 8.7-7.8 8.7-3.5 0-4.1-1.4-3.9-9.2.2-5.8 0-6.8-1.4-6.8s-1.6-.7-1.1-3.7l.6-3.7-3 3.7c-2.4 3-3.7 3.7-6.5 3.7-2.7 0-4.6 1-9.2 5.3-3.1 2.8-7.2 6.4-9.1 7.8l-3.3 2.6 2.1 5.6c3 8.3 10.8 23.5 14.9 29.2 1.9 2.8 7.4 9.7 12.2 15.5 14.7 17.8 22.4 29.7 34.4 53.7 13.9 27.6 17 37.6 17.1 54.3 0 9.8-.2 10.9-3.3 17.5-1.8 3.8-5.8 9.7-9 13.2-3.1 3.4-7.4 8.2-9.5 10.7-4.4 5.2-7.5 6.3-11.7 4.1-2.9-1.5-3.3-1.5-6 .5-4.3 3.1-8 3.4-11.8 1-4.6-2.9-5.5-5.9-4.7-16.5 1.1-14.4 1-15.7-1.9-22.2-3.8-8.4-4.5-8.3-6.1 1.2-1.6 9.3-7.1 13.8-14.3 11.7-3.4-1-4.4-2.2-8.5-9.4-6.3-11.2-6.3-13 1.3-28.4 3.3-6.7 6-13.1 6-14.1s-2.8-5.6-6.2-10.2c-9.7-12.9-10.6-14.4-11.7-18.1-.6-1.9-4.2-9.1-8.1-16s-9.4-17-12.2-22.5l-5.2-10-1.2 6.5c-.7 3.6-2 12.9-2.9 20.7l-1.6 14.2 8.8 12.8c20.9 30.2 23 35.9 18.2 48.7-2.4 6.7-2.3 7 8.5 21.3 12.5 16.6 27.3 29.6 42.4 37.2 23.1 11.7 45 12.7 64.9 3.2 4.7-2.3 8.7-4.1 8.9-4.1s.4 1.2.4 2.8c-.1 5-15.2 14.7-26.8 17.1-7.6 1.6-22.8 1.4-31.3-.4-4.1-.9-11.2-3.1-15.9-5-4.7-1.8-7.6-2.7-6.6-2 3.4 2.6 16.7 7.6 24 9.2 14.4 3 33.6.1 51.4-8 8.3-3.7 10.5-5.3 19.3-13.9 5.4-5.4 9.9-10.6 9.9-11.5 0-1 1.8-5.2 4.1-9.5 6.4-12.5 9.9-26 11.5-45 .6-7.3.8-7.8 3-7.8 3.3 0 3.8 2.6 3.7 18-.1 11.4-.5 14.9-2.7 22.9-2.8 9.6-8.1 21.1-13.5 29.1-1.7 2.5-3.1 5-3.1 5.6 0 .7-3.6 4.6-7.9 8.7-13.2 12.3-31.2 20.3-51.6 22.7-31.1 3.8-60.9-8-86.3-34-4.1-4.1-8.8-9.4-10.5-11.7-1.7-2.4-3.2-4.2-3.3-4-.5.5 6.5 28.5 8.1 32.3.8 1.9 4.4 7.5 8 12.6 7.8 11 9.7 16.4 15.1 44.8 2.4 12.7 5.7 25.9 9.5 37.9 5.6 17.6 7.1 23.8 8.4 36.4.4 3.1 1 5.7 1.5 5.7 2.4 0 24.7 4.2 32 6 6.5 1.7 13.4 2.4 29 3 20 .8 24 1.3 24 3.1 0 3.5-14.4 4.1-59.2 2.4-14.8-.5-23-.4-26 .3-2.4.6-10.1 1.6-17.3 2.2-7.1.6-17 1.7-22 2.5-7.4 1.1-35 1.5-153 1.8-79.2.2-148 0-153-.4zm71.6-11.9c18.4-1.4 33.1-4 40.5-7.1 3.6-1.5 4.2-2.2 4.7-5.6.4-2.1.7-4.7.7-5.7 0-1.9 0-1.9-2.2 0-4.4 3.8-22.2 8.1-37.4 9.1l-10.4.6v-35.5-35.6l7.8-.7c4.2-.4 12.4-1.5 18.2-2.6 12.1-2.2 19.1-2.4 20.8-.7.9.9 1.2.9 1.2 0 0-3.3-7.8-9.5-17.7-14.3-10.5-5-15.3-6.1-15.3-3.4 0 1.2-3.8 1.4-27.2 1.2-20.7-.1-27.2-.5-27.6-1.4-.2-.8-2.2-1.3-5-1.3-7.4 0-24.6 10-27.8 16.2l-1.5 2.8h5.8c5.1 0 8 .5 17.1 2.5l2.2.5v35.5 35.5h-3.8c-5.3 0-16.9-3.4-20.3-5.9l-2.9-2.2v4.9c0 2.8.6 5.4 1.3 6 2.8 2.3 24.5 6.5 38.7 7.5 10.4.8 27.6.6 40.1-.3zm261.1-7.8c1-1.1-2.1-18.3-4-22.2s-6.1-7-12.8-9.6c-3.9-1.5-5-1.5-8.4-.4-5.4 1.8-9 5.9-9.7 10.8-.3 2.3-.2 8.3.2 13.4l.6 9.3 16.7-.3c9.2-.2 17-.7 17.4-1zm-44.2-12.4c0-9.6-1.9-35.6-3-41.7-.6-3-3.7-11.3-7-18.4s-7-15.9-8.2-19.6c-2.7-8.5-4.5-12.1-11.9-23.4-8.5-12.8-15.7-27.6-25-51-4.4-11.1-8.5-20.5-9.2-20.9s-2.9-.8-4.9-.8h-3.8v4.8c0 8.4 2.9 37.9 4.5 45.4.8 4.3 3.7 11.8 6.8 18.3 7.1 14.5 8.1 19.1 7.4 32.9-1.2 22.1-4.7 75.2-5.2 77.9l-.4 2.7h29.9 30zm-94.7 3.3c1.6-.6.8-1.7-5.1-7.3-3.9-3.6-8-6.9-9.1-7.3-3.6-1.1-16.3 7.7-17.6 12.2-.6 2.1-.3 2.2 5.7 2.6 11.7.6 24.3.6 26.1-.2zm20.4-75.2c3.5-1.3 8.3-5.8 8.3-7.7 0-1.3-.3-1.2-1.8.1-2.7 2.5-10.9 4.7-17.4 4.7-6 0-7.6 1.4-3.5 3 3.1 1.2 11 1.2 14.4-.1zm81.8-1.4c2.9-1.4 6.4-4 7.7-5.8 4.1-5.4 4.3-6.4.7-2.9-1.9 1.7-3.9 3.2-4.3 3.2s-2.1.9-3.7 2c-1.5 1.2-5.1 2.4-7.9 2.7-4.8.6-6.3 1.6-3.7 2.6 2.7 1.1 6.1.6 11.2-1.8zm-230.3-25.5c6.5-.5 13.2-1.6 15-2.4 3-1.3.6-1.4-23.2-1.4-14.6 0-28.5.3-31 .6l-4.5.7 5.5 1.3c10.1 2.3 21.1 2.6 38.2 1.2zm6-19.4c10.7-1.4 16.4-3.5 15.5-5.9-.3-.7-1.1-1-1.8-.7-.8.2-16.2.5-34.4.6-27.2.1-33 .3-33 1.4 0 1.6 6.2 3.6 15 4.9 9.2 1.3 26.8 1.2 38.7-.3zm292.4-53.9c1.8-5.4 1.9-8.4.9-20.2-.9-10.1-.5-10.6 13.3-13.3 5.7-1.1 10.6-2.2 10.8-2.4s.1-1.4-.3-2.6c-.5-2.1-.9-2.2-15.4-2.2-17.2 0-14.8 1.7-21.4-14.8l-4.2-10.4-5.6 5.2c-5.4 4.9-5.7 5.5-5.7 9.9 0 2.6-.4 5.1-.9 5.7-2.8 2.9-11.1 19.2-11.1 21.8 0 1.2 1.1 3.5 2.4 5.1l2.4 3 .7-4c.8-5 4.5-15.4 5.6-16.1.5-.3.9-2.3.9-4.4 0-3.3.4-4.1 2.4-4.6 1.3-.3 3.6-.4 5.2-.2 2.3.2 3 .9 3.5 3.4.3 1.8 1.6 4.6 2.8 6.3 8.4 11.8 11.6 27.9 8.4 43.1-.5 2.4-.4 2.4 1.6-.5 1.2-1.6 2.8-5.2 3.7-7.8zm18.3-7.2c1.3-6.7.6-12.5-1.5-12.5-1.1 0-1.4 2.2-1.4 10.8.1 11.4 1 12 2.9 1.7zm-127.9-.4 6.5-1.9-9.1-.1c-9.9-.1-11.1-.7-14.7-7.6-.9-1.6-1.6-2.6-1.7-2.2-.1 3.1 6.5 11.7 10 13 2.2.8 2 .8 9-1.2zm-95.3-16.3c-.2-2.4-.4-.7-.4 3.7s.2 6.3.4 4.3c.2-2.1.2-5.7 0-8zm60 8c-.3-1.3-2.2-9.9-4.1-19.2-3.6-16.9-3.6-17.2-3.6-41.7v-24.7l-3.4-1.2c-1.8-.6-5.9-2.6-8.9-4.4l-5.7-3.4-7.7 4.4c-4.2 2.4-8.1 4.5-8.5 4.6-.5.2-1.3 4.6-1.8 9.8-1.6 16.4-3.4 59.4-2.6 62.3.5 2.3 2 3.5 8.2 6.3 4.1 1.9 7.9 3.4 8.3 3.4.5 0 .2-1.9-.6-4.1-3.5-10.3-4.1-29.2-1.8-54.4.8-8.8 1.5-16.3 1.5-16.7 0-.5 1.6-.8 3.5-.8h3.5v9.7c0 5.3-.5 15.9-1.2 23.5-.8 10.6-.8 15.7.1 22.5 1.4 9.9 4.2 17.3 6.5 17.3 1.2 0 1.6 1 1.6 3.4 0 3.4.1 3.5 4.8 4.1 2.6.3 5.4.8 6.2.9.8.2 2.6.4 3.9.5 1.9.1 2.2-.3 1.8-2.1zm8.2-48.8c-1.6-28.9 1.9-73.9 8.1-104.6 2-10.3 2.1-13.8 0-5.7-7 28-12.3 97.6-9 120.2.7 5 1.4 9 1.6 8.9.1-.2-.2-8.6-.7-18.8zm146.7 9.1c-1-1.1-1.9-4.4-2.3-8.5l-.6-6.6h2.9c2 0 2.5-.3 1.7-1.1-1.3-1.3-13.2-1.4-14.5-.1-.5.5.2 3.8 1.6 7.5 3.9 10.5 4.1 10.7 8.8 10.7 3.9 0 4-.1 2.4-1.9zm-32.4-23.6c8-3.8 15.2-5.5 23.4-5.5 3 0 5.4-.3 5.4-.8 0-.4-1.3-2.2-2.9-4-3.3-3.5-6.1-4-10.5-1.7-1.5.8-3.8 1.5-5 1.5s-3.1.7-4.2 1.5c-1 .8-2.5 1.5-3.2 1.5-1.6 0-10.1 5.6-15 9.7-2.4 2-3.1 3.3-2.7 4.6.7 1.6 1 1.5 4.1-.8 1.9-1.4 6.7-4.1 10.6-6zm-305.3-24c.5-1.2 1.1-6.8 1.2-12.5l.4-10.5-3-.3c-4-.4-6.4 2.3-10.5 11.8-3 6.7-3.1 7.7-2 10.5.7 1.6 2 5.1 2.9 7.7l1.6 4.6 4.3-4.6c2.3-2.6 4.6-5.6 5.1-6.7zm308.1 2.4c2.5-.6 7.1-1.5 10.2-1.8 4.8-.5 5.6-.9 4.8-2.1s-1.3-1.3-3-.2c-2.5 1.5-8 1.6-8 .1 0-2.8-11.4 2.8-16.5 8.1l-2.9 3 5.5-2.9c2.9-1.6 7.4-3.5 9.9-4.2zm-17-10.5c2.3-1.6 3.7-3.1 3.3-3.8-.4-.6-3-4.1-5.8-7.7-11.3-14.6-21.5-33.9-21.5-40.8 0-3.2-.1-3.3-3.1-2.7-1.7.3-4.4 1.5-5.9 2.6-3.3 2.3-3.4 1.7 4.1 17.7 2.2 4.6 3.9 9.7 4 11.5.1 3 .2 3.1.8.8.6-2.1 1.4-2.6 4.8-2.8 4-.3 4.2-.2 7.7 5.5 4 6.3 4.8 12.3 2.1 15.3-1.4 1.5-1.3 1.9.9 4.3 3.1 3.3 3.7 3.3 8.6.1zm-114.6-12.6c.3-2.4 1.7-13.7 3.1-25.3 4.1-32.9 5.9-38.9 19.3-63.4 1.3-2.4 2.1-4.5 1.8-4.8s-2 .4-3.8 1.5-7.7 3.9-13.1 6.2c-12.8 5.6-15.1 8.3-18.2 22.3-1.3 5.6-2.6 12.2-2.9 14.7l-.6 4.5 1.8-4.5c1.6-4.1 2.1-4.5 5.5-4.8 3.5-.3 3.7-.1 3.7 2.5 0 1.5-.5 4.4-1 6.3-1.8 6.2-8 37.8-8 40.7 0 2.5.7 3.3 5.3 5.5 2.8 1.5 5.5 2.7 5.9 2.7.4.1.9-1.8 1.2-4.1zm36.1-1c1.3-10.6 3.7-22.6 7-34.8 1.8-6.9 4-16.1 4.8-20.5 1.5-8 5.2-17.5 9-22.9 1.9-2.7 1.9-3 .3-4.2-1.5-1.1-2.2-.7-5 2.4-10.1 11.3-14.6 26.3-19.6 65.5-1.7 13.2-1.9 17.1-1 18.2 2.4 2.9 3.8 1.6 4.5-3.7zm-59.3-1.2c1-.3 1.8-2 2.3-4.8.3-2.4.9-5.6 1.2-7.1.5-2.7.4-2.8-1.7-1.7-2.7 1.4-9.9.7-11-1.1-.5-.7-1.1 1.9-1.5 5.7-.3 3.8-.8 8.6-1.1 10.7l-.6 3.8 5.4-2.5c2.9-1.4 6-2.7 7-3zm-97.1-15.1c3.4-7 5.3-16.2 4.1-19.6-.8-1.9-1.1-1.2-2.2 4.6-2.4 13.1-4.7 19-9.7 24.7l-4.7 5.3 4.8-4.5c2.6-2.5 6-7.2 7.7-10.5zm30.1 5.8c2.6-3 2.9-5.7 1-11.1l-1.9-5.3-.6 7.4c-.4 4.1-.9 8.1-1.3 9.1-.8 2.1.9 2.1 2.8-.1zm-89.8-12.5c.6-2.6.2-2.9-8.1-6.8-4.7-2.2-8.9-3.8-9.1-3.5-.3.3.3 2.7 1.4 5.3 1.6 4 2.7 5.1 7.4 7.5 5.9 3 7.2 2.6 8.4-2.5zm120-14.7c2.5-13.1 2.3-13.5-3.4-7.1-2.9 3.2-4.5 5.9-4.1 6.5.5.5 1.4 2.8 2 5 2.3 7.5 2.1 7.2 3.1 5.5.5-.8 1.5-5.3 2.4-9.9zm-72.4.9c2.2-4.2 2.6-8.6 1-11-.8-1.3-1-1.3-1 .1 0 .9-1.2 3-2.8 4.6-2.4 2.7-2.6 3.4-1.9 6.7.5 2 1.3 3.6 1.8 3.6s1.8-1.8 2.9-4zm-29.5-2.2c.7-2.9.4-3.6-2.8-6.3-2-1.7-4.8-3.7-6.4-4.5-1.5-.8-5.4-2.9-8.5-4.7s-6.2-3.1-7-2.8c-.7.3-2.3 2-3.6 3.8l-2.2 3.2 2.2 1.8c5.9 4.5 22.8 12.5 27 12.7.3 0 1-1.4 1.3-3.2zm83.5-6.3 4.4-4.5h-2.9c-4 0-6.3-2.5-8-8.7-.9-2.9-2.2-7.8-3.1-10.8-.8-3-2.1-5.5-2.8-5.5-1.8 0-2.6-7.3-2.6-23.5l-.1-13-4.5 5c-5.1 5.6-11.6 18-14 26.4-1.2 4.1-2.8 6.7-6 9.9-2.5 2.3-4.9 4.2-5.4 4.2-2.9 0-4.7-4.1-6-13.1-1.2-9-1.3-9.3-2.6-6.4-.7 1.7-1.6 4.9-2 7.2-.6 3.8-.3 4.7 2.4 7.7 1.7 1.9 3.3 4.4 3.7 5.5.3 1.2 1.9 2.2 3.8 2.7 5.3 1.1 8.6 3.2 11.7 7.6 2.7 3.7 3.9 4.4 11.3 6.6 4.5 1.3 10 3.4 12.2 4.7 2.2 1.2 4.5 2.3 5 2.4.6.1 3.1-1.9 5.5-4.4zm146.4.7c3.6-4 18.8-12.5 24.4-13.7 3.7-.8 3.9-1.7 1.3-8.6-2.8-7.1-5.9-11.4-10.3-13.9l-3.7-2.1-3.5 3.2c-4.2 3.6-9.8 14.5-12.6 24.3-1.6 5.8-1.8 7.6-.8 10.8.6 2.1 1.3 3.8 1.5 3.8s1.8-1.7 3.7-3.8zm-135.5-13.9c4.7-6.1 5-6.8 3.3-7.4-1.1-.4-3.1-2.2-4.5-4.1l-2.7-3.3.7 3.8c.5 3 .3 3.7-1.1 3.7s-1.6 1-1.4 7c.1 3.9.3 7 .4 7s2.5-3 5.3-6.7zm-74.9-1.8c0-.8.5-1.5 1-1.5 2 0 .9-2-2-3.5-1.7-.9-5.5-1.5-9.5-1.5-6.2 0-6.5-.1-6.5-2.4 0-1.3 1.6-7.2 3.5-13 1.9-5.9 3.5-10.9 3.5-11 0-.2-2.6-.6-5.7-.9-3.2-.4-6.9-.8-8.2-.9-2.3-.3-2.5.2-4.6 10.9l-2.1 11.2 2 .5c1.2.3 4 .6 6.4.6 4.1 0 4.2.1 4.2 3.4 0 1.9-.5 3.8-1.1 4.2-.6.3.6 1.4 2.8 2.4 2.1 1 5.4 3.4 7.3 5.4l3.5 3.7 2.8-3.1c1.5-1.6 2.7-3.7 2.7-4.5zm259.1-29.4c8-8.3 14.5-18.6 19.2-30.5 6.2-15.2 7.7-17.9 11.5-19.1 5-1.7 4.9-2.5-.4-2.5-8.3 0-9.6 1.3-12.2 11.5-3.8 14.9-12.4 31.3-21.5 41.3-5.5 5.9-2.4 5.3 3.4-.7zm-169.8-4.7c.3-.4-1.3-4.5-3.7-9.3-2.4-4.7-4.8-10.2-5.5-12.2-.7-2.2-2.2-4.1-3.6-4.7-1.4-.7-2.5-.9-2.5-.7 0 .9 5.4 14 6.5 16 .7 1.1 2.4 4.1 3.9 6.8 2.6 4.5 3.6 5.4 4.9 4.1zm18.8-5.7c2.7-1.8 3.7-3.4 4.6-7.2 1.9-8.4 2-8.2-4.8-9-3.3-.4-8.5-1.3-11.5-2s-5.4-1.1-5.4-.9 1.1 2.9 2.6 6.1c3.3 7.6 8.3 15.3 9.9 15.3.6 0 2.7-1 4.6-2.3zm-108.6-22.4c1.1-6.1 3.6-11.3 5.4-11.3 2.6-.1-4.8-5.9-8.5-6.6-6.9-1.3-16.4 7.8-16.4 15.7 0 1.6.7 1.9 5.4 1.9 3.9 0 6.2.6 8.7 2.3 1.9 1.3 3.7 2.2 4 2.1.4-.2 1-2 1.4-4.1zm138-5.4c14.5-1.9 25.2-3.7 28-4.9 1.1-.4 5.8-2 10.5-3.5s13.3-5.1 19.2-8.1c10-5 27.5-17.2 32.6-22.7l2.3-2.4-2-6.1c-1.2-3.4-2.1-7.5-2.1-9.2 0-1.6-.2-3-.4-3s-2.8 1.1-5.7 2.4c-13.2 6-39.7 7.3-55.6 2.7-4-1.2-9.3-2.1-11.7-2.1-4.1 0-4.5.2-4.8 2.7-.2 2.2-1 2.9-3.5 3.4-1.7.3-5.3 2.5-7.8 4.7-7.9 6.9-13.8 8.7-29 8.7-12.2 0-13.4-.2-19.2-2.9-8.7-4-10.5-6.2-10.1-12.2l.3-4.9 5.1-.3c4.3-.2 5.9.2 10.9 3.2 9.7 5.9 16.8 6 26.5.4 5.3-3 5.4-3.1 3-4-5.8-2.2-9-4.3-18.3-11.7-5.3-4.3-12.9-9.3-16.9-11.1-8.3-3.8-7.1-4.8-13.3 10.4-5.6 13.8-5.9 14-24 14.4l-14.4.3 2.2 4.7c8.7 18.7 26.1 35.1 45.8 43.4 18.2 7.6 34.3 10 52.4 7.7zm154.9-53c1.4-1.1 2.6-2.9 2.6-3.9 0-1.7-.3-1.8-2.7-.9-1.6.6-4.5 1.4-6.6 1.7-4.5.8-5 2.2-1.6 3.9 3.4 1.8 5.2 1.6 8.3-.8zm-4.2-17.4 6.4-2.7-.7-5.6c-.4-3.2-1.2-7-2-8.5-1.1-2.5-1.7-2.8-5.8-2.5-4.4.3-4.7.5-7.2 5.3l-2.5 5-7.3.3c-6 .2-8.2-.1-12.6-2.2-6.1-2.8-8.3-6-9.2-13.7-.3-2.7-.9-4.9-1.3-4.9s-1 3.3-1.3 7.3c-.3 3.9-.8 8.2-1.2 9.4-.7 2.1-.5 2.2 4.9 1.6 5.5-.6 5.6-.5 5.6 2 0 2.8 3.9 8.1 7.4 9.9 6.5 3.5 17.1 3.2 26.8-.7zm-82.1-4.5c11.4-3.9 17.8-9.7 20.5-18.8 2.3-7.5 2.1-8.2-3.1-8.2-6.6 0-10.2-2.2-11.5-6.8-.5-2.1-1.1-12.5-1.2-23l-.3-19.1 3.7-3.7c2.9-3 4.5-3.8 8.6-4.2l4.9-.4-.7-3.2c-1.9-8.3-3.7-12.2-7.7-16.6-5.4-6-11.5-8.5-23.3-9.5-4.7-.4-8.8-1.1-9.1-1.7-.4-.5-3.7-1.9-7.5-2.9-5.7-1.6-10-1.9-24.9-1.8-18.8.1-18.8.2 2.4 2.9 20.2 2.6 31.2 10.8 36.1 26.8 1.8 5.9 2 9.4 2 40.7v34.2l-3 5.9c-2.9 5.9-3.3 7.7-1 4.9.7-.8 2.8-1.5 4.7-1.5 3.5 0 3.5 0 3.1 4-.2 2.2 0 4 .5 4 .4 0 3.5-.9 6.8-2zm115.9-18.7c9.4-10.3 17.7-24 23.4-39 4.7-12.1 4.7-12.3-.9-12.3-12.9 0-33.5 3.5-40.5 6.9-2.2 1-6.3 2.4-9.2 3.1-15.6 3.7-27.4 13.9-30.8 26.8-.9 3.5-.8 4.8.6 7.7.9 2 2 3.8 2.5 4.1.8.5 4.9-6.6 4.9-8.6 0-1.5 3.7-6.7 8-11.3 8.4-9.1 21.9-14.7 35.5-14.7h8.5v3.5c0 2.5-.4 3.5-1.6 3.5-1.9 0-15.4 5.6-17.8 7.3-1.6 1.2-1.6 1.6.3 6.7 1.2 3 2.1 6.8 2.1 8.3 0 2.6-.2 2.8-3.7 2.5s-4-.8-6.2-5.2l-2.3-5-3.3 4-3.3 3.9 3.4.7c5.1 1.1 10.9 4.4 13.3 7.4 1.6 2 2.1 4.1 2.1 8.1v5.5l4.9-4.1c2.7-2.3 7.3-6.7 10.1-9.8zm-308.6 3.7c4.1 0 4.8-.8 7.9-9 2.2-5.9 2.7-6.5 5.5-6.8 2.9-.3 3-.5 2.2-2.8-1.4-3.6-1.2-10 .3-11.2.6-.6 2.6-1.3 4.2-1.5 1.7-.3-2.4-.4-9-.2-16.5.5-17.5.2-17.5-4.5v-3.8l12.3-.6c15.8-.8 96.4-2.6 117.5-2.6h16.2v4.5 4.5h-10c-6 0-10 .4-10 1s1.2 1 2.6 1c2.5 0 2.6 0 2.2 7.5l-.3 7.4 3.5.3c3 .3 4 1.2 8.5 7.5 5.5 8 7.3 9.1 15.7 9.5 4.6.2 6.2-.1 8.8-2 5.4-4 6-6.9 6-28.9 0-22.2-1-30.4-4.4-37.2-5.7-11.1-15.3-15.1-36.1-15.1-25.5 0-106.4 4.2-118.4 6.1-17.3 2.7-30.6 16.5-33.1 34.1-1 7.1.2 18.9 2.5 24.4.8 2 1.5 4.4 1.5 5.4 0 3 6 10.7 10.7 13.8 4.6 3 4.7 3 6.1 1.1.8-1.2 2.5-1.9 4.6-1.9zm237.9-30.1c2.5-7.2 8.7-16.3 13.9-20.2 5.7-4.2 16.1-9.5 22.1-11.2 3.1-.9 5.7-2.1 5.7-2.6 0-2.2-6.4-2.9-27.7-2.9h-22.5l.6 17.3c.3 9.4.6 19.4.6 22 0 4.6.1 4.8 2.6 4.5 2.1-.3 2.9-1.3 4.7-6.9zm-22.3-9.8v-14.9l-2.7.7-2.8.8.3 11.9c.3 14.6.6 16.4 3.2 16.4 1.9 0 2-.7 2-14.9zm-142.2 7.2c-1.5-.2-4.2-.2-6 0s-.6.4 2.7.4 4.8-.2 3.3-.4zm162-52c4.1-6.1 9.1-21.7 9.2-28.5v-2.7l-4.7 2.1c-6.9 3-24.4 3.7-34.4 1.3-10.9-2.6-17-5.8-22.8-12-7.3-7.7-10.5-15-10.5-24.3-.1-6-.4-7.2-1.6-6.8-15.1 4.7-28 12.2-38 22.1-2.5 2.5-5 4.5-5.6 4.5-.5 0-3.2 2.2-5.8 4.9l-4.8 4.9 28.8.4c28.6.5 29 .5 40.8 3.6 16.9 4.4 25.8 8.9 32.8 16.3 3.1 3.3 6.7 8.4 8 11.4 2.7 6.4 5.5 7.3 8.6 2.8zm-138-19c-1-.2-2.6-.2-3.5 0-1 .3-.2.5 1.7.5s2.7-.2 1.8-.5zm-57.3-11.3c17.1-1.8 16.3-1.4 12.1-6-5.1-5.7-7.6-11.2-8.3-18.6-.6-6.3-.6-6.4-2.5-4.7-4.9 4.4-19.7 27.4-19.8 30.6 0 .5 1.7.6 3.8.3 2-.3 8.7-1 14.7-1.6zm157.5-24.1c-2.2-2.8-4.3-6.2-4.6-7.5-.7-2.8-1.2-2.9-4.1-.6-2.2 1.7-2.2 1.8-.5 5.2.9 1.9 3.6 5.4 6.1 7.8 4.2 4.2 4.4 4.2 5.8 2.3 1.3-1.9 1-2.5-2.7-7.2zm42.5-1.5c1.4-1.5 13.4-25.2 14.8-29.5.5-1.4-.3-1.6-6.2-1.1-10.1.7-17.4-1.7-23.2-7.7l-4.6-4.8-2.4 4.6c-1.3 2.5-4.8 7.9-7.6 11.9-2.9 4-5.3 8.1-5.3 9 0 2.1 3.4 7.8 6.9 11.5 4.1 4.5 8 6.1 16.1 6.8 4.1.3 8 .6 8.7.7.6.1 1.9-.5 2.8-1.4zm-217.4-20.4 7.7-7.5-1.9-4.8c-1.1-2.6-2.9-8.6-4-13.2-1.8-7.1-2.4-8.3-3.8-7.5-.9.4-4.2 2-7.4 3.5-4.5 2.1-6.2 3.5-7.7 6.5-1.1 2.2-2 4.7-2 5.6 0 1-.7 2.5-1.5 3.4-1.4 1.6-1.3 2.8 2.1 13.1 2 6.3 4.1 12.3 4.7 13.4.9 1.8 1.2 1.7 3.5-1.5 1.4-1.9 6-6.9 10.3-11zm232.2-25.1c9-3 9.4-3.5 7.8-11.1-2-9.8-7.6-24-15.8-39.8-8.5-16.5-9.9-18.8-11.2-17.4-.5.5-1.1 10.3-1.3 21.9-.3 20.1-.2 21.2 2 25.6 1.2 2.5 2.2 5.7 2.2 7.1s.9 3.6 1.9 5c1.1 1.3 2.1 3.9 2.3 5.8.2 2.7.9 3.6 2.8 4.1 1.4.4 2.6.7 2.8.8.1.1 3.1-.8 6.5-2zm-240.8-22.2c2.8-1.4 5.6-2.6 6.3-2.8.9-.3 1.3-5.2 1.7-19.4l.4-19-3.5 5.5c-7.1 11-16.7 31.4-19.8 41.8l-1.5 5.3 5.7-4.5c3.1-2.5 8-5.6 10.7-6.9z"/><path d="m110.3 912.3-3.3-.4v-34.9-34.8l3.7-.4c2.1-.3 12-.2 22 0l18.3.5-.2 35.1-.3 35.1-18.5.1c-10.2.1-20-.1-21.7-.3z"/><path d="m142.3 835.3c-1.9-.4-2.3-1.1-2.3-4.2 0-5.6 1.7-7.3 7-6.9l4.5.3v5.5 5.5l-3.5.1c-1.9.1-4.5 0-5.7-.3z"/><path d="m455.3 911.9c-4.6-1.3-4.1-3.6 1.2-6 9-4 25.4-3.3 30.7 1.2l2.3 1.9-2.4 2c-2.1 1.8-3.7 2-15.5 1.9-7.2 0-14.6-.5-16.3-1z"/><path d="m94.5 737c-1.3-1.4-1.6-2.9-1.2-5.4.7-4.2 4.3-12.6 5.4-12.6 1.2 0 5.3 11.1 5.3 14.2 0 5.3-5.9 7.7-9.5 3.8z"/><path d="m511 592c-1.3-2.5-1.4-43-.1-49.5.6-2.8 1.3-6.3 1.5-7.9.6-3.6 3.3-7.6 5.1-7.6 2.8 0 6.5 4.8 14.1 18 13.3 23.3 18.4 33 18.4 34.9 0 2.5-2.9 3.1-12 2.4-7.6-.6-7.7-.5-8.3 2-.4 1.3-2.4 4-4.4 5.8-3.1 2.7-3.9 3-4.1 1.6-.3-1.5-.7-1.5-4.2.3-4.8 2.4-4.7 2.4-6 0z"/></g><g fill="#25557b"><path d="m380.5 908.5c-.4-5.2-.6-12.6-.3-16.4.3-6.1.8-7.4 3.2-10 1.5-1.6 3.7-3.2 4.8-3.4 1.8-.5 1.9-.2 1.2 5.1-.4 3.1-1.1 6.7-1.5 8-.5 1.3-.9 3.3-.9 4.4 0 1.9.4 2 6.6 1.5 3.6-.2 6.8-.7 7.1-1 .5-.6-.8-10.6-2.3-16.9-.5-2.3-.3-2.8 1.3-2.8 3.1 0 14.5 6.2 16.5 9 2.3 3.1 4.8 15.1 5.1 23.9l.2 6.6-11.3.3-11.4.3.7-4.1c.6-3.3.4-4-.9-4-.9 0-1.6-.4-1.6-1 0-1.2-4-1.3-5.9-.1s-.4 5.1 2 5.1c1.2 0 1.9.7 1.9 1.9 0 1.9-3.9 3.1-10.7 3.1h-3.1z"/><path d="m144 911.6c0-.7.9-1.6 2-1.9 1.9-.5 2-1.4 2-32.6 0-27.9-.2-32.1-1.5-32.1-.8 0-1.5-.7-1.5-1.5 0-1.2 1.4-1.5 7-1.5 4 0 7 .4 7 1s-.7 1-1.5 1c-1.3 0-1.5 4.3-1.5 32.6v32.6l4.5-.4c4.1-.3 4.5-.1 4.5 1.9 0 2.2-.3 2.3-10.5 2.3-8.3 0-10.5-.3-10.5-1.4z"/><path d="m250.3 907.3-6.3-.4v-4c0-2.5.5-4.2 1.4-4.5.8-.3 5.6-.1 10.7.5 10.4 1.2 9.3 1.7 13.9-5.9l2.4-4.1 8.5 8.5c4.7 4.7 8.2 8.8 7.8 9.2-.8.8-29.5 1.3-38.4.7z"/><path d="m139.8 836.3c-2.4-.6-2.3-5.9.2-10l1.9-3.2-5.2-.3c-4.5-.3-5.2-.6-5.5-2.5-.3-2.3-.2-2.3 11-2.3 6.2-.1 13.3-.5 15.8-1 3.1-.6 4.9-.5 5.9.3 1.2 1 1.2.9 0-1-2.8-4.5 1.4-3.9 8.6 1.3 1.7 1.2 4.9 2.7 7.3 3.3 3.6 1 4.2 1.5 4.2 3.9 0 7.2-1.3 8.1-14.2 10.7-7.1 1.4-25.9 1.9-30 .8zm9.2-6.4c0-2.8-3-3.7-4.6-1.4-1.9 2.6-1.8 3.3.9 3.7 3 .5 3.7.1 3.7-2.3z"/><path d="m145 803.9c0-1.1.6-2.2 1.3-2.5.9-.3 1.2-1.6.9-3.4l-.4-3h12.4c8.3 0 12.8-.4 13.6-1.2.9-.9 1.2-.8 1.2.8 0 1 .3 2.8.6 3.9.4 1.7-.3 2.3-4.3 3.8-2.6.9-7.5 1.9-10.8 2.2s-7.9.8-10.2 1c-3.8.3-4.3.1-4.3-1.6z"/><path d="m166 793c-1.2-.8-1.1-1 .8-1 1.2 0 2.2.5 2.2 1 0 1.3-1.1 1.3-3 0z"/><path d="m151.6 780.6c.4-3.4.7-6.2.8-6.3.5-.7 22-2.3 22.6-1.6.5.4 1 2.3 1.2 4.2.5 5.2-2.8 7.1-15.1 8.5l-10.2 1.3z"/><path d="m440.4 742.5c-.3-1.3 0-4.8.7-7.7s1.2-8.1 1.1-11.5c0-5.6.2-6.3 1.9-6.3 1.2 0 2.3 1 2.9 2.5.8 2 1.6 2.5 4.5 2.5 3.4 0 3.4.1 2.8 3.3-1.8 9.6-7.8 19.7-11.7 19.7-.9 0-1.8-1.1-2.2-2.5z"/><path d="m459 741.6c0-1 .7-4.3 1.6-7.3 1.6-5.6 1.6-21.9 0-25.5-.8-1.7 0-2.1 6.6-3.2l3.6-.7.8 5.7c.8 6.9-1 18.7-3.6 22.9-1 1.6-3.5 4.6-5.4 6.4-2.8 2.8-3.6 3.1-3.6 1.7z"/><path d="m478 713.3v-11.3h2.5c2.2 0 2.5.4 2.5 3.8 0 4-2.4 14.4-4 17.1-.6 1.1-.9-2.1-1-9.6z"/><path d="m410.1 714.3c-1.7-2.1-3.1-4.1-3.1-4.6 0-.4 1.7-3.1 3.9-6 2.1-2.9 4.6-6.7 5.5-8.4 1.4-2.9 2.2-3.3 5.5-3.3 4.3 0 6.2 2.3 3.2 3.9-2.1 1.2-4.9 8.1-6.5 16-1.4 7.3-3.9 8-8.5 2.4z"/><path d="m296 716.3c-1.4-.2-6.1-1.5-10.5-2.8-4.4-1.4-11-2.9-14.6-3.4-7.2-1-14.3-4.1-15.3-6.6-.8-2.1-.8-17.9.1-32.2.6-11 .7-11.3 2.9-11.3 1.7 0 2.5.7 3 2.8.7 2.8 3.1 6.2 4.5 6.2.4 0 1-.9 1.4-1.9.3-1.1 1.9-2.2 3.5-2.6 2.5-.5 2.9-1.2 3.2-4.3.2-2 .3 4.2.3 13.8 0 18.7 1 24.9 5.2 33.3 1.9 3.9 2.6 4.5 3.7 3.5 1.2-1.1 1.1-1.4-.4-2-5.2-1.9-8.2-22.8-6.4-44.1.6-6.6 1-7.7 2.5-7.7 1.6 0 1.9.8 1.9 4.6v4.6l3.3-.5c12.7-2.1 11.7-1.6 11.7-5.8 0-3.2.3-3.9 2-3.9 1.8 0 2 .7 2 8.8 0 8.3 4.3 33.5 7.2 42.2.6 1.9 1.1 4.3 1 5.3 0 .9.3 1.7.9 1.7.5 0 .9.7.9 1.5 0 1.2-1.2 1.5-5.7 1.4-3.2-.1-6.9-.4-8.3-.6z"/><path d="m352.3 704.2c-.8-.5 1.5-2.2 6.7-4.7 8.6-4.2 14-8.4 14-10.9 0-1.2 1-1.6 4-1.6 3.8 0 4 .1 4 3.3 0 2-.7 3.6-1.8 4.4-1.7 1-1.8.8-1.4-1.3.6-3.1-.5-3-3.8.1-2.7 2.6-17.8 11.5-19.5 11.5-.5 0-1.6-.4-2.2-.8z"/><path d="m465.8 691.3c-3.4-.4-3.8-.7-3.8-3.4 0-2.8.2-2.9 4.4-2.9 2.6 0 4.8-.6 5.6-1.5.7-.8 1.9-1.5 2.7-1.5 1.3 0 1.3.3.3 1.5s-1 1.5.3 1.5c1.9 0 3 4 1.5 5.7-1 1.3-3.3 1.4-11 .6z"/><path d="m416.3 689.3-3.2-.4 2-3.7c1.2-2 2.5-4.1 3-4.6.5-.6.9-2 .9-3.3 0-2.8 3-3.1 6-.6 1.4 1.3 2 3 2 6.1 0 6.7-1.6 7.6-10.7 6.5z"/><path d="m100.5 668.8c-1-5.3-.2-16.1 1.3-16.6.9-.3 1.2 2 1.2 9.2 0 9.5-1.4 13.5-2.5 7.4z"/><path d="m332 664.3c-.1-10.6 2.5-49.3 3.3-49.3.9 0 .2 34.4-.9 46.3-.6 5.8-2.4 8-2.4 3z"/><path d="m409.5 659.4c-1.5-2.5-2.4-5.1-2.1-5.9.7-1.9 12.9-11.4 13.9-10.8.7.4 5.7 9.8 5.7 10.7 0 .2-1.5 1.3-3.2 2.4-1.8 1.1-5.2 3.4-7.4 5.1l-4.2 3.1z"/><path d="m458.2 654c-1.2-1.9-1.1-2 1.3-1.4 3 .7 3.2-.5.5-3.4-1.7-1.8-3.2-2.2-7.9-2.2-5.2 0-5.9-.2-6.9-2.5-.7-1.4-1.2-3.2-1.2-3.9 0-.8-1.1-1.7-2.5-2-3.2-.8-3.4-4.1-.2-5 1.2-.3 4.4-.6 7-.6 5.2 0 8.2 2.2 11.4 8.4 1.3 2.5 5.3 13.3 5.3 14.3 0 .1-1.2.3-2.8.3s-3.2-.8-4-2z"/><path d="m404.3 626.3c1.5-1.6 1.4-1.9-1.8-5-4.7-4.6-5.4-7.7-2.4-10.9l2.3-2.5-2.2-4.2c-3.3-6.1-5.8-9.1-7-8.3-.7.4 0 2.2 2 5.1 1.8 2.5 2.9 4.7 2.6 5.1-.4.3-1.7-1-3-3-2.7-4.1-3.6-4.3-7.1-1.6-1.4 1.1-3.7 2-5.2 2h-2.7l2.6-3.4c3-4 3.1-5 1-9.1-3.1-5.8-10.4-22.8-10.4-24.1 0-1.9 5.9-6 10.5-7.3 2.2-.6 6.3-1.1 9-1.1l5 .1-2.9 2.3c-2.4 2-2.8 2.9-2.2 5.2 2.3 9.2 13.3 27.8 24.9 42.1l6.6 8.3-3.1 1.6c-1.7.9-6.2 3.6-10 6-7.2 4.6-9.4 5.5-6.5 2.7z"/><path d="m327.4 610.9c-.7-.8-1.4-3.3-1.4-5.5 0-7 4.7-41.3 7.2-52.7l1-4.9 3.7.6c2 .4 5.3.9 7.4 1.3l3.9.5-.7 4.7c-.3 2.5-2.1 10.2-4 17.1-3.4 12.6-5.9 24.8-7.1 35.2l-.6 5.7-4-.2c-2.1-.1-4.6-.9-5.4-1.8z"/><path d="m232.9 588.9c0-7.4-3.8-19.9-6.4-21.3-1.1-.6-2.2-1.2-2.4-1.3-.6-.3 9.4-12.5 13.4-16.3 3.5-3.4 3.7-3.4 5.1-1.6 1.8 2.5 1.8 3.2-.6 16.8-1.6 9.5-6.9 27-8.5 28.7-.3.2-.5-2-.6-5z"/><path d="m280 580.8c.1-9.6 6.5-33 12.1-44 2.4-4.6 2.4-4.8-.1-4.8-1.1 0-2 .5-2 1 0 .6-.9 1-2 1-3.1 0-2.5-4.1 1.4-9.2 2.9-3.8 5.1-5.2 13.3-8.8 9.5-4.2 22.8-11.2 27.5-14.4 4.3-3 4.8-1.7 1.3 3.2-1.8 2.6-4.3 7-5.5 9.7-2.6 6.1-6.1 11.5-7.6 11.5-.6 0-3.4.7-6.3 1.6-5.2 1.5-5.3 1.7-8.6 8.8-3.4 7.6-8.4 22.3-10.5 31.4-.7 2.9-1.8 5.2-2.5 5.2-1.6 0-2.3 1.7-3.1 8-.4 2.7-1 5-1.5 5s-.9-.3-.9-.7c0-1.3 4.8-24 5.9-27.8.5-1.9.7-3.5.5-3.5-1.5 0-5.4 14.2-7.8 28.3-.4 2.3-1.2 3.7-2.1 3.7-1.1 0-1.5-1.3-1.5-5.2z"/><path d="m161.4 575c-1.4-.5-2.6-2.4-3.4-5.7-.7-2.6-1.3-5.1-1.2-5.5.1-.5-.3-.8-.9-.8s.7-1.8 3-4.1c3.9-3.7 4.2-4.3 3.9-8.7-.2-3.5-.7-4.8-2-5-1.2-.2-1.8.3-1.8 1.3 0 2.2-6.3 8.5-8.4 8.5-1.7 0-13-9.7-13.3-11.4-.3-1.5 14.8-8.6 18.1-8.6 2.9 0 8.1 4.8 9.2 8.5.4 1.1 1 2.2 1.3 2.5 1.5 1.1 5.1 9.3 5.7 12.9.6 4-2 11.7-5.3 15.3-1.8 2-1.9 2-4.9.8z"/><path d="m130 570.4c-7.1-2.3-10-3.8-10-5 0-.8.4-1.4.9-1.4 2.2 0 4.1-6.3 3.5-11.2-.4-2.6-.4-4.8-.1-4.8 1.1 0 8 4.1 11.5 6.7 4.4 3.3 5.5 6.3 4.1 11.9-1.1 4.2-1.3 4.4-4.8 4.3-2 0-4.3-.3-5.1-.5z"/><path d="m404.2 520.1c-.9-2.5-.7-3.2 1.7-5.5 3.5-3.4 4.8-3.3 5.6.4.5 2.1 1.3 3 2.6 3 2.8 0 2.3 1.7-1.1 3.5-4.7 2.4-7.6 2-8.8-1.4z"/><path d="m147 511.1c0-1.4-.6-2.1-2-2.1-1.1 0-2-.7-2-1.5s.6-1.5 1.3-1.5 2.7-1.2 4.5-2.7c4.2-3.6 4.8-9.6 1.4-14.2-1.3-1.8-1.8-3.2-1.2-3.6.6-.3 1-1.5 1-2.5s.6-2.5 1.3-3.2 2.1-4.3 3.1-8l1.8-6.8h3.8c5.4 0 7 2.8 7 12.5 0 6.8-.2 7.5-2 7.5s-2-.7-2-6.2c-.1-5.9-.2-6.1-1.4-3.8-.8 1.4-2.4 6.1-3.6 10.5-3.7 13.7-8.4 26.9-9.7 27.3-.8.2-1.3-.5-1.3-1.7z"/><path d="m233.3 500.8c-1.2-2.4-3.8-8.3-5.7-13.3-2-4.9-4.5-10.2-5.6-11.7-2.5-3.4-2.4-3.4 3.8-.2 5.4 2.8 6.2 4.2 10.3 16.8 3.6 11.1 1.5 17.2-2.8 8.4z"/><path d="m427.2 498.7c.8-7 8.3-26.6 12.1-31.4 1.1-1.5 7.7-1.8 7.7-.4 0 .6-.4 1.2-.9 1.6-1.4.8-3.7 5.6-8.3 17-4.9 12.4-7.7 17.5-9.6 17.5-1.1 0-1.3-1-1-4.3z"/><path d="m323.7 362.7c.3-17.2.8-31.5 1.2-31.8 1.3-1.1 12.3-4 12.9-3.4 1.2 1.2 1.4 48.7.2 52.7-1 3.6-5.3 7.8-12.1 12.1l-2.7 1.6z"/><path d="m396.7 358.3c-.4-4.3-.4-8.8-.1-10.1 1-3.5 3.8-2.3 4.4 1.8l.5 3.5 5.3-.3c2.8-.1 5.2-.1 5.2 0 0 .2-.9 3-1.9 6.3l-1.9 6-5.4.3-5.5.3z"/><path d="m377.7 362.6c-.3-.7-.9-8.4-1.3-17-.6-14.7-.6-15.6 1.2-16.1 1-.4 2.7-1.1 3.6-1.6 1-.5 2.9-.9 4.3-.9h2.5l.2 16c.1 8.8.2 17 .2 18.3.1 2-.4 2.2-5 2.5-3.8.2-5.3-.1-5.7-1.2z"/><path d="m366.5 259c-1.2-.4-2.7-1.5-3.5-2.5-1.2-1.4-.8-2.2 3.3-6.2 4-4 4.8-4.5 6.2-3.3 3.6 3 3.8 5 .9 9.1-2.8 4-3.5 4.3-6.9 2.9z"/><path d="m402.5 250.1c-.3-.6-3.5-1.1-7.1-1.1-7.3 0-12.1-2-16.8-6.9-2.8-2.9-2.8-3.1-1.2-5.6.9-1.4 2.2-2.5 2.9-2.5 1.5 0 10.7-13.7 15.2-22.6l3.1-6.1 2.3 1.8c5.7 4.6 23 6.2 24.5 2.3.3-.8 1-1.4 1.6-1.4 2.6 0 .2 7-8.3 24-8.8 17.7-9.3 18.5-12.4 18.8-1.7.2-3.4-.2-3.8-.7z"/><path d="m177.4 245.3c-.4-1.6-1.8-5.2-3.1-8.1-1.3-3-3.9-10.4-5.7-16.5l-3.4-11.1 2.1-1.1c1.2-.6 2.3-1.9 2.5-3 .6-4 3.5-9.5 5.8-11 2.4-1.5 2.4-1.5 2.4 1.7 0 6.4 3 15.8 7.5 24 2.6 4.6 5 8.7 5.5 9.2s-1.2 3.5-3.9 7c-2.6 3.3-5.3 7.3-6.1 8.9-.7 1.5-1.7 2.7-2.1 2.7-.5 0-1.2-1.2-1.5-2.7z"/><path d="m353.1 242.9c-.6-1.8-1.1-3.7-1.1-4.3 0-1.1 9-6.6 10.8-6.6.6 0 1.5 1.4 2.1 3.2.9 2.7.9 3.3-.4 4.1-.9.5-3.1 2.2-4.9 3.8-4.2 3.7-5.1 3.6-6.5-.2z"/><path d="m410.8 202.9c-2.9-1.5-3.8-2.6-3.8-4.5 0-1.7.4-2.3 1.3-1.8 1 .6 1 .4 0-.7-1.7-1.8-1.6-2.9.2-2.9.8 0 1.5-.7 1.5-1.5 0-.9.9-2.8 2-4.3 1.3-1.8 2.1-5.1 2.5-9.7 1.1-13.5 2.9-16.2 10.1-15.3 2.6.3 3.2 1.1 6.3 9.3 2.6 6.9 3.5 11 3.9 17.5.4 7.9.2 8.6-1.9 10.6-3.1 2.7-10.6 5.4-14.9 5.4-1.9-.1-5.2-1-7.2-2.1z"/><path d="m162.3 192.3c.8-5.1 5.2-17.3 6.2-17.3 1.7 0 2.9 14.3 1.5 17s-8.1 2.9-7.7.3z"/><path d="m400.6 176.4c-.3-.9-.6-3.8-.6-6.5 0-4.2.3-4.9 2-4.9 1.8 0 2 .7 2 6.5 0 4.9-.3 6.5-1.4 6.5-.8 0-1.7-.7-2-1.6z"/></g><g fill="#775658"><path d="m89.5 921c-13.9-3.2-13.5-2.9-13.5-10.5v-6.5h4.3c2.3 0 7.7 1.1 12 2.5s8.7 2.5 9.7 2.5c1.6 0 2 .7 2 3.3 0 1.7.3 4.9.6 7l.7 3.7-3.9-.1c-2.2 0-7.5-.9-11.9-1.9z"/><path d="m167.7 916.3c.3-3.8.8-7 1-7.3.9-1 27-7 30.6-7h3.7v7c0 8.8 1.1 8.2-22.8 12.9-3 .6-7.1 1.1-9.2 1.1h-3.9z"/><path d="m155.4 841.1c.3-2 .6-4.3.6-5.1 0-1.2 2.4-2 9.7-3.4 5.3-1 10.7-2.3 11.9-2.8 3-1.4 3.8-4.5 1.3-5.3-1.1-.4-1.7-1.1-1.4-1.6 1-1.5 7.8-1 12.2 1 3.4 1.6 4.4 2.7 5.3 5.8 2.4 7.8 1.7 8.6-8.8 10.5-5.2 1-14.3 2.4-20.4 3.1l-11 1.3z"/><path d="m283 832.3c-2.4-.8-4-3.5-4-6.5 0-2.8.1-2.8 6.1-2.8 8.3 0 15.9-2.4 19.4-6 1.7-1.7 3.9-3 5.3-3 2.4 0 2.5.1 1.8 5.7-1.1 9.8-6.4 13.4-19.3 13.2-4.3 0-8.5-.3-9.3-.6z"/><path d="m367.4 832.2c-.6-.4-1.4-2.3-1.8-4.3l-.6-3.6 5.5-.6c3.2-.3 6.7-1.4 8.4-2.6 1.6-1.2 3.2-2.1 3.6-2.1s2.7-1.8 5.2-4c3.1-2.7 5.5-4 7.4-4 3.4 0 3.6 1.1 1.3 6.6-4 9.6-12.6 15.4-22.6 15.4-2.9 0-5.8-.4-6.4-.8z"/><path d="m327.5 725c-6.8-2.8-13.1-17.9-17.4-41.9-1.6-8.8-2.1-15.7-2.1-29.8v-18.3h2.9c3.3 0 3-1.7 5 29 1.5 23.9 6.5 42.2 13.4 49.8 1.7 1.8 3.1 2.2 8.3 2.2 8.1 0 18.2-4.1 29-11.7 3.4-2.4 6.7-4.3 7.3-4.3s1.4-.7 1.7-1.5c.8-2.1 3.4-1.9 3.4.3-.1 3-6.6 10.8-12.6 14.8-13 8.8-31.9 14.3-38.9 11.4z"/><path d="m242.7 719.4c-2.9-2-3.5-2.8-2.8-4.2.6-.9 1.5-11.5 2.1-23.4.5-11.9 1.3-22.4 1.6-23.2.3-.9 1.5-1.6 2.5-1.6 1.8 0 1.9 1.2 1.9 26.9 0 14.9-.4 27.2-.8 27.5-.5.3-2.5-.6-4.5-2z"/><path d="m294 717.3c-10.7-1.2-37-10-37-12.4 0-1.3 3.3-1.1 6.7.3 1.5.6 5.7 1.4 9.2 1.8 5.1.6 6.8 1.3 8.2 3.1 1 1.3 1.9 1.8 1.9 1.2 0-1.7 4.3-1.6 8.6.2 1.9.8 6.8 1.7 10.8 2.1 6.1.5 7.5 1 7.9 2.5.5 1.7-.1 1.9-6.1 1.7-3.7 0-8.3-.3-10.2-.5z"/><path d="m400.6 646.6c-1.1-2.2-1.5-3.9-1-4.9 1.8-3.1 15.3-12.7 17.8-12.7 2.3 0 2.6.4 2.6 3.5 0 1.9-.6 3.9-1.2 4.4-.7.6-4.5 3.7-8.5 7.1-4 3.3-7.3 6-7.5 6s-1.2-1.5-2.2-3.4z"/><path d="m435 628c-.6-1-1-3.2-1-4.9 0-2.5.4-3.1 2.1-3.1 1.3 0 1.8.4 1.3 1.3-.6 1-.4 1 .7 0 .7-.7 3.2-1.3 5.4-1.3 3.8 0 4.3.3 6.4 4 2.6 4.7 2.6 4.6-7.2 5.3-5.8.4-6.9.2-7.7-1.3z"/><path d="m197.2 621.4c-6.3-1.7-15.2-5.4-15.2-6.3 0-.4.5-1.2 1.1-1.8.9-.9 2.2-.6 5.4 1.2 2.3 1.2 8.4 3.3 13.6 4.5 14.5 3.4 15.4 3.8 7.4 3.9-3.8 0-9.4-.7-12.3-1.5z"/><path d="m168.5 612.6c-1.8-1.3-1.6-1.5 2.6-3.6 2.4-1.2 6.3-3.8 8.5-5.6 3.2-2.5 4.3-3 4.7-2 .6 1.6-10.3 12.6-12.5 12.6-.8 0-2.3-.6-3.3-1.4z"/><path d="m160 606.4c-1.5-3.9-1.4-4.2 4.4-9.5 6.7-6.1 9-10.7 11.9-24 1.7-7.9 2.7-10.5 4-10.7 1-.2 1.7.3 1.7 1.1s.9 1.7 2 2c1.6.4 2 1.4 2 4.5 0 14.9-7.4 29-18.9 36.4-5.5 3.4-5.9 3.5-7.1.2z"/><path d="m417.5 595.4c-10.8-14-14.5-19.8-14.5-23 0-1.2-.7-2.4-1.5-2.8-.8-.3-1.5-1.2-1.5-2.1 0-1.1 1.1-1.5 3.9-1.5 3.8 0 4.1.3 7.2 5.8 3.7 6.4 12.1 18.9 18.6 27.4 5.3 7 5.5 8.8.9 8.8-3.1 0-4-.9-13.1-12.6z"/><path d="m203.2 598.3c-2.7-.4-3.2-.8-2.6-2.1.4-.9 1.4-5.2 2.3-9.4 1.6-8.4 2.2-8.9 7.4-6.5 3.2 1.4 4.2 4.2 3.4 10-.5 3.9-4.4 9-6.5 8.5-.4 0-2.2-.3-4-.5z"/><path d="m361.2 568.2c-4.8-6.6-5.6-21.2-1.1-21.2 1.4 0 1.9.7 1.9 2.8 0 3.3 2.6 12 4.1 13.8.8 1 .6 2.1-.9 4.5l-1.9 3.1z"/><path d="m383.5 544.3c-.4-4.3-1.3-9.6-2.1-11.8-.7-2.2-1.4-5.3-1.4-6.8 0-2.7.2-2.8 4.3-2.5 3.9.3 4.3.6 6.6 5.1 1.2 2.6 2.9 7.1 3.6 10s1.6 6.1 2 7.2c.5 1.8-.1 2.3-4.2 3.6-2.6.9-5.5 1.9-6.4 2.3-1.4.6-1.8-.4-2.4-7.1z"/><path d="m326.5 429.5c-10.9-3.2-19.5-8.2-19.5-11.2 0-2.1.5-2.3 4.5-2.3 2.5 0 7.8.9 11.8 2.1 10.7 3 23.5 3.5 35 1.5 9.2-1.7 20.3-6 24-9.3.9-.9 1.9-1.4 2.1-1.2s.6 3.4.8 7l.5 6.5-4.7 2.2c-16.1 7.4-38.8 9.4-54.5 4.7z"/><path d="m190.2 423.6c-.6-1.1-1.3-3.1-1.7-4.3-.6-2.1-.5-2.2 14.9-2.5 19.2-.4 19.5-.6 24.7-13.4 6.4-15.5 5.6-14.4 9.8-14.4 5.4 0 16.5 5.7 26 13.4 15 12.1 14.8 12.1 28.3 12.5 10.1.3 11.8.5 11.8 2 0 .9-.4 2.3-1 3.1-.7 1.2-1.3.9-3-1.3-2.5-3.2-7.2-3.6-10.9-1-2.9 1.9-11.3 1.9-16.9-.2-2.1-.7-8.8-4.2-15-7.8-16.5-9.5-18.6-9.6-21.3-1.5-3 9.3-10.8 13.7-27.6 15.8-16.4 1.9-17 1.9-18.1-.4z"/><path d="m346.3 404.9c2.1-1.7 4.3-4.1 4.9-5.3l1.1-2.1-2.4 2c-1.3 1.1-3.3 3-4.4 4.3-1.7 2-3.2 2.4-10 2.8l-8 .5 2.8-2.3c9.4-7.8 12-10.6 14.8-16.4 1.8-3.5 3.8-6.4 4.5-6.4 2 0 2.3-2.3 3.4-24.5 1.4-30.3 1.3-44.1-.5-50.8-.8-3.2-1.5-7.7-1.5-10.1 0-3.9.3-4.4 3.5-5.9 5.6-2.7 9.2-2.2 12.3 1.5l2.7 3.1.5-2.4c1-4.1 4.3-3.5 8.7 1.4 4.1 4.7 7 12.1 8 20.5l.5 4.9-5.2.5c-4.3.4-5.8 1.1-8.8 4.2l-3.7 3.7.3 16.2c.1 8.9.7 17.9 1.3 19.9 1.2 4.6 4.9 6.8 11.4 6.8h4.5v4.8c0 18.2-13.1 29-38.5 31.6l-6 .7z"/><path d="m427 395.1c0-.5.5-1.1 1.2-1.3.7-.3 2.4-2.7 3.8-5.4l2.5-4.9 6.5-.7c6.2-.7 10.8-.3 9.6.9-.3.3-.1 1.4.5 2.4.8 1.6.6 1.9-1 1.9-1.1 0-2.9 1.3-4.1 3s-3.6 3.4-5.8 4c-4.6 1.2-13.2 1.3-13.2.1z"/><path d="m398 379.1v-6.1h3.9 3.8l.6 5.2c.4 2.8.5 5.3.4 5.4-.2.2-2.2.6-4.5 1l-4.2.7z"/><path d="m419.6 381.7c-1.5-1.9-2.6-3.8-2.6-4.4 0-.5 1.8-2.4 3.9-4.1 3-2.4 5-3.2 8-3.2 3.6 0 4 .2 3.2 1.8-.4.9-2 4.3-3.5 7.5-3.1 6.8-5.2 7.3-9 2.4z"/><path d="m456.5 383.9c-1.3-2-10.9-5.9-14.7-5.9-2.1 0-3.8-.2-3.8-.5 0-2.3 11.6-16.5 13.5-16.5.6 0 2.2 2.5 3.5 5.6 3.8 8.5 5.2 8.5 2 0-2.5-6.9-2.6-7.6-1.1-8.9 2.4-2.1 7.8-4.7 15.1-7.3l6.5-2.4-5.5-.1c-5.2-.1-5.3-.1-2.5-1.1 1.7-.6 3.2-1.4 3.5-1.8 1.3-2 13.7-6 18.7-6 5.2 0 5.3 0 5.3 3 0 4.1-2.7 8-5.5 8-4 0-8.9 4.2-11.7 10.1-4.1 8.6-21.7 26.6-23.3 23.8z"/><path d="m390.9 291.5c-3.8-1.7-7.9-7.6-7.9-11.3 0-1.2-.4-2.4-1-2.7-.5-.3-1-1.8-1-3.3v-2.7l10.3-.1c10.8-.1 17.5-2 22.3-6.5l2.1-2 1.3 3c1.2 3 1 5.3-1.2 17.5-1 5.2-1.4 6-4.4 7.2-5.3 2.2-16.3 2.7-20.5.9z"/></g><g fill="#c9383a"><path d="m452.4 783.6c-13.5-3.1-28.3-10.9-32.8-17.4-2.5-3.7-4.8-11-3-9.9.5.3 4.9 3 9.7 6.1 21 13.1 45.3 17.9 62.2 12.1 8.6-2.9 22.5-12.2 20.8-13.8-.3-.4-.1-.7.6-.7 2.2 0 14.2-12.2 19.1-19.5 6.6-9.8 8.7-14.2 10.6-22.6 2.3-10.1 1.5-33.4-1.5-42.9-1.2-3.6-2.1-8.1-2.1-10-.1-4.2-2-12.1-4.9-20.7-1.1-3.4-2.1-7.6-2.1-9.3 0-1.6-1.3-6.9-3-11.7-1.6-4.7-3-9.4-3-10.3s-.7-3.1-1.6-4.9c-1.2-2.3-1.4-5.1-1.1-11.1.4-7.1.8-8.3 3.5-11.5 4.2-4.7 5.9-4.5 6.7.8 1.5 10 3 15.6 5.6 21.2 5.8 12.7 10.7 25.2 11.8 30 .6 2.8 1.7 8.2 2.5 12 .8 3.9 2.6 10.4 4 14.5 3 8.6 4.9 24 3 24-.7 0-1.4 2.8-1.8 7.8-1.6 19-5.1 32.5-11.5 45-2.3 4.3-4.1 8.5-4.1 9.5 0 .9-4.5 6.1-9.9 11.5-8.8 8.6-11 10.2-19.3 13.9-14 6.3-23 8.4-38.8 8.9-9.3.2-15.4-.1-19.6-1z"/><path d="m224.6 536.3c-1-3.5-1.1-16.6-.1-17 .6-.2 2.1 1.7 3.4 4.2 1.3 2.4 3.9 6.2 5.7 8.4 1.9 2.1 3.4 4.4 3.4 5 0 .7-2.3 1.1-5.9 1.1-4.8 0-6.1-.3-6.5-1.7z"/><path d="m181 530.1c0-3.3 5-17.4 8.8-24.5 3.8-7.4 13.7-18.6 16.3-18.6 1.4 0 1.7 2.6 2.2 19.8.3 10.8.8 20.8 1.1 22.2.4 1.4.4 1.9 0 1.3-.9-2-22.3-1.7-24.8.2-2.6 2-3.6 1.9-3.6-.4z"/><path d="m431.8 527.6c2.3-2.4 5.5-6.9 7.2-10 1.8-3.1 3.6-5.6 4-5.6.8 0 .4 13.1-.6 17.8-.4 2-1 2.2-7.5 2.2h-7.2z"/><path d="m482.4 524.5c-2.5-1.9-23.9-2.2-24.8-.2-.4.6-.4.1 0-1.3.3-1.4.8-11.6 1.1-22.7.3-12.3 1-20.3 1.6-20.3.5 0 3.7 2.8 7.1 6.3 6.8 7 12.2 16.3 16 28.1 3.7 11.1 3.4 13.4-1 10.1z"/><path d="m496.5 495.3c-3.4-6.7-4-8.8-4.4-15.4-.5-11-.2-11 18.4-4 8.3 3.2 19.9 8 26 10.7l10.9 4.9-16.4.6c-10 .3-17.9 1-20 1.8-4.1 1.6-7.7 4.7-8.6 7.3-.3 1-.9 1.8-1.2 1.8-.4 0-2.5-3.5-4.7-7.7z"/><path d="m308 475.3c0-2.8 2-4.3 14-10.2 17.3-8.6 31.7-19.4 44.2-33.2 7.1-7.7 13.2-11.9 17.5-11.9 1.6 0 2.2.8 2.7 3.4.4 1.9 1.8 5.1 3.2 7.1l2.5 3.8-3.8 3.9c-11.7 12.1-35.7 26.6-53.3 32.3-4.7 1.5-9.4 3.1-10.5 3.5-2 .9-5.7 1.6-12.7 2.7-3.3.4-3.8.2-3.8-1.4z"/><path d="m419.5 411.1c-1.6-.4-4-1.3-5.1-1.9-3.3-1.8-7.4-7.1-7.4-9.6 0-2.1-.3-2.2-5.5-1.8-8.4.7-8.7.3-5.9-6.5 1.3-3.2 2.4-6.7 2.4-7.8 0-1.4.7-2.1 2.3-2.2 1.2-.1 3.2-.5 4.3-.7 1.8-.5 2.3 0 2.8 2.4.6 3 3.5 6.5 7.1 8.6 1.8 1 1.8 1.1-.3 4.1-2 2.9-2.1 3.1-.4 4.6 3.1 2.8 10.8 5.7 18.6 6.9 7.6 1.2 9.9 3 5.4 4.2-3 .8-14.5.6-18.3-.3z"/><path d="m458.8 395.8c2.1-2.1 1.4-7.4-1.4-10.7l-2.5-3 9.5-9.3c6.8-6.8 10.2-10.9 12.3-15.3 3-6.4 7.7-10.5 12-10.5 1.3 0 2.6-.7 2.9-1.5 1.1-2.6 2.4-1.6 2.4 1.8 0 4.5-4 16-8.6 24.9-2.6 5-6.5 10-12.4 16.1-7.5 7.6-9 8.7-12 8.7-2.6 0-3.1-.3-2.2-1.2z"/><path d="m438 393.4c0-.3 2-2.5 4.5-4.9 4.4-4.4 6.8-4.9 8.7-2.1 1.4 2.1.8 3.4-2.6 5.5-3 1.9-10.6 3-10.6 1.5z"/><path d="m397 307.2c-.8-.1-2.6-2.7-3.8-5.7-4.7-10.6-16.8-20.6-29.9-24.5-3.6-1.1-4.3-1.7-4.3-3.9 0-1.4.9-3.7 1.9-5l1.8-2.4 5.9 2.1c3.2 1.1 7.6 2.3 9.7 2.7 4.3.8 7.7 3.9 7.7 6.8 0 3.8 4.2 9.6 8.1 11.1 4 1.6 11.5.9 15.9-1.4 2.5-1.3 5-1.3 5 .1 0 1.8-5.2 14.3-7.1 17-1.8 2.6-6.7 4-10.9 3.1z"/></g><g fill="#4681a2"><path d="m390.5 916.3c-2.8-.7-3.5-2.1-3.5-6.9 0-2.9.5-4.4 1.6-4.8 2.7-1 12.6-.7 11.9.4-.3.6-.1 1 .4 1 .6 0 1.1-.4 1.1-1 0-.5.4-1 .9-1 1 0 .7 10.2-.3 11.9-.7 1.1-8.3 1.3-12.1.4z"/><path d="m99.8 911.3c-2.2-.5-2.4-3.3-.3-3.3 1.3 0 1.5-4.2 1.5-32.1 0-29.5-.1-32.3-1.7-33.5-3.1-2.2-.7-2.6 9.6-1.9 8.8.6 10.1 1 10.1 2.5 0 1-.6 1.8-1.2 1.7-.7 0-2.8.1-4.5.1l-3.3.2v32c0 27.8.2 32 1.5 32 .8 0 1.5.7 1.5 1.5 0 1.2-1.3 1.5-5.7 1.4-3.2-.1-6.6-.3-7.5-.6z"/><path d="m263 903.8c-1.4-.5-4.6-1.2-7.2-1.3-2.6-.2-5.7-.6-6.9-1-1.3-.5-1.9-.3-1.5.3s-.2.8-1.5.5c-2.9-.8-1.8-5 2.4-8.6 4.4-3.8 13-8.7 15.4-8.7 2.3 0 11.3 5.5 11.3 6.9 0 .9-2.7 5.4-6.5 10.9-1.8 2.5-2 2.5-5.5 1z"/><path d="m384.3 895.4c1-11.1 1.8-14.8 3.5-16.1 2.8-2.3 3.2-1.5 3.2 6.3 0 8.4 1.1 11.4 4.2 11.4 2 0 2-.4 1.5-5.9-.4-3.3-.9-7.8-1.3-10-.6-4-.6-4.1 2.4-4.1 1.7 0 3.4.4 3.7 1 1 1.7 3.5 18.8 2.9 20.4-.6 1.5-2.9 2-14.3 3.2l-6.3.6z"/><path d="m101 833.7c-5.4-2.7-6-3.3-6-6.2 0-1.8.7-3.8 1.5-4.5 2.2-1.8 12.6-8 13.5-8 .5 0 1-2.5 1.2-5.5.3-5.4.3-5.5-2.7-6.1-1.7-.3-4.1-1.3-5.4-2.3-2.3-1.7-2.3-1.9-.6-4.4.9-1.5 2.1-2.4 2.7-2.1.5.3 11.2.5 23.8.5 14.6-.1 23.1.2 23.5.9.3.6 0 .7-.9.4-2.9-1.1-1.7.4 2.1 2.6l3.7 2.2-6 2.4c-5.5 2.3-6.9 2.5-20.4 2.2l-14.5-.3-.3 5.6-.3 5.6 3.8.7c2.1.3 6.1.6 9 .6 2.8 0 5.5.5 5.8 1 .3.6 2.9 1 5.6 1 6.3 0 6.9 1.4 3.5 7.9l-2.5 5 2.9.6c1.7.4 3 1.3 3 2.1 0 1.2-3.2 1.4-20 1.3l-20.1-.1z"/><path d="m118.5 786.3c-1.6-.2-6.3-1.1-10.3-1.9-7.2-1.5-7.4-1.6-6.7-4.2 1-4.2 2.6-5.1 9.3-5.8l6.2-.7v3.6c0 2 .4 3.8.8 4.1.5.3 3.9.8 7.5 1.2l6.7.7v-4.1c0-2.7.5-4.2 1.6-4.6 2.8-1.1 24.4-.7 24.4.4 0 .6-.6 1.3-1.4 1.6-1 .4-1.3 1.5-.9 3.8.9 5.8-1.6 6.6-19.2 6.5-8.2-.1-16.3-.4-18-.6z"/><path d="m446.7 725.2c-2.1-.9-4.2-4.7-5.2-9.4-1-4.4-5.6-14.6-8.9-19.4-1.4-2.1-2.6-4.9-2.6-6.1 0-2.6-1.2-3.5-3.5-2.7-1.2.5-1.5 1.4-1 3.3.4 1.4.7 3 .8 3.6.1.5-1 .8-2.5.7-2.2-.3-3 .3-4.4 3-2.7 5.4-9.5 13.9-10.7 13.5-.6-.2-1.5-1.9-1.9-3.8-.9-4.2 1.1-10.8 5.3-17.4 3-4.7 3.1-4.7 7.5-4.2 4.3.4 4.4.4 4.4-2.5 0-2-.6-3.1-2.2-3.8-1.3-.5-1.8-.9-1.3-1 .6 0 .4-.4-.2-.8-.7-.4-1.5-2.2-1.9-3.8-.5-2.7 0-3.6 5.6-8.7 4.8-4.5 6.8-5.7 9.3-5.7 3 0 3.4.4 5.6 6.3 1.3 3.4 3.6 9 5.2 12.5l2.8 6.2h10.7c9.3 0 10.5.2 8.9 1.3-1.6 1.3-1.5 1.4 1.2 1 1.7-.3 3.4 0 3.7.6.5.7 1.3.7 2.7-.2 1.7-1 2.2-.9 3.5.7.8 1.1 1.4 3 1.4 4.3 0 2.9-1.9 3.7-13.7 5.9-11.1 2-12.7 3.3-11.9 9.4 1.7 11.5 1.8 15 .6 16.5-1.3 1.6-4.3 1.8-7.3.7z"/><path d="m449 676.2c-.7-1.5-2.8-6.7-4.6-11.7-2.9-7.8-3.2-9.1-1.9-10.1 2-1.5 12.7-2.5 17.6-1.8 4 .7 6.9 3.6 4.9 4.9-.5.3-1 1.5-1 2.6 0 1.6-.4 1.9-2.1 1.4-1.9-.6-2-.4-1.3 3.2.8 4.4 2.9 7.3 5.4 7.3 1 0 2.1-.8 2.5-1.7.6-1.6.8-1.5 2 .7.9 1.6 1 3 .4 4.2-1 1.8-3.5 2.4-14 3.2-6.4.5-6.7.4-7.9-2.2z"/><path d="m261.2 670.7c-1.2-1.3-2.2-3.1-2.2-3.9 0-.9-.7-2.3-1.5-3.2-1.4-1.3-1.4-3.4-.5-16.8 1.2-17.4 1.9-22.8 2.9-22.8.4 0 4.6-2.2 9.4-5 4.8-2.7 9.3-5 10.1-5s3.7 1.5 6.4 3.4c2.8 1.9 7.1 4.2 9.6 5.1l4.6 1.8v15.1c0 8.3-.3 18-.6 21.6-.6 6.5-.7 6.5-3.8 6.6-3.2.1-10.9 1.7-13.6 2.8-3.8 1.5-4.3-.6-4.3-18.1.1-17.7-.9-17.1-2.2 1.2-.7 10.6-2.2 17.5-3.4 15.6-.5-.7-1.2-.2-1.9 1.4-1.5 3.3-6 3.4-9 .2z"/><path d="m420.8 649.8c-3.1-5.7-2.9-6.4 2.9-9.2 2.1-1 4.6-2.2 5.5-2.7 1.4-.7 2.1 0 4 4.1 1.3 2.8 2.6 5 3 5 .5 0 .8.6.8 1.3 0 1-11.2 6.8-13 6.7-.3 0-1.7-2.3-3.2-5.2z"/><path d="m438 647.2c0-.9-.9-3.2-2-5-2.5-4-2.5-6.2-.2-6.2 1 0 2.3-.5 2.9-1.1.7-.7 2-.8 3.4-.3 1.3.4 2.9.8 3.4.9.6 0 1.1 1 1.3 2.3.2 1.2.8 2.2 1.3 2.2.6 0 .7.5.4 1-.3.6-.2 1 .2 1 .5 0 .9.9 1 2 .2 2.3-2 3.4-8 4.4-3.1.5-3.7.3-3.7-1.2z"/><path d="m111.8 644.2c-1-.2-1.9-1.7-2.3-4.3-.4-2.2-2.2-7.1-4.1-10.8l-3.4-6.8 4.1-9.4c5.6-12.8 6.8-13.9 14.1-13.9 3.8 0 6 .4 6.3 1.3.3.6.1 7.4-.3 15l-.8 13.7-3.6 3.8c-2 2-4.7 5.5-6 7.7-1.5 2.7-2.9 3.9-4 3.7z"/><path d="m130.7 616.3c-.4-6.6-.2-10.9.3-11.1.6-.2 1-1 1-1.8s.5-1.4 1-1.4c.6 0 1 4.8 1 12.5 0 9.8-.3 12.5-1.3 12.5-1.1 0-1.6-2.7-2-10.7z"/><path d="m259.4 612.8c.3-1.3.8-6.1 1.1-10.8s1.1-12 1.7-16.2c1-7.2 1.2-7.8 3.4-7.8 1.9 0 2.4.5 2.4 2.8 0 3.2.9 4.6 3.1 5.4 2.3.9 5.9-1.9 5.9-4.5 0-1.2.5-3.9 1.1-5.9 1.8-6.8 6-3.8 5.2 3.6-1 9.4-3.4 24.9-3.9 25.7-.3.5-1.2.9-2 .9-1.8 0-11.1 4.6-14.3 7.1-3.1 2.5-4.2 2.4-3.7-.3z"/><path d="m290.2 610.3-8.4-4.6.7-5.6c.9-7.8 4.3-24.6 6.2-30.6l1.5-5h8.4 8.3l-.4 3c-1 6.7-4.4 34.4-5.1 40.8-.4 4-1.1 6.7-1.8 6.6-.6 0-4.9-2.1-9.4-4.6z"/><path d="m107.2 586.5c-4.3-2-5.6-3.2-7.2-6.7-2-4.4-2.6-12.3-1.2-14.5.6-.9 3.3 0 10.3 3.5 5.1 2.6 11.4 5.6 13.9 6.5l4.4 1.7-3.2 2.9c-1.8 1.7-3.2 3.8-3.2 4.8 0 4.9-5.7 5.6-13.8 1.8z"/><path d="m118.1 565.9c-3.2-1.4-12.6-7.1-16-9.6-1.1-.8 2.2-8.3 5-11.1 6.1-6.2 12.6-3.2 11.7 5.5-.3 2.7-.7 5.5-.9 6.3s.2 1.5 1 1.5c.9 0 2.1-2.1 3-5.2 1.6-5.5 3.3-6.6 5.1-3.4 2.4 4.6.2 16-3.4 17.4-.7.3-3.2-.3-5.5-1.4z"/><path d="m338.5 552.4c-1.1-.8-2.5-1.2-3.2-1-1.8.7-1.6-1.1.8-9 3.3-10.9 13.2-26.4 16.8-26.4 1 0 8.9 3.6 9.9 4.5.2.2-1.2 2.8-3.1 5.8-4.6 7.2-8.5 15.8-9.9 21.7-1 4.2-1.5 4.9-4.1 5.4-4.1.8-4.9.7-7.2-1z"/><path d="m164.8 549.3c-.9-.2-2-1.7-2.3-3.3-.7-3.2-4.1-8-5.7-8-.5 0-4.7 1.8-9.2 4.1l-8.3 4.1-6.7-3.1c-7.3-3.3-8.2-5.4-2.5-5.9 5.3-.5 6-2.2.9-2.2-7.1 0-9-.8-8.9-3.9.1-5.8 4.6-25.2 6.1-26.8 1.6-1.5 2-1.4 6.9.6 4.5 2 5.7 2.1 9.5 1.2 2.3-.6 4.5-1.1 4.8-1.1 1.5 0 .3 6.7-3.2 17.3l-3.8 11.7h6.3c8.3 0 10.6 1.3 15.3 8.3 5.1 7.5 5.1 8.2.8 7z"/><path d="m408.5 518c-.4-1.6-1.1-3-1.7-3s.5-1.7 2.4-3.8c8.8-9.7 17.3-26.3 21-40.7 2.9-11.4 3.6-11.8 17.3-11.1 11.6.5 25.5 2.5 25.5 3.6 0 .7-6.3 1.8-20.4 3.5-3.3.5-5.7 1.5-7.4 3.2-1.9 1.9-2.3 2.1-1.8.6 1.2-3.1-1.8.6-4.2 5.2-2.5 4.8-7.9 19.8-8.6 23.8-.5 2.9-6 10.8-12.4 17.9-4.5 5-8.7 5.3-9.7.8z"/><path d="m240.3 512.7c-4.1-5.8-6.1-9.9-5.5-11.6.3-.8 0-1.1-.7-.7s-.9.1-.5-.8c.6-1.6-2.6-11.6-5.7-17.8-1-2-1.5-3.9-1-4.2s3.2.4 6 1.5c4.2 1.8 5.2 2.7 6.2 5.8 1.4 4.4 8.5 18.6 11 22.2l1.8 2.6-4.3 3.6-4.3 3.6z"/><path d="m147.1 486.4c-4.1-2.9-7.4-3-12.4-.4-4.2 2.3-4.2 2.6-2.3-7.4 1.9-9.8 2.9-11.6 6.6-11.6 2.8 0 3 .3 3 3.5 0 3.3.2 3.5 3.3 3.5 3.2 0 3.4-.2 5.3-6.2 1.7-5.5 2.3-6.3 4.7-6.6 4.2-.5 8.7 3.2 8.7 7.1-.1 2.7-.2 2.9-1.1 1.5-2.3-4.1-4.6-.8-6.4 9.2-.3 1.4-.9 2.6-1.5 2.8s-.8.8-.4 1.3c.3.5 0 .9-.6.9-.7 0-1 .6-.7 1.4.5 1.3-1 3.7-2.2 3.5-.4 0-2.1-1.2-4-2.5z"/><path d="m220.5 474.5c-1.1-.7-5.8-1.9-10.5-2.5s-9.6-1.3-10.8-1.6c-4-.9-.8-3.1 5.5-3.7 5.4-.6 5.9-.4 12 3.6 3.5 2.3 6.3 4.5 6.3 4.9 0 1-.1 1-2.5-.7z"/><path d="m174.8 396c-15.2-1.9-23.6-7-29.2-17.7-.9-1.8-1.5-3.6-1.4-4s-.6-3.3-1.5-6.3c-2.3-7.8-2.1-27.6.3-30 1.4-1.4 5.1-1.8 28.1-2.3 14.5-.4 34.7-.7 44.9-.7s27.8-.4 39-.9c11.3-.6 32.9-1.3 48-1.6 22.7-.5 27.2-.4 25.8.7-1.5 1.2-1.7 4.5-2 29.6-.3 30.6-.2 30-5.8 31.7l-2.5.7 2.3-2.4c2.8-3.1 2.1-3.8-3.9-3.8-6.9 0-8.8-1.2-14.4-9.3l-5.1-7.2h-19.4c-10.7 0-36.6.2-57.4.5l-37.9.5-2.4 6.5c-3.1 8.2-3.8 9-7.8 9s-6.7 2.6-3.9 3.7c1.1.5 12.4.8 25.2.8 18.3-.1 23.2.2 23.2 1.2 0 .9-1.6 1.3-5.2 1.3-2.9 0-10.9.2-17.8.4-6.9.3-15.5.1-19.2-.4zm106.5-28.5c3.8-.2 7.5-.9 8.3-1.6.8-.6 1.4-2.9 1.4-5 0-3.8-.1-3.9-3.7-4-11.3-.4-91.4.4-94.7 1-5.2.8-6.2 2.7-4.3 7.3l1.6 3.7 42.3-.5c23.3-.2 45.4-.6 49.1-.9zm-53.3-16.7c30-.2 55.3.1 56.3.6 1.3.6 1.7.5 1.5-.5-.2-1.1 1.9-1.5 10-1.7 8.2-.2 10.2-.6 10.2-1.7 0-1.8-8-1.9-71-.5-51.7 1.1-69 1.9-69 3 0 1 3.8 1.8 6 1.4.8-.1 26-.4 56-.6z"/><path d="m377.6 362.2c-.2-.4-.8-7.6-1.2-16.1-.6-12.9-.5-15.3.7-14.9 1 .3 1.6 3 2.1 8.9 1.3 17.7.8 25.9-1.6 22.1z"/><path d="m398.5 355.8c-1.3-4-2.5-17.2-2.5-27.3v-11.6l26 .3 26 .3 2.6 2.7c3.6 3.6 2.6 5.3-4.3 7.3-6.8 2-19.1 8.5-23.9 12.7-1.9 1.6-5.4 6.1-8 9.9l-4.6 6.9h-5.4c-3.5 0-5.6-.5-5.9-1.2z"/><path d="m360.3 254.3c-5-5-7.6-10.2-6-12.2 1.5-1.8 8.8-7.1 9.8-7.1.4 0 1 .9 1.4 2 .3 1.1 2.4 4.2 4.5 6.9l3.8 4.8-4.8 4.8-4.8 4.7z"/><path d="m406.8 246.7c1.5-2.4 6.3-11.8 10.7-21 8.6-18 11.1-20.7 10.3-11.3-.3 4.1-2.1 8.8-7.6 19.8-7.2 14.6-9.1 16.8-14.2 16.8-1.8 0-1.7-.3.8-4.3z"/><path d="m378 239.8c0-2-.4-2.6-1.4-2.2-1.8.7-4.3-3.9-5.1-9.2-.5-3.6-.1-4.6 5.4-12.2 3.4-4.6 7.5-11.5 9.3-15.2 1.8-3.8 3.5-6.9 3.8-6.9.3-.1 1.7 1.8 3.2 4.2 1.5 2.3 3.9 5.3 5.3 6.7 1.4 1.3 2.5 2.9 2.5 3.6 0 2-5.5 11.8-12.6 22.4-6.4 9.7-8.6 12.4-6.4 7.8.8-1.7.4-1.5-1.4.7l-2.6 3z"/><path d="m185.5 228.5c-1.4-2.5-3.6-6.4-4.9-8.7-2.8-5-4.2-10-5.4-18.6l-.9-6.2 5.1-2.5c2.7-1.4 5.5-2.5 6.2-2.5.6 0 1.7-.7 2.4-1.5s2.5-1.5 3.9-1.5c2.6 0 2.8.4 4.5 7.8 1 4.2 3.1 11.1 4.7 15.2s2.9 8 2.9 8.6c0 1-14.3 14.4-15.4 14.4-.3 0-1.7-2-3.1-4.5z"/><path d="m404.1 197.4c-1.9-2.4-2.9-6.4-1.7-6.4.3 0 1.9 1.5 3.7 3.3 2.9 2.9 3 3 1 .3-1.1-1.6-2.1-4-2.1-5.4s-1-4.6-2.2-7.1c-2.1-4.2-2.3-5.9-2.1-21.4 0-9.3.3-17 .5-17.2.2-.3 3.6-.7 7.4-1.1 6.7-.6 7.1-.5 8.6 1.8.9 1.4 2.7 5.8 3.9 9.9s2.6 7.6 3.1 7.7c.4.2.8 1.3.8 2.3 0 1.1-.4 1.8-.9 1.5-3.2-2-5.6 3.4-6.6 14.9-.4 4.6-1.2 7.9-2.5 9.7-1.1 1.5-2 3.4-2 4.3 0 .8-.7 1.5-1.5 1.5-2 0-1.9 1.7.3 2.9 1.4.8 1 1-2 1.1-2.8 0-4.1-.6-5.7-2.6zm5.6-26.1c-.3-1-.5-.2-.5 1.7s.2 2.7.5 1.8c.2-1 .2-2.6 0-3.5z"/><path d="m167.3 188.6c.3-.8.2-1.6-.2-1.8s-.5-3.3-.1-7c.6-5.5 2-9.3 8.3-22 4.2-8.4 9.4-18.1 11.7-21.6 3.4-5.2 4.5-6.2 6.9-6.2 2.8 0 2.9.1 2 3.8-.5 2-1 11.3-1.2 20.5-.2 15.1 0 17 1.6 18.1 3 2.3 1.8 3.5-4.3 4.2-3.3.4-6 1-6 1.4 0 .5-1.9 1.9-4.2 3.3-2.4 1.4-5.6 3.9-7.2 5.6-3.1 3.2-8.3 4.4-7.3 1.7z"/></g><g fill="#a68379"><path d="m151 922.4c0-1.2.7-2.7 1.5-3.4s1.5-2.7 1.5-4.5c0-3.2.1-3.3 6.3-4.5 15.8-3.2 29.4-6.3 31-7.2 1.6-.8 1.8-.6 1.5 1.4s-1.5 2.6-10.8 4.9l-10.5 2.6-.3 4.9c-.2 2.7-.7 5.3-1.1 5.7s-4.9 1.1-10 1.5c-8.9.7-9.1.7-9.1-1.4z"/><path d="m246.7 673.3c-.8-4-2.7-4.4-2.7-.6 0 1.4-.2 2.4-.5 2.1-.6-.6 2.1-32 3.1-37 .3-1.6 1.2-2.8 2.1-2.8 1.3 0 1.4 1.8.8 13.8-.4 7.5-1 16.9-1.4 20.7-.6 5.9-.8 6.5-1.4 3.8z"/><path d="m312.3 650.5c-.7-.8-1.3-4-1.4-7.2l-.1-5.8-1.3 3.5-1.3 3.5-.1-4c-.1-2.2.2-7.7.6-12.2l.6-8.3h3.3 3.4v5.3c0 9-1.3 26.7-1.9 26.7-.3-.1-1.2-.7-1.8-1.5z"/><path d="m408.4 643c1.9-3.6 8-10 9.7-10 2.1 0 .8 4.6-1.9 6.2-1.5.9-4.2 3-6.1 4.5l-3.4 2.8z"/><path d="m425.8 606.2c-5.8-6.2-14.8-18.3-14.8-20 0-.8.9-.8 2.8-.1 1.7.6 5.3 4.4 9.5 9.9 3.8 5 7.1 9 7.4 9s-.7-1.6-2.2-3.6c-5.8-7.5-12.5-17.8-12-18.3.3-.2.9 0 1.5.5 1.4 1.5 20 26.8 19.7 26.9-.1.1-1.6.5-3.3.8-2.9.5-3.7.1-8.6-5.1z"/><path d="m206.8 583.5c-1.6-1.3-2.8-3.3-2.8-4.5 0-1.6.6-2 3.5-2 3.1 0 3.8.5 4.9 3.2 1.2 2.8 1.2 3.4-.3 4.5-2.1 1.6-2.2 1.6-5.3-1.2z"/><path d="m185.2 572.3c-.2-4-.3-4.1-3.1-3.7-2.4.4-2.9.1-3.4-2.2-.7-4.1.3-6.4 2.8-6.4 1.8 0 2.5.9 3.4 4.3.7 2.4 1.1 6.1.8 8.2l-.4 4z"/><path d="m363.1 566.9c-1.7-2.9-3-7-4.1-13.7-1.5-8.8 1-12 7.2-9.1 1.6.7 2.9 3 4.4 7.7l2.2 6.7-3.2 3.6c-1.7 1.9-3.5 4.3-4.1 5.3-.9 1.5-1.1 1.5-2.4-.5z"/><path d="m377 543.8c0-6.8-.3-14.7-.6-17.5l-.7-5.3h5.5c4.4 0 5.9.4 7.6 2.3 3.2 3.4 6.3 11.5 6.9 18.4.5 5.4.3 6.3-1 6.3-1.5 0-3.6-5.1-3.7-9-.1-2.4-5.4-12.3-6.8-12.8-1.1-.3-1.2 0-.3 1.6 1.2 2.3 3.9 20.3 3.3 22.1-.2.6-2.6 2.3-5.3 3.6l-4.9 2.5z"/><path d="m155.1 406.4c-6.7-1.8-10.9-4.3-15.3-9.3-4.1-4.4-9.3-14.5-8.3-16 1.6-2.6 4.6-.8 9.2 5.6 7.8 10.8 12.1 15.1 18.6 18.3 6.7 3.3 5 3.9-4.2 1.4z"/><path d="m348.5 385.7c-.6-.7-.9-8.1-.7-18.8l.3-17.7 3.1-.6c1.7-.3 3.4-.6 3.9-.6 1.1 0 1.1 18.8 0 29.4-.8 7.4-1.9 9.6-4.6 9.5-.5 0-1.4-.5-2-1.2z"/><path d="m383 304.9c0-2.2-5.3-5.7-9.6-6.4-4.4-.6-5.1-1.6-3.8-4.9.4-1 1.8-1.6 3.9-1.6 2.6 0 4 .8 6.3 3.5 3 3.7 5.7 10.5 4.1 10.5-.5 0-.9-.5-.9-1.1zm-6.3-10.6c-1.7-1.8-3.9-.9-3.1 1.2.7 1.6 3.7 2.5 4.3 1.2.2-.5-.4-1.6-1.2-2.4z"/></g><g fill="#eea47b"><path d="m87.3 840.3c-2-.4-2.3-1.1-2.3-4.7 0-5.4 1.3-6.6 7.2-6.6h4.8v5.4c0 6.6-1.5 7.5-9.7 5.9z"/><path d="m266 479c-14.7-2-31.8-8.3-43.5-16.2-7.7-5.1-18.1-15.4-23.5-23.4-2.8-4-9-15.6-9-16.8 0-.2 4.2-.6 9.4-1 11.7-.8 22.6-3.6 27-6.9 1.8-1.4 4.3-4.8 5.5-7.4 3.4-7.5 3.6-7.8 7.1-8.1 5.8-.6 9.3.6 21.1 7.4 13.5 7.8 17.5 9.4 24 9.4 2.7 0 4.9.4 4.9.9 0 1.4-6.7 6.9-11.3 9.2-4.5 2.4-15.1 3.6-20.9 2.5-1.9-.3-6.1-2.2-9.3-4.2-6.2-3.7-9.8-4.1-10.3-1.1-.5 2.7 3.2 6.1 10.1 9.3 5.5 2.5 7.3 2.9 16.2 2.8 12 0 18.7-2.2 26-8.6 2.5-2.2 6.1-4.4 7.8-4.7 2.7-.6 3.2-1.1 3.2-3.6 0-2.9.2-3 4.3-2.9 2.4 0 4.7.6 5 1.1 1.6 2.4 12.1 7.6 20.4 10 11.6 3.3 23.8 2.9 37.3-1.2 5-1.5 9.9-3 11-3.3 2.6-.7-8.2 12.4-16.7 20.3-12.2 11.4-28.4 22.3-42.3 28.4-2.7 1.2-5.9 3-7 4s-3.6 2.1-5.5 2.5c-13.7 2.5-29.9 3.1-41 1.6z"/><path d="m425.4 409.5c-7.6-1.6-13.9-4.8-16-8-1.4-2.2-1.4-2.7.2-6 2.1-4.6 3.1-4.9 7.7-3 2 .8 5 1.5 6.7 1.5 5.8 0 18.4-3.2 22.7-5.7l4.3-2.5 1 2.7c.5 1.4 1 4.4 1 6.6 0 2.1.4 3.9 1 3.9 1.4 0 13.7-10.8 19.6-17.2 6-6.6 11.5-16.7 15.5-28.5 1.6-4.7 3.4-9.2 4-9.9 2-2.4-3.2-1.7-11.1 1.6-4.3 1.8-9.1 3-11.7 3-5.4 0-17.1 4-23.4 8-4.6 3-10.4 8.9-14.2 14.4-1 1.4-2.4 2.6-3.2 2.6s-3.6 1.6-6.1 3.6c-5.9 4.4-6.9 3.6-6.9-5.4 0-15.4 12.6-28.8 31.3-33.2 2.9-.7 7-2.1 9.2-3.1 2.2-1.1 6.8-2.6 10.2-3.3 14.5-3.3 42.8-4.9 42.8-2.3 0 2.4-6.2 19.4-10 27.2-6.1 12.7-13.6 23.3-22.9 32.6-9.2 9.1-15.9 13.5-28.3 18.7-8.6 3.5-13.4 3.9-23.4 1.7z"/><path d="m186 275.2c0-2.4 6.8-16.1 11.5-23.3 7.3-10.8 14.2-17.9 17.5-17.9 2.8 0 2.8.1 1.8 3.7-2.3 8.3 1.9 18.9 10.9 27.4 5.5 5.2 6.4 6.9 3.8 6.9-.9 0-10 .9-20.3 2-26.6 2.9-25.2 2.8-25.2 1.2z"/><path d="m350 273.2c-8.9-2.3-11.4-2.5-41.8-3.1l-32.3-.6 8.5-7.7c4.6-4.3 8.8-7.8 9.3-7.8s2.7-1.9 4.8-4.1c6.3-6.5 22.4-17.2 29.5-19.4 2.5-.8 6.3-2.1 8.5-2.9 4.4-1.6 13.5-2.1 13.5-.7 0 .5-.7 1.4-1.6 2.2-2.8 2.3-4.6 6.9-3.9 10.2 2 9.4 10.4 20.9 19.4 26.8l2.5 1.6-2.2 3c-1.2 1.7-2.2 3.6-2.2 4.2 0 1.4-.8 1.3-12-1.7z"/><path d="m414.5 270c-1.7-3.9-1.7-4.1 0-6 3.3-3.7 4.6-2.6 3.9 3.3-.9 7-1.7 7.6-3.9 2.7z"/></g><g fill="#d2ad98"><path d="m110.7 924c-8.8-.7-9.7-1.3-9.7-7.7 0-3.2-.4-4.3-1.5-4.3-.8 0-1.5-.3-1.5-.8 0-.4 14.4-.7 31.9-.7 24.3 0 32.3-.3 33.2-1.2 1.5-1.5 10.9-1.8 10.9-.3 0 1.3-2.8 2.7-6.5 3.3-9.9 1.6-10 1.7-10.1 5-.1 2-1.1 3.9-2.8 5.4-2.6 2.2-3.3 2.3-19.4 2.1-9.2 0-20.2-.4-24.5-.8z"/><path d="m189.3 905.4c0-.9 1.2-2 2.6-2.6s3.3-1.4 4.3-1.9c1.1-.5 1.8-.3 2.2.7 1 2.7.7 3.1-3.8 4.3-5.6 1.4-5.3 1.4-5.3-.5z"/><path d="m379.2 785.8c-6.5-14.2-8.7-22.8-5.9-22.8 1.1 0 2 1.5 2.7 4.3 2.4 9.3 5.2 18.5 7.6 24.6 4.3 11 1.9 7.7-4.4-6.1z"/><path d="m246.3 638.3c.3-1 .9-5.1 1.2-9 .5-5.3 1.1-7.3 2.1-7.3 2.8 0 1.2 15-1.8 16.9-1.7 1.1-1.9 1-1.5-.6z"/><path d="m415.7 637.1c-.2-1 0-2.6.5-3.5.7-1.2.5-1.6-1.2-1.6-2.3 0-2.6-1-.8-2.8 1.7-1.7 8.3-1.5 9.8.3 1.9 2.3.8 4.4-3.6 7-3.9 2.3-4.2 2.4-4.7.6z"/><path d="m427.2 630.8c-1.6-1.6-1.6-8 0-9.6.7-.7 3.3-1.2 6-1.2 3.8 0 4.6.3 4.2 1.5-.4.8.1 2.7 1.1 4.1 2 3.1 1.4 3.8-4.7 5.3-5.7 1.3-5.1 1.4-6.6-.1z"/><path d="m309.1 621.5c-.1-8.3 3.5-42.8 5.5-53.6l1.6-8.9h3.4c2 0 3.7.6 4 1.4.3.7-.1 4.9-.9 9.2-.9 4.4-2.5 16.2-3.6 26.4-3.1 27-3.2 27.5-5.6 27.5-1.1-.1-2.5.8-3.2 2-1.1 1.7-1.2 1.2-1.2-4z"/><path d="m383.6 610.8c-.8-1.3-2-3.6-2.7-5.2-1.3-2.7-1.2-3 3.1-6.7 2.5-2.1 5-3.9 5.7-3.9 1.6 0 7.3 7.1 7.3 9.2 0 1-.7 1.8-1.5 1.8s-1.5.6-1.5 1.4c0 1.5-5.8 5.6-7.8 5.6-.7 0-1.8-1-2.6-2.2zm9.4-5.3c1-1.3 1-1.9-.5-3.5-2.1-2.3-3.8-2.5-5.3-.7-.9 1-.7 1.9.4 3.5 1.8 2.6 3.7 2.8 5.4.7z"/><path d="m429.5 602.7c-3.2-4.5-9.9-13.9-14.8-20.9-4.9-7.1-9.4-12.8-10.1-12.8s-1.2 1.1-1.1 2.8c.2 1.5 0 1.8-.2.7-.3-1.1-1.1-2.3-1.8-2.7-1.9-1.1-2.8-5.8-1.4-7.4 2.6-3.2 5.3-1.6 8.9 5.4 3.8 7.4 13.2 21.7 22 33.2 7.1 9.4 7.4 10 5.8 10-.7 0-4-3.8-7.3-8.3z"/><path d="m368.5 557.7c-.7-1.8-1.7-4.6-2.1-6.3-.4-1.6-1.4-3.4-2.3-4.1-1.3-1-1-1.2 2.1-1.3 2 0 3.9-.4 4.2-.8.8-1.4 4.6-19.4 4.6-22 0-2.1.4-2.3 3.7-2 3.7.3 6 2.8 2.6 2.8-1.7 0-1.8 1-1.5 15.2l.2 15.3-5.1 3.2-5 3.2z"/><path d="m130.5 380.8c-2.3-5.6-2.3-8.3 0-8.6 1.5-.2 2.6 1 4.5 5.2 2.5 5.4 2.5 5.5.5 6-3.3.9-3.5.8-5-2.6z"/><path d="m348 340.6v-12.6h2.8c5.7 0 6.5 1.6 6 12.3-.2 5.3-.8 10.1-1.3 10.6-.6.5-2.5 1.2-4.2 1.6l-3.3.7z"/><path d="m229.7 270.2c.3-1.3-.9-2.9-3.7-5.3-10.8-9-13.1-11.9-9.2-11.9 1 0 2.6 1.6 3.7 3.6s4.8 6.3 8.4 9.5c6.3 5.8 6.4 5.9 3.3 5.9-2.4 0-2.9-.4-2.5-1.8z"/></g><g fill="#b0e3e6"><path d="m396.7 913.3c-.4-.3-.7-1.7-.7-3 0-1.4-.5-3.3-1-4.4-1-1.7-.7-1.9 2.5-1.9 3.3 0 3.5.2 2.5 2.1-.6 1.1-.8 3.3-.5 5 .5 2.1.3 2.9-.8 2.9-.7 0-1.7-.3-2-.7z"/><path d="m389 898.1c-1.4-2.7-1.3-7.1.3-7.1.6 0 3.5.6 6.2 1.3 4.6 1.2 5 1.6 5.3 4.5l.3 3.2h-5.5c-4.4 0-5.7-.4-6.6-1.9z"/><path d="m415.2 892.5c-1.5-5.6-1.5-7.5-.1-7.5 1 0 3.2 4.5 4.3 9.3.5 2.2.3 2.7-1.2 2.7-1.3 0-2.1-1.3-3-4.5z"/><path d="m118 785.1c-3.2-.5-3.5-.9-3.8-4.4-.2-2.9-.7-3.7-1.8-3.3-.9.4-1.4-.1-1.4-1.4 0-1.9.7-2 12.9-2 9.9 0 13.1.3 14 1.4 1 1.1.8 1.6-.7 2-1.5.5-1.8 1.4-1.5 4.6l.3 4-7.3-.1c-3.9-.1-8.8-.4-10.7-.8z"/><path d="m430.1 644.8-2.4-5.2 2.3-1.8c3.6-2.9 6.7-2.3 9.3 2 4.1 6.4 4.1 7.1.2 8.8-5.7 2.3-6.8 1.9-9.4-3.8z"/><path d="m263.7 570.8c1.4-14.8 2.8-24.7 4.5-32.5.9-4.1 1.6-5.3 3-5.3 1 0 1.8.1 1.8.3 0 .1-.9 7-1.9 15.2-1.1 8.3-2.3 19.1-2.6 24-.8 11.5-1.2 12.6-3.1 10.1-1.2-1.7-1.4-1.8-1.4-.3 0 .9-.4 1.7-.8 1.7-.5 0-.2-6 .5-13.2z"/><path d="m282.1 579.7c0-1-.5-1.6-1-1.3-1.2.8-2.3-3.1-2.1-7.4.3-5.5 4.7-31 6.5-36.6 1.4-4.8 1.8-5.2 5.2-5.8 2.1-.3 5.3-.9 7.1-1.2l3.3-.6-3.7 7.8c-4.3 9.2-11.8 31.1-13.8 40.4-.7 3.6-1.4 5.7-1.5 4.7z"/><path d="m292.1 568.3c-2.1-.4-2.3-.8-1.7-4.4 1-6 6.4-22.3 10.1-30.5 3.3-7.3 3.4-7.3 8.9-8.9 3.1-.9 6.9-1.5 8.6-1.3l3.1.3-4 8.3c-4.4 9-8.7 22-9.7 29.3-.4 2.6-.9 5.1-1.3 5.7-.7 1.1-10.5 2.2-14 1.5z"/><path d="m117.8 562.9c-4.2-2.1-4.8-4.7-2.7-10.8.8-2.4.8-3.5-.1-4.6-1.1-1.3-.7-1.5 2.4-1.5s9.6 2.3 9.6 3.4c0 .2-.9 3.2-2 6.6s-2 6.9-2 7.6c0 1.8-.7 1.7-5.2-.7z"/><path d="m138.5 475.1c-.3-1-.3-2.6.1-3.5s.1-1.6-.6-1.6c-.6 0-1.4.9-1.7 2-.6 2.1-2.3 1.8-2.3-.5 0-2 5.7-8.3 9.1-10.1 3.2-1.6 10.6-1.9 14.3-.4 3.2 1.2 3.5 4.1.4 3.7-1.8-.2-2.4.7-4.2 6.1l-2 6.2h-6.2c-5.2 0-6.4-.3-6.9-1.9z"/><path d="m189.2 355.8c.6-1.8 5.8-3.2 7-2 1.7 1.7-.1 3.2-3.8 3.2-2.3 0-3.4-.4-3.2-1.2z"/><path d="m141 342.8c0-4.9 2.5-13.3 5.3-18.1 5.1-8.6 15.8-16.4 24.5-18.1 5.4-1 86.8-4.6 110.4-4.8 12-.2 21.8-.6 21.8-1 0-2.4 16.5.6 21.8 3.9 7.4 4.6 12 12 12.9 20.8l.5 5.2-4.8 1.3c-2.7.7-5.4 1.7-6 2.2-1.5 1.1-120.2 4.5-168.6 4.7-9.6.1-11 .3-12.9 2.2-1.1 1.1-1.8 2.7-1.5 3.5.3.9-.1 1.4-1.4 1.4-1.6 0-2-.7-2-3.2z"/><path d="m376.6 239.8c-2.3-3.3-2.1-4 3.4-11.2 2.7-3.6 7.1-10.2 9.7-14.6 5-8.3 8-10.3 8.1-5.2 0 4.2-2.7 9-16.2 28.7-1.5 2.2-2.9 4.1-3.1 4.3-.1.2-1-.7-1.9-2z"/><path d="m420.5 226.8c.4-1.2 1.6-4 2.6-6 1.1-2.1 1.9-5.4 1.9-7.6 0-4.3 1.4-6.2 4.7-6.2 2.1 0 2.2.1.9 3.8-3.6 9.9-7.6 17.7-9.1 18-1.4.3-1.5-.1-1-2z"/><path d="m184.5 199.5c-.9-4-1.4-7.9-1-8.5 1.4-2.3 3.2-.7 4.3 4.1 1.7 7 1.6 11.9-.2 11.9-1 0-2-2.4-3.1-7.5z"/><path d="m406.6 187.8c-.3-.7-.7-7.8-1.1-15.8-.8-17.4-1.8-25.3-3.3-25.8-.8-.2-1.2-3.3-1.2-8.6 0-7.5.2-8.5 2.5-10.6 2.4-2.2 2.6-2.3 4.4-.6 3.4 3.1 10.1 17.1 10.1 21 0 4.4-1 4.6-3.3.6-1.7-2.9-4-3.9-5.1-2.2-.9 1.4 1.4 9.5 3.1 10.7 1.2.9 1.3 1.4.4 1.9-.9.6-1 3.3-.5 10.2.4 6 .3 9.8-.4 10.6-.5.7-1.5 3.2-2.1 5.6-1.1 4.1-2.8 5.5-3.5 3z"/><path d="m180 178.1c0-.5.6-1.1 1.4-1.4.9-.4 1.5-3 1.9-7.9.5-6.3.3-7.5-1.4-8.8-1.8-1.4-1.6-2.1 5.1-15.7 7.6-15.7 10.4-18.5 8.7-8.5-.5 3.1-1.4 6-1.9 6.3-1.4.9-4.8 18.8-4.8 25.6 0 5.1.3 6.1 1.5 5.7 2.1-.9 1.9 2.5-.2 4.2-2 1.5-10.3 1.9-10.3.5z"/></g><g fill="#eee0cb"><path d="m84.5 919.8c-4.4-1.1-8.6-2.5-9.3-3.1-2-1.6-.4-12.6 2.2-15.4l2-2.1 2.9 2.4c3.1 2.6 9.5 4.8 19.7 6.6 7.5 1.4 59 1.7 63.3.4 2.1-.7 2.7-.5 2.7.7 0 3.3-4.1 4-28 4.5-26.6.5-38.9-.5-50.7-4.3-10.1-3.2-10.3-3.2-10.3 1 0 4 1.8 5.2 11.8 8 12.7 3.6 7.2 4.7-6.3 1.3z"/><path d="m419 914.3c0-1.4-.7-6.4-1.6-11.1-1.6-8.6-1.5-9.8.9-8.9 1.6.6 4.4 18.5 3.4 21.2-1 2.4-2.7 1.7-2.7-1.2z"/><path d="m200 907c0-1.5-.7-2-2.5-2-1.4 0-2.5-.6-2.5-1.3 0-.8 1.1-2.4 2.5-3.7s2.5-2.9 2.5-3.7c0-.7.6-1.3 1.4-1.3s1.6 1.7 2 4.6c1 7.9.8 9.4-1.4 9.4-1.3 0-2-.7-2-2z"/><path d="m414.5 889.7c-.8-4.1-.1-5.7 1.7-3.9.8.8.8 2.1.1 4.4l-1 3.3z"/><path d="m110 843.9c-17.3-1.7-26.6-4.7-19-6.2 1.6-.4 3-1.2 3-2 0-1.2 1-1.3 22-2 13.5-.4 44 .5 43.5 1.3-.3.6-.2 1 .3 1 2.4 0 2 3.3-.7 6.1l-2.9 2.9-18.9-.1c-10.3-.1-22.6-.5-27.3-1z"/><path d="m310 820.8c0-3.6-1.3-4.2-5.2-2.2l-3.3 1.7 3.8-4.2c2-2.2 3.7-4.8 3.7-5.6s.4-1.5.9-1.5c1.5 0 2.5 10.5 1.2 12.7-.9 1.6-1 1.5-1.1-.9z"/><path d="m166.2 818.2c-2.8-2.4-3.2-3.3-3.2-7.4s.3-4.8 2-4.8c1.6 0 2 .7 2 3.3 0 4.2 1.5 5.7 5.7 5.7 2.5 0 3.3.4 3.3 1.8 0 1.6-3.7 4.3-5.8 4.2-.4 0-2.2-1.3-4-2.8z"/><path d="m370.2 756.2c-1.2-6.4-3.1-15.4-4.1-19.9-1.3-5.8-1.5-8.3-.7-8.3.6 0 3 8.1 5.6 18.8 3.7 15 4.3 19.1 3.3 20-.7.7-1.3 1.2-1.5 1.2s-1.3-5.3-2.6-11.8z"/><path d="m472.6 673.1c-1.1-2.3-2.1-3.9-2.3-3.7-.3.2 0 1.3.5 2.3s.7 2.4.5 3.1c-.6 1.6-3 1.5-3.6-.2-.6-1.5 1.3-5.8 2.8-6.3 1.3-.4 4.9 6.1 4.3 7.7-.2.7-1.2-.6-2.2-2.9z"/><path d="m249.3 625.2c-.9-.6-.7-6.1.9-23.2 1.9-20.9 2.8-25.4 4.4-23.7.4.3-.1 9.1-1 19.4-2.3 25.2-2.8 28.4-4.3 27.5z"/><path d="m389 609.9c0-.6 1.1-2 2.5-3.1 2.8-2.2 3.2-4 1-5.8-1.5-1.2-1.2-3 .5-3 .8 0 5 6.1 5 7.3 0 .8-7.2 5.7-8.2 5.7-.5 0-.8-.5-.8-1.1z"/><path d="m203.7 577.5c-.3-1.6-.8-3.8-1.2-4.7-.6-1.5-.1-1.8 2.9-1.8 3.7 0 4.7 1.1 6 6.1.5 2.5.3 2.7-3.3 3.1-3.7.3-3.9.2-4.4-2.7z"/><path d="m320.5 574.5c.4-2.8.2-6.2-.4-7.7-.7-1.9-.7-2.8.2-3.1.8-.2.8-.5-.1-1.1-.8-.5-1.6.3-2.4 2.4-.8 2.3-1.3 2.8-1.9 1.8-.9-1.3-.5-5.3 1.2-12 .9-3.6 1.2-3.8 5.1-3.8 4 0 4 0 3.4 3.3-.4 1.7-1.6 7.9-2.6 13.6-2.1 11-3.6 15-2.5 6.6z"/><path d="m128.6 374.8c-.9-4.6-.8-4.8 1.9-4.8 1.5 0 2.5.6 2.5 1.4s.3 2.2.7 3.2c.4 1.1.3 1.5-.4 1.1-.6-.4-1.8-.1-2.6.7-1.3 1.3-1.5 1.1-2.1-1.6z"/><path d="m353 332.8c-2.2-1.8-2.5-1.8-3.6-.4-.9 1.3-1.2.2-1.3-5.4-.2-7.6-2.9-17.8-6-22.4-2-3-1.4-6.6 1-6.6 1.6 0 4.8-4.2 4.9-6.2 0-1.5 1-1.8 6.5-1.8 7.3 0 8.3 1.2 3 3.7-4 1.9-4 2.1-2 10 1.6 6 2.1 29.8.7 30.6-.4.3-1.8-.4-3.2-1.5z"/><path d="m287.5 259.1c3.7-3.9 5.6-5.1 7.9-5.1 2.8 0 2.8.1 1.2 1.9-.9 1-4.5 3.3-7.9 5.1l-6.2 3.3z"/><path d="m169.5 186.1c3.1-3.2 7.7-6.9 10.3-8.1 2.6-1.3 5.5-2.7 6.4-3.1 2.3-1.2 4.8-.1 4.8 2 0 1-1.6 2.4-4.1 3.5-2.2 1-6.9 4-10.4 6.7-4.4 3.4-7.4 4.9-9.4 4.9h-3.1z"/></g><g fill="#fff8e6"><path d="m199.5 914.3c.3-1.5.6-17.8.6-36.2-.1-31-.3-33.8-2-36.1-1-1.4-2.8-2.6-4-2.8-1.6-.3-2.1-1-1.9-3 .4-6.7-2.2-8.9-13.4-11.7-3.6-.9-7.7-2.7-9.2-3.9l-2.8-2.2 4.1-1.8 4.1-1.9 9.7 4.4c6.6 3 11.3 5.9 14.4 8.9 6.8 6.5 7.1 8.8 6.7 51-.3 33.5-.4 35.2-2.2 36.6-3.2 2.3-4.9 1.8-4.1-1.3z"/><path d="m74 877.3c0-38.5 0-38.8 2.4-43.8 2.6-5.7 6.3-8.8 16.8-14.4 6-3.2 8.7-4 15.1-4.5 9.8-.7 10.1.6 1 5.4-3.6 1.9-7.7 4.4-9 5.4l-2.5 1.9 5.2 3c4.2 2.4 6.3 3 10.4 2.8 4.5-.1 5.2.1 5.3 1.9.2 1.8-.4 2-5.5 2-3.1 0-8.7.3-12.4.7l-6.8.6v-3.2c0-2.3-.4-3.1-1.8-3.1-4.1 0-5.8 5.3-2 6.3 3.6 1 1.1 2.2-4.5 2.2h-5.2l-.3 29.4c-.1 19.1.1 29.8.8 30.6 1.3 1.5.4 4.1-1.7 4.9-1.2.5-1.4 1.5-.9 4.6.4 2.6.2 4-.4 4s-.8.5-.5 1c.3.6-.3 1-1.4 1-2.1 0-2.1-.3-2.1-38.7z"/><path d="m375.5 701.8c.2-2 .8-4.5 1.4-5.6 1.9-3.6 1.4-6.2-1.3-6.2-1.9 0-2.4-.6-3-3.7-.3-2.1-1.9-7.3-3.6-11.6-5.3-13.8-3.9-14.2 4.8-1.4 7.8 11.4 9 15.7 6.8 22.4-.9 2.6-2.5 5.9-3.5 7.3l-1.9 2.4z"/><path d="m252.3 579.4c.3-2.1.9-7 1.2-10.9 1.1-13.6 1.6-16.5 3.1-16.5.8 0 1.4.3 1.4.8 0 .4-.7 6.7-1.5 14-1 9.6-1.8 13.7-3.1 14.9-1.5 1.6-1.6 1.4-1.1-2.3z"/><path d="m366.5 548.4c-2.2-.8-4.8-1.8-5.7-2.1-2.3-.7-1.7-3.5 3.3-13.9 6.3-13.4 12.5-17 20.9-12.3 6 3.4 9.1 9.4 13.7 26.2.3 1.3-.2 1.7-2.5 1.7-2.8 0-3-.3-3.6-5-.8-6-3.9-13.6-6.8-16.7-1.3-1.4-3.3-2.3-5-2.3-2.3 0-2.8.4-2.8 2.3 0 2.4-3.5 19.2-4.6 22.1-.7 2-1.7 2-6.9 0z"/><path d="m384.1 308.6c-1.4-5.8-3.6-10.3-6.4-13.3-2.6-2.9-3.5-2.9-4.7.2-1.4 3.6-6 3.4-9.2-.3-2.1-2.5-2.8-2.7-7.5-2.4-4.1.3-5.3.8-5.3 2-.1 2-3.4 6.2-4.8 6.2-.5 0-1.6 1-2.4 2.1-1.4 2.1-1.4 2.1-3.8-1.5-7-10.2-20.3-14.8-46.5-16.2-11.3-.6-12.5-.9-12.5-2.6 0-1.1.7-1.8 1.9-1.8 1.1 0 2.1-.6 2.3-1.2.4-1 6.1-1.4 23-1.6 20.7-.3 23.2-.2 30.7 1.8 4.4 1.2 7.9 2.6 7.6 3-.3.5 3.4 1.1 8.2 1.5 12.1 1 18.2 3.5 23.6 9.5 4.3 4.7 8.5 15 7.5 18.1-.2.7-1-.8-1.7-3.5z"/><path d="m304 252.5c-1.5-1.8-.5-3.4 3.4-5 5.3-2.3 8.8 1.2 4.8 4.8-2.3 2.1-6.5 2.2-8.2.2z"/><path d="m336.3 239.5c-1.9-1.3-2.1-1.9-1.1-4 .8-1.7 1.9-2.5 3.7-2.5 2.5 0 2.6.3 2.3 4-.4 4.3-1.5 4.9-4.9 2.5z"/><path d="m163.2 199.5c-1.9-4.1-1.2-10.2 1-8.9.5.3 2.2-.6 3.7-2 2.9-2.8 9.8-4.6 8.4-2.2-.5.8-2.3 2.6-4.1 4.1s-4.3 4.8-5.6 7.2l-2.2 4.4z"/><path d="m187.4 179.1c.3-.5-.2-1.2-1.1-1.5-1.4-.6-1.5-.9-.2-2.1.8-.7 2.6-1.7 4.2-2 2.4-.6 2.7-.4 2.7 1.7 0 1.7-.8 2.9-2.5 3.6-3.1 1.4-3.8 1.5-3.1.3z"/></g><g fill="#feffff"><path d="m393.5 895.7-5-1.2-.3-7.5c-.3-8.5.6-10 6.8-10 3.3 0 3.6.2 3.8 3.3.2 1.7.6 5.9 1.1 9.2s.7 6.3.4 6.8c-.5.8-.4.8-6.8-.6z"/><path d="m100.6 799.4c-2-1.9-2.1-4.3-.2-5 .8-.3 3.4-.1 5.8.4 2.4.6 3.6 1 2.7 1.1s-2.1 1.2-2.7 2.6c-1.3 2.9-3.4 3.2-5.6.9z"/><path d="m169.3 799.4c-.8-2.1 4-6.9 6.1-6.1 1.9.7 2.1 4.8.4 6.5s-5.8 1.5-6.5-.4z"/><path d="m166.3 793.3c-1.9-.7-1.6-2.7.7-4.8 2-1.8 2-1.7 2 1.8 0 3.7-.3 4-2.7 3z"/><path d="m100 780.9c-1.5-2.7-.5-6.6 1.9-7.8 1.2-.7 4.7-.7 10.2-.1 11.3 1.3 39.5 1.3 51.9-.1 11.2-1.2 13-.7 13 4 0 2.6-1.6 5.1-3.2 5.1-.4 0-.8-1.3-.8-2.9 0-1.7-.4-3.2-.8-3.5-.5-.3-4.9-.1-9.8.5-4.9.5-17.9.9-28.9 1-22.8 0-26.6.5-28 3.7-1.2 2.8-4.1 2.8-5.5.1z"/><path d="m446.6 686.3c-1.8-1-4.1-4.5-7.7-11.9-2.8-5.7-4.9-11.2-4.7-12.1.7-3.5 2.4-2 4.7 3.9 1.3 3.5 3.6 9.1 5.2 12.6l2.8 6.2 10.8.1c12 0 11.5 1.3-.8 2.1-5.4.3-8.4.1-10.3-.9z"/><path d="m472.2 683.3c2.6-3.1 2.7-4.9.3-9.9-1.3-2.7-2.4-4.3-2.4-3.6-.1.6-.6 1.2-1.2 1.2-.8 0-.7-.5.2-1.6 1.1-1.3.8-2-1.7-4.3-1.6-1.5-3.7-3-4.7-3.4-1.5-.6-4.3-5.5-3.5-6.3.2-.1 1.4-.5 2.8-.9 2.3-.5 2.9.1 8.4 11.1 3.2 6.4 5.9 12.7 5.9 14 0 2.9-2 5.4-4.1 5.4-1.3 0-1.3-.2 0-1.7z"/><path d="m113 661.8c7.1-14 10.2-18.8 12.3-18.8 1.5 0 1.1 1-2.1 5.8-2.1 3.1-6 9.4-8.6 13.9-6.8 11.8-7.6 11.3-1.6-.9z"/><path d="m546.6 640.2c-4-13.3-4-13.2-2.8-13.2 1.3 0 4.7 11.1 5.7 18.3.3 2.6.5 4.7.3 4.7s-1.6-4.4-3.2-9.8z"/><path d="m308.6 630.5c.7-19.2 3.9-51.6 6.5-65.5 3.1-17.5 10.1-36.4 17.1-46.3 1.9-2.6 4.4-2.8 3.4-.2-.3.9.2 1.1 1.5.8 2.3-.6 2.3-.7-4.4 13.8-2 4.1-4.3 10.4-5.3 14-2.5 9.8-2.3 9.3-3.8 8-1.3-1.1-4.6-.6-4.6.8 0 .3-1.2 7.8-2.6 16.6-3 19.6-5.2 38.9-6 55.5-.4 6.9-1.1 13.4-1.5 14.5-.5 1.2-.7-3.9-.3-12z"/><path d="m421 633c-1.3-1.6-2.1-1.8-5.8-1.1l-4.4.9 3.7-3.8c5.1-5.3 12.9-9 18.7-9 3.8 0 4.6.3 4.2 1.5-.4.8-1.8 1.5-3.4 1.5-1.5 0-3.3.7-4 1.5-1.1 1.3-.9 2 .9 3.9l2.2 2.3-4.8 1.9c-2.6 1-5 2-5.3 2.1s-1.2-.6-2-1.7z"/><path d="m131.9 627.8c-.1-1.1 0-13.9.1-25.5 0-1.3.5-2.3 1-2.3.6 0 1 5.5 1 14.5s-.4 14.5-1 14.5c-.5 0-1-.6-1.1-1.2z"/><path d="m201 570c-2.4-4.7-2.4-5-.5-5 1.6 0 9.5 6.7 9.5 8.1 0 .5-1.6.9-3.5.9-3 0-3.7-.5-5.5-4z"/><path d="m178.7 560.1c-.3-1.6-.9-4-1.3-5.5-1-4.1 1.2-3.1 4.1 1.7 3.1 5.4 3.1 6.7.1 6.7-1.8 0-2.5-.7-2.9-2.9z"/><path d="m255.3 548.1c.6-7.2 4.6-24.4 6-25.8 1.5-1.4 1.5.5.2 7.2-.7 3.9-1.8 11.3-2.5 16.6-.9 7.4-1.6 9.6-2.7 9.6-1.3 0-1.5-1.2-1-7.6z"/><path d="m120.5 549.6c-2.2-.6-5.1-1.9-6.5-2.9-2.4-1.7-2.4-1.9-.7-3.1 1.5-1.2 2.6-.9 7.7 2.2 8.3 4.9 8.1 6.2-.5 3.8z"/><path d="m360 542.3c0-1.6 2.5-7.3 3.2-7.3 1.1 0 1 .8-.4 4.7-1.1 2.9-2.8 4.5-2.8 2.6z"/><path d="m344.8 537.1c-5.1-3.3-5.6-4-4.5-5.5 1.2-1.6 1.6-1.5 5.1 1.3 2.1 1.7 4.7 3.3 5.7 3.6 2 .7 2.3 3.6.4 4.1-.5.2-3.6-1.4-6.7-3.5z"/><path d="m247.7 536.6c-1.7-4.3.7-14.6 3.2-14.6 1.4 0 1.4 0-.8 8.9-1.2 4.9-2 6.8-2.4 5.7z"/><path d="m152 526.8c0-.2 1.6-6.4 3.6-13.8 9.4-35.5 9.7-37.5 6.8-43.5-2.2-4.7-5.7-6.7-11.9-6.8-4.3-.1-6 .4-9 2.7-4.3 3.3-6 6.9-7 14.8-.4 3.2-1.4 6.3-2.3 7-1.6 1.4-1.6.7.9-12 1.8-9.1 8.8-15.2 17.4-15.2 6.2 0 11.1 2.5 14.6 7.3 5 6.9 4.8 7.9-9.3 56.5-.5 1.7-1.5 3.2-2.3 3.2s-1.5-.1-1.5-.2z"/><path d="m136.6 496.8c-1.9-2.7-.6-5.5 3-6.4 4.4-1.1 8.3 4.3 5.2 7.4-2 2-6.5 1.4-8.2-1z"/><path d="m128 372.6c0-.2-.9-4.8-2-10.2-3.5-16.8-1.4-28 8.5-45.7 3.2-5.6 6.9-12.1 8.2-14.4s4.4-5.8 7-7.8c8.4-6.4 13.3-7.3 66.3-12 33.1-2.9 102.8-5.6 92-3.5-2.5.5-7.2.9-10.5 1-3.6 0-6.8.7-7.9 1.5-1.5 1.1-1.6 1.5-.5 1.6.8.1-.4.5-2.6 1-2.2.4-16.4 1.3-31.5 1.9-39.1 1.5-82 5.5-91.6 8.4-8.4 2.6-11.4 5.3-20.5 19-9.7 14.5-10.5 16.3-12 29.7-1.1 9.1-.4 20.2 1.7 27.7.5 1.9.3 2.2-2 2.2-1.4 0-2.6-.2-2.6-.4z"/><path d="m142.6 367.8c-2.1-7.6-2.9-19.3-1.7-27 1.3-9.1 4.9-16.7 11-23.1 6-6.4 13.4-10.2 22.2-11.6 12.3-2 93.1-6.1 119.6-6.1 10.6 0 13.1.3 12.7 1.3-.3.8.5 1.8 1.8 2.4 7.7 3.6 16 14.8 17.7 24 1.5 7.6-.3 7.1-3.9-1.2-4-9.2-9-15.1-16.1-19l-5.4-3-19 .3c-27.1.3-103.9 4-109.2 5.2-13.1 3-23.1 13.1-26.9 27.3-1.9 7.3-1.1 11.1 2.9 12.3s4.6 3.2 1 4c-4.8 1.2-5.5 2.3-4.8 7.8.4 2.8 1 6.6 1.5 8.4.6 2.5.5 3.2-.6 3.2-.8 0-1.9-2.1-2.8-5.2z"/><path d="m177.6 334.4c-.3-.9-.6-2.9-.6-4.5 0-2.2.6-3.2 2.6-3.9 6.8-2.6 9 0 5 6-2.7 4.1-5.9 5.2-7 2.4z"/><path d="m190.8 330.4c-.5-4.4 1.2-6.4 5.3-6.4 3.9 0 4.7 2.3 2.4 6.6-1.4 2.6-2.5 3.4-4.5 3.4-2.4 0-2.8-.4-3.2-3.6z"/><path d="m447.7 323.3-2.7-2.8-24.5-.3c-23.7-.3-24.5-.4-24.5-2.3s.6-2 26.9-1.7c24.8.3 27.1.4 29 2.2 3.2 2.9 2.4 7.6-1.3 7.6-.1 0-1.4-1.2-2.9-2.7z"/><path d="m579.5 321c-.3-.5-.3-1 .2-1 .4 0 4.1-.6 8.1-1.4l7.2-1.4v2.4c0 2.3-.3 2.4-7.4 2.4-4.1 0-7.8-.4-8.1-1z"/><path d="m346 285.5c-1.1-1.3-.7-1.5 2.6-1.4 2.2 0 5.7.3 7.9.8l4 .7-4.9.7c-6.9 1-8.2.9-9.6-.8z"/><path d="m410.4 247.8c.3-1.3 4-8.7 8.1-16.6 4.2-7.9 8.1-15.7 8.7-17.3.9-2.6 2.8-4.1 2.8-2.1 0 1.5-8.1 19.6-12.7 28.4-4.5 8.4-8.2 12.5-6.9 7.6z"/><path d="m175.2 240.3c-3-8-6-16.9-8.6-26-1.2-4.3-1.2-5.3-.2-5.3.8 0 2.5 3.4 4.1 7.8 1.5 4.2 4.5 11.9 6.6 16.9 2.7 6.4 3.7 10.1 3.3 11.8-.3 1.4-1 2.5-1.4 2.5-.5 0-2.2-3.5-3.8-7.7z"/><path d="m375.7 238.7c-2.2-3.4-2.2-4.4.3-5.7 1.9-1 18-24.4 18-26.1 0-.5.9-.9 2-.9s2 .5 2 1c0 .6-.5 1-1.1 1-.5 0-.7.5-.4 1 .3.6.2 1-.4 1-.5 0-1.2.8-1.6 1.9-.3 1-4.1 7.2-8.4 13.9-4.4 6.6-8.1 12.8-8.3 13.8-.3 1.5-.6 1.4-2.1-.9z"/><path d="m192.6 227.2c-.2-.4-1.8-5.3-3.4-10.8-3.4-11.2-5-22.8-3.4-23.8 1.2-.7 1.4-.3 4.1 11.4 2.4 10.6 5.9 20 7.3 20 .6 0 .3.9-.7 2-1.9 2.1-3.1 2.5-3.9 1.2z"/><path d="m410.7 203.6c-2.1-.8-4.8-2.2-5.9-3.3-4-3.5-13-16.4-12.4-17.9.9-2.3 3.1-1.6 5.1 1.8 2.8 4.9 9.5 11.7 14.1 14.4 2.3 1.4 4.4 3.3 4.7 4.4.6 2.3-.4 2.4-5.6.6z"/><path d="m427.3 199.2c4.1-4.1 4.7-5.3 4.7-8.9 0-8.3-6.6-25.3-9.8-25.3-1.4 0-2.3-1.8-4.1-7.7-2.3-8.1-11.7-29.3-13.3-30.4-.6-.4-.5-1 .3-1.4 2.1-1.4 6.4 4.9 15.2 22.5 9.7 19.3 14.8 33.6 15.5 43.5.5 8.2 0 8.9-7.9 11l-5.2 1.4z"/><path d="m190 177.8c0-.6-.8-1.6-1.7-2.3-1.5-1.1-1.2-1.4 2.7-2.2 5.2-1.1 7.2-.7 6.8 1.5-.4 1.8-7.8 4.7-7.8 3z"/></g></svg>