<svg preserveAspectRatio="xMidYMid meet" viewBox="0 0 4156 4397" xmlns="http://www.w3.org/2000/svg">

<style>
	#fill_ink_and_feather { fill: #fff; }
	#fill_heart { fill: #f00; }
	#fill_devil { fill: #80c040; }
 </style>

<path d="m2778.46 4029.46c-10.2-3.6-13.79-9.6-13.79-22.79v-17.39l-212.9-.6c-156.52 0-215.3-2.4-224.29-7.8-9-5.4-14.99-5.4-28.79.6-14.99 7.2-17.39 6-28.79-7.8-11.39-14.39-14.99-14.99-76.76-16.19-52.17-.6-66.57 1.2-75.56 9-13.19 11.99-42.58 11.99-153.53-1.2-73.16-9-83.96-11.39-83.36-20.99 1.2-12.59-17.99-18.59-42.58-13.19-10.2 2.4-25.79 5.4-35.98 7.2-16.79 3-17.39 2.4-6-6 7.2-4.8 32.38-10.2 59.97-11.99 26.39-1.8 73.76-6 104.95-9.6 31.18-3.6 133.14-6 226.69-4.8 169.72 1.2 169.72 1.2 166.72-11.39-3-10.2-.6-12.59 16.19-12.59 50.38-1.2 176.32-8.4 241.68-13.79 39.58-3.6 137.93-6 218.89-5.4 98.35.6 155.33-1.2 173.32-6 14.99-4.2 31.18-7.8 35.98-9 4.8-.6 14.99-4.8 22.19-8.4 7.2-4.2 16.79-7.2 20.99-7.2 17.39 0 40.18-15.59 42.58-28.19 5.4-28.19-25.79-43.18-60.57-28.19-11.39 4.2-24.59 8.4-28.79 8.4-4.8 0-18.59 6.6-31.18 14.39-11.99 8.4-29.99 16.79-40.18 18.59-29.99 6.6-50.98 17.39-50.98 25.79 0 5.4-4.2 6.6-13.19 3.6-43.18-13.79-160.72-35.98-160.72-29.99 0 4.8-1.8 4.8-4.8 0-5.4-9-76.16-44.38-88.16-44.38-13.79 0-16.79-13.79-9.6-49.18 3-17.39 7.8-61.17 9.6-97.75 1.8-35.98 7.8-88.16 13.19-115.14 13.19-68.97 25.19-80.36 95.95-89.96 127.14-16.79 222.49-26.99 241.68-26.39 28.19 1.2 121.14 19.19 128.94 24.59 6.6 5.4 40.18 13.19 63.57 14.99 8.4.6 20.99 4.2 27.59 8.4 7.2 3.6 17.99 6.6 23.39 6.6 6 0 16.19 5.4 23.39 11.99 11.39 10.79 12.59 16.19 9 37.18-2.4 13.19-5.4 56.97-5.4 96.55-.6 39.58-2.4 74.36-3.6 76.16-1.8 2.4-9.6 4.8-17.39 4.8-13.19 0-14.99-3.6-17.39-25.19l-2.4-24.59-.6 27.59c-1.2 22.19-3.6 28.79-16.19 35.38-9.6 4.8-14.99 13.19-14.99 22.19 0 9.6-3.6 13.79-11.39 13.79-17.99 0-17.99 13.19-1.2 35.98 23.99 31.78 43.78 47.38 61.17 47.98 9 0 19.19 3.6 22.79 8.4 6 6.6 4.8 9.6-5.4 12.59-16.79 5.4-12.59 16.19 9.6 22.79 9.6 3 144.53 6 299.86 6 224.29 1.2 284.26 3 292.06 9 15.59 13.19 6 22.79-30.59 31.18-18.59 3.6-40.78 9.6-49.18 11.99-37.78 11.99-86.96 17.99-161.92 20.39-44.98 1.8-88.76 4.8-97.75 6.6-16.19 4.2-22.79 20.99-8.4 20.99 3.6 0 49.18 4.2 100.15 8.4 94.15 8.4 125.94 8.4 159.52 1.2 12.59-3 20.39-1.8 25.79 4.2 16.79 20.39-73.76 35.38-209.3 34.18l-110.95-.6c-42.58.6-171.52 7.2-188.91 9-28.79 3.6-290.26 17.99-323.84 17.39-14.99 0-58.17-.6-96.55-1.8-37.78-1.2-71.37-.6-74.96 1.2-3 1.8-11.39 1.2-18.59-1.8zm195.51-82.76c7.2-13.19 3-18.59-14.99-18.59-11.99 0-12.59 1.2-6.6 14.99 8.4 17.99 13.79 18.59 21.59 3.6zm209.9-90.56c21.59 0 23.39-7.2 6.6-23.99-9.6-9.6-11.99-10.2-11.99-3 0 5.4-7.8 14.39-17.99 19.79-19.19 10.79-25.19 23.39-6.6 13.19 6.6-3 19.79-6 29.99-6zm-323.24-80.36c0-11.39 2.4-22.19 4.8-23.99 6-3.6 14.99-109.75 15.59-180.51.6-40.78-1.2-47.98-9.6-49.78s-10.79 2.4-10.79 19.19c0 11.39-2.4 22.79-6 24.59-3 1.8-6 11.39-6 21.59 0 14.99-4.2 19.19-28.19 31.18-24.59 11.39-28.79 16.19-30.59 32.98-1.2 10.79-6 21.59-10.79 23.39-11.99 4.2-10.2 11.99 3.6 15.59 9 2.4 11.99 8.4 11.99 23.99 0 11.99-2.4 23.39-6 25.19-3 1.8-6 12.59-6 23.39 0 18.59 1.8 19.79 28.79 25.79 47.98 10.2 49.18 10.2 49.18-12.59zm118.14 3.6c5.4-3.6 3.6-9-6.6-19.79-23.99-25.79-27.59-38.98-27.59-93.55 0-52.77 10.2-100.15 26.99-125.94 13.19-19.19 11.39-27.59-4.2-22.79-7.8 2.4-15.59 6-17.99 8.4-2.4 1.8-7.2 47.98-10.2 102.55l-10.2 127.74-3.6 28.19h23.39c12.59 0 25.79-2.4 29.99-4.8zm29.99-134.34c-1.2-7.8-2.4-1.8-2.4 13.19s1.2 20.99 2.4 13.79c1.2-7.8 1.2-19.79 0-26.99zm225.49-147.53c-3-6-14.99-10.79-26.39-11.99-17.39-1.2-19.19 0-10.79 6 4.8 4.2 14.39 15.59 20.39 25.19 11.39 17.39 11.39 17.39 17.39 3.6 4.2-8.4 3.6-16.19-.6-22.79zm-463.58 6.6c11.39-3 6-4.8-20.99-8.4-33.58-4.2-50.98 0-50.98 12.59 0 4.8 46.18 1.8 71.97-4.2zm188.91-49.78c26.39-6.6 58.77-12.59 71.97-13.19 20.99-.6 19.79-1.2-9-4.2-17.99-1.8-66.57-1.2-107.35 1.8l-74.96 6 29.99 10.2c37.18 13.19 32.98 13.19 89.36-.6zm-1252.2 517.56c-10.2-9.6-2.4-19.79 20.39-25.79 13.79-3.6 26.39-5.4 28.19-3.6s0 3.6-4.2 3.6c-3.6 0-13.79 6.6-22.19 14.99-16.79 16.79-16.79 16.79-22.19 10.79z"/>
<path d="m1594.03 3806.97c-10.2-7.2-31.78-10.79-79.76-13.19-98.95-4.8-154.73-10.2-166.12-16.19-10.2-5.4-10.2-7.2-1.8-28.19 5.4-11.99 16.19-31.78 23.99-44.38 50.98-77.36 60.57-164.32 28.79-259.68-23.99-71.37-31.78-119.34-31.78-198.5 0-67.77 5.4-91.16 28.79-128.34 13.19-20.99 13.19-53.97.6-79.16-3-5.4-5.4-22.19-5.4-36.58 0-23.39-3-29.39-20.99-45.58-11.99-10.2-26.39-18.59-32.38-18.59-15.59 0-39.58-20.39-48.58-41.98-6.6-16.19-5.4-22.19 11.99-62.37 12.59-28.19 25.19-47.38 34.18-52.17 13.79-7.2 14.39-9.6 12.59-64.77l-1.8-57.57-17.99 1.8c-9.6.6-60.57 1.2-112.15 1.2-86.36-.6-108.55 1.8-209.9 20.99-26.99 5.4-68.37 11.39-71.97 10.2-1.8-.6-23.39-2.4-47.38-4.8-41.38-3.6-46.18-5.4-76.16-31.18-62.37-53.37-70.77-77.96-68.97-205.1.6-86.36 2.4-97.15 19.19-148.73 10.2-31.18 18.59-59.97 18.59-64.77s2.4-13.19 5.4-19.19c3-5.4 11.39-30.59 19.19-55.17 7.2-24.59 15.59-47.38 17.99-50.98 9-13.19 93.55-256.08 102.55-293.86 14.99-63.57 30.59-226.69 25.19-260.87-6.6-43.18-36.58-101.35-61.17-117.54-36.58-25.19-170.32-23.39-222.49 3-79.16 40.78-176.32 234.49-160.12 320.25 2.4 11.99 6.6 23.39 10.2 25.79 3.6 1.8 15.59-6 27.59-18.59 11.39-11.99 31.78-28.19 44.98-36.58 29.99-19.19 55.77-16.19 85.16 9.6 30.59 27.59 36.58 56.97 36.58 188.91v113.95l-37.78 110.35c-20.39 60.57-37.18 115.14-37.18 120.54 0 7.2-6 11.39-19.19 13.79-16.19 2.4-23.99-1.2-44.38-19.19-13.19-11.99-35.98-28.79-50.98-38.38-109.75-68.37-134.34-93.55-159.52-160.12-29.99-79.76-29.39-131.94.6-200.3 19.79-44.38 43.18-59.97 83.36-55.77 17.39 1.2 35.98 4.8 41.98 7.2 10.2 4.2 10.2 1.2 6.6-50.38-5.4-69.57 3.6-114.54 35.38-180.51 31.78-66.57 53.97-98.95 87.56-131.34 47.38-44.98 68.37-51.58 165.52-51.58 119.94.6 135.53 10.79 168.52 109.15l16.19 46.78-10.2 107.95c-5.4 59.37-13.79 122.34-18.59 139.73-16.19 61.17-70.17 226.09-77.96 238.09-12.59 20.39-83.96 238.09-98.95 302.25-4.2 17.39-7.8 67.17-8.4 110.95 0 69.57 1.2 81.56 13.19 106.75 28.19 58.77 70.17 92.96 121.14 97.75 17.99 1.8 38.98 4.8 46.18 6 7.8 1.8 35.98-1.8 62.97-8.4 85.76-19.79 133.74-24.59 244.68-24.59h107.95l6-16.19c3.6-9.6 11.39-26.99 18.59-38.98l11.99-22.19-16.79-3.6c-9-2.4-21.59-4.8-26.99-6-6-1.2-10.79 1.2-10.79 4.2 0 3.6-3.6 3.6-9-1.2-4.8-3.6-10.79-6-13.19-4.2s-11.39 0-19.79-3.6c-8.4-3-25.79-7.2-38.98-8.4s-27.59-5.4-31.78-9c-4.2-3.6-9-4.8-10.79-3-1.8 1.8-38.38-14.39-80.96-35.38s-80.96-38.38-85.16-38.98c-12.59-.6-59.37-31.78-66.57-44.38-3.6-6.6-10.2-14.39-14.39-16.79-4.8-3-6.6-10.79-4.8-18.59 2.4-10.2 0-15.59-10.2-20.99-7.2-4.2-23.39-20.39-35.38-35.38-32.98-40.78-31.78-64.17 4.8-96.55 15.59-13.79 34.18-24.59 40.78-24.59 11.99 0 13.19-3 13.19-29.39 0-16.19 3-32.98 6.6-37.78 3.6-4.2 13.79-20.99 23.39-37.78 9-16.19 22.19-35.98 28.79-43.78 14.39-16.19 106.15-91.16 167.92-138.53 23.39-17.39 58.77-47.38 78.56-65.97 50.98-47.38 72.57-65.37 103.75-86.36 33.58-22.79 90.56-52.17 101.35-52.17 11.99 0 9.6-16.79-10.79-68.97-24.59-62.37-34.78-102.55-28.79-112.15 3-4.2.6-11.39-5.4-17.39-46.18-44.38-58.17-65.97-65.37-121.74-4.2-30.59 8.4-125.34 20.99-156.52 4.8-13.19 11.39-38.98 13.79-56.97 3.6-27.59 13.19-74.96 19.79-98.95 1.2-3 7.8-17.99 14.39-32.98 15.59-32.38 16.19-39.58 3.6-44.38-6.6-2.4-9-8.4-7.2-17.99 2.4-12.59.6-14.39-11.99-13.79-11.39 1.2-19.19-6-37.18-31.78-12.59-17.99-22.79-34.18-22.79-35.98.6-1.8-2.4-10.79-6.6-20.99-19.79-46.78-27.59-127.74-18.59-179.31 11.99-62.97 34.78-109.15 88.16-178.71 34.78-44.98 127.74-95.35 155.92-84.56 13.19 5.4 6 40.18-13.19 65.37-43.78 57.57-51.58 117.54-24.59 196.71 18.59 53.97 39.58 88.16 60.57 99.55 8.4 4.2 14.99 10.2 14.99 13.19 0 2.4 3 4.8 6.6 4.8 3 0 4.2-3 2.4-6-8.4-13.19 11.99-4.8 32.38 13.79 14.39 12.59 20.99 23.39 19.19 31.18-1.8 11.99-1.8 11.99 11.39 0 20.39-17.99 25.19-35.98 14.99-55.17-4.8-9-9-21.59-9-26.99s-2.4-11.39-5.4-13.19c-3-2.4-5.4 9-4.8 23.99.6 16.19-1.8 29.39-5.4 30.59-4.8 1.2-7.2-6.6-7.2-22.79-.6-14.39-7.2-37.78-16.79-56.37-16.19-32.38-58.77-82.76-74.96-88.16-5.4-2.4-6.6-5.4-2.4-9.6s11.39-1.2 23.99 10.2c22.79 20.39 57.57 64.17 68.37 86.36 14.39 27.59 22.19 10.2 13.19-30.59-25.79-119.34-31.78-152.33-30.59-188.91 0-23.99 4.8-49.18 10.2-61.17 11.99-24.59 22.19-28.19 12.59-4.2-18.59 46.18-16.19 109.15 7.2 205.1l21.59 92.96c12.59 58.77 19.19 72.57 28.19 63.57 4.8-4.8 4.8-11.99-.6-26.99-14.99-40.18-8.4-173.32 11.39-242.28 6-20.99 17.39-49.18 25.79-62.97 20.39-34.18 55.77-73.76 60.57-68.97 2.4 2.4-4.2 13.19-14.39 23.99-22.79 23.99-64.17 106.15-69.57 139.73-6.6 36.58-13.19 158.92-10.2 184.71 2.4 17.39 5.4 22.19 14.39 22.19 6.6 0 13.19-4.8 14.99-11.39 1.8-7.2 9.6-12.59 21.59-14.39 10.79-1.2 34.18-8.4 52.77-14.99 18.59-7.2 43.18-14.39 53.97-16.19 11.39-1.8 31.18-6 44.38-9 13.19-3 35.38-6 49.18-6 13.79 0 26.99-2.4 28.79-6 4.8-7.8 46.18-7.8 67.17.6l28.79 11.39c53.97 19.19 147.53 71.97 164.32 92.36 26.39 31.18 105.55-60.57 137.33-158.92 20.39-63.57 20.99-103.75 4.2-159.52-3-9.6-.6-14.39 7.8-19.19 19.19-10.2 39.58 1.2 59.97 34.78 10.2 16.79 26.99 37.18 37.18 46.18 9.6 9 17.99 19.79 17.99 23.99 0 3.6 8.4 23.99 18.59 44.98 17.39 34.18 19.19 43.78 19.79 98.35.6 65.97-2.4 88.16-16.79 128.94-5.4 14.99-11.39 31.78-12.59 37.18-4.8 20.99-34.78 68.37-51.58 81.56-9.6 7.8-17.39 17.99-17.39 22.79s-2.4 8.4-5.4 8.4-4.2 9-3 19.19c6 40.18 3 117.54-7.2 169.72-5.4 29.99-11.39 80.96-12.59 113.95-3 55.77-1.8 63.57 14.39 104.35 16.19 41.98 28.19 56.97 37.18 44.38 6.6-9.6 86.36-59.37 121.74-76.16 18.59-8.4 35.98-18.59 37.78-21.59 3.6-6 26.99-8.4 26.99-3 0 1.2-4.2 13.79-9.6 26.99-11.99 29.39-7.2 36.58 11.39 19.19 35.38-32.98 132.54-89.36 164.32-94.75 9-1.2 30.59-7.8 46.78-14.39 25.79-9.6 57.57-19.19 134.94-41.38 8.4-2.4 28.79-4.8 44.98-6 27.59-.6 104.95-16.79 150.53-31.18 29.39-9 89.96-6.6 98.35 3.6 4.8 6 5.4 11.39 1.8 16.79-3.6 3.6-10.79 19.79-16.79 35.38-5.4 15.59-17.99 34.78-26.99 42.58-9 8.4-20.99 22.79-26.99 32.38-10.2 16.79-46.78 47.98-101.35 85.76-29.99 20.99-31.18 20.99-88.76 19.79-45.58-.6-58.77.6-58.77 6.6 0 4.8 8.4 11.39 17.99 15.59 10.2 4.2 19.79 10.2 21.59 12.59 4.2 7.2-70.77 79.16-114.54 109.75-35.98 25.19-59.37 33.58-166.72 58.17-48.58 11.99-61.17 12.59-76.76 7.2-16.79-6.6-19.79-6-29.39 5.4-10.2 12.59-11.99 12.59-57.57 6-26.39-4.2-57.57-7.2-69.57-7.2-21.59 0-22.79.6-23.39 20.99-1.2 23.39-1.2 25.19-7.8 40.18-2.4 5.4-5.4 13.79-6 19.19-.6 4.8-3 11.39-5.4 13.19-2.4 2.4-4.2 9.6-4.2 15.59 0 6-4.2 17.99-9.6 25.79-5.4 8.4-7.8 14.99-6 14.99 2.4 0-.6 5.4-6.6 11.39-6 6.6-15.59 19.79-20.99 29.39-10.2 16.79-10.2 17.99 3 29.99 16.19 14.99 55.77 37.18 66.57 37.18 4.2 0 16.79 4.2 27.59 10.2 31.18 15.59 79.16 12.59 141.53-9.6 29.99-10.2 60.57-18.59 67.17-18.59s34.78 7.2 62.37 15.59l64.77 19.79c18.59 5.4 170.32 3.6 196.11-2.4 10.79-2.4 22.19-7.2 25.19-11.39 2.4-3.6 3.6-25.19 1.2-48.58-7.2-84.56 10.79-190.71 40.18-235.69 8.4-12.59 44.38-32.38 54.57-29.39 2.4.6 14.99-10.2 28.19-23.99 19.79-20.39 28.79-25.79 44.98-25.79 11.39 0 23.99 2.4 28.79 5.4 6 3.6 16.19 1.8 30.59-5.4 17.99-9 24.59-10.2 36.58-4.2 17.39 9 29.39 31.18 29.39 56.37 0 10.79 5.4 28.19 11.99 38.98 21.59 35.38 13.79 119.94-17.99 202.7-24.59 64.17-38.38 91.16-80.96 158.92-50.98 80.96-60.57 104.95-50.38 128.94 4.8 9.6 10.2 17.99 11.99 17.99 1.8 0 3.6 3.6 3.6 7.8 0 3.6 6 29.99 13.19 57.57 13.79 54.57 15.59 78.56 7.2 95.35-3 5.4-9 22.19-13.79 37.18-7.8 24.59-12.59 28.79-50.38 48.58-37.18 19.79-43.18 20.99-56.37 13.79-24.59-11.99-29.99-29.99-28.79-86.36l1.8-50.98-25.79-37.18c-13.79-20.99-26.99-37.78-28.19-37.78-3 0-45.58 15.59-65.97 23.99-22.19 9.6-92.36 29.99-101.95 29.99-4.8 0-13.79 2.4-19.79 5.4-34.18 17.99-160.12 42.58-217.1 42.58-17.99-.6-43.78-4.8-56.97-9.6-50.38-18.59-72.57-23.99-98.95-22.19-80.96 4.8-80.96 4.8-78.56 13.79 13.79 52.17.6 161.32-26.39 218.29-26.39 56.37-44.98 100.75-44.98 106.75 0 3.6-7.8 17.39-16.79 31.18-23.99 35.98-61.77 113.35-61.77 127.14 0 22.19 14.39 88.76 37.78 173.32 6.6 22.79 14.99 43.78 48.58 116.94 22.79 50.38 37.18 101.35 49.18 179.91 1.2 8.4 4.8 26.39 7.8 39.58 4.2 19.79 3.6 29.39-5.4 48.58-13.19 28.19-85.16 97.75-101.35 97.75-6 0-13.19 3-14.99 6-2.4 3.6-12.59 10.2-22.79 14.99-10.79 4.2-25.79 11.99-34.18 16.79-62.37 35.98-301.65 70.17-358.63 51.58-25.19-8.4-28.19-5.4-58.17 51.58-11.99 23.39-24.59 44.38-27.59 47.98-7.2 7.2-7.2 34.78 0 29.99 3-1.8 7.2-.6 9.6 2.4 1.8 3.6 12.59 3 26.99-2.4 31.18-10.79 55.77-3.6 85.16 25.19 21.59 20.99 22.79 23.99 22.79 61.77 0 33.58-2.4 41.38-14.99 55.77-14.39 14.99-17.99 16.19-47.38 12.59-25.19-3-35.98-1.2-56.97 9.6-23.99 11.99-32.38 12.59-136.13 10.79-90.56-1.2-112.75-3.6-123.54-11.99zm231.49-34.78c12.59-4.8 15.59-9.6 15.59-26.99 0-20.99 0-20.99 26.39-20.99 24.59 0 26.99 1.2 30.59 17.99 4.2 19.19 11.99 22.19 28.79 9.6 15.59-11.99 12.59-23.99-13.79-50.98-20.39-20.99-25.79-23.99-35.98-18.59-6.6 3.6-11.99 11.99-11.99 17.99 0 10.2-4.2 11.99-29.99 11.99-38.98 0-48.58-13.79-52.77-74.96-2.4-40.18-1.8-44.98 11.39-58.17 7.8-8.4 20.99-26.39 28.79-41.38 7.8-14.39 17.99-30.59 22.79-35.98 4.2-5.4 10.79-17.39 13.79-26.99s9.6-28.19 14.39-41.38c4.8-13.19 9-35.38 9.6-49.78v-25.79l25.79 1.8 25.19 1.8v55.77c0 63.57-6.6 58.17 70.77 64.17 26.39 1.8 55.17.6 65.97-2.4 10.79-3.6 52.77-14.39 93.55-24.59s81.56-23.39 89.96-29.39 34.78-19.79 57.57-31.18c23.39-11.39 43.18-22.19 43.78-24.59 1.2-3 4.8-4.8 7.8-4.8 11.39 0 41.38-38.38 44.98-57.57 1.8-11.39.6-33.58-3.6-49.18-3.6-15.59-9-43.18-11.99-61.17-2.4-17.99-20.39-71.97-38.98-119.94-41.38-104.35-42.58-108.55-58.17-176.91-18.59-84.56-24.59-122.34-25.19-170.92-.6-44.98-.6-44.98 16.19-46.78 13.79-1.8 19.79-8.4 35.98-41.98 10.2-22.19 20.39-41.38 22.19-43.18 4.2-3.6 38.38-89.96 47.38-119.94l18.59-58.77c18.59-54.57 17.39-139.73-1.8-196.71-8.4-23.39-16.79-54.57-18.59-68.97-2.4-14.39-12.59-52.17-22.19-84.56-10.2-31.78-17.39-65.37-16.19-74.96 1.8-14.99 4.2-16.79 27.59-18.59 24.59-1.8 25.79-1.2 35.38 20.99 4.8 12.59 14.39 41.98 19.79 64.77 14.39 58.17 42.58 154.13 47.98 164.92 3 7.2 20.99 9.6 78.56 11.99 60.57 3 80.36 6 105.55 17.39 35.98 16.19 67.17 14.99 145.73-6 67.77-17.99 226.69-70.77 262.67-86.96 17.99-8.4 43.18-14.39 58.77-14.39h26.99l-1.2 29.39c-1.2 21.59 1.8 33.58 11.39 46.78 17.39 24.59 26.39 69.57 21.59 108.55-4.2 34.78 1.2 44.38 22.19 38.98 14.39-4.2 26.39-22.79 37.78-61.17 10.79-37.18 6-73.16-17.39-123.54-22.19-49.18-20.39-87.56 6.6-145.13 17.99-38.38 55.17-97.75 68.37-109.75 3.6-3 15.59-30.59 53.97-122.34 23.39-56.37 33.58-110.35 22.79-121.14-11.99-11.99-94.15 123.54-112.75 186.51-13.19 46.78-17.39 50.98-46.18 50.98-21.59 0-25.79-1.8-25.79-11.99 0-9-4.2-11.99-16.19-11.99-16.19 0-16.79.6-14.99 32.38l2.4 31.78-23.39 3.6c-12.59 2.4-29.99 4.2-38.98 4.2-9 0-18.59 4.2-21.59 9.6-4.8 8.4-11.39 9-42.58 5.4-19.79-2.4-36.58-6.6-36.58-9.6s-30.59-5.4-67.17-6c-74.96 0-104.95-4.8-156.52-22.79-32.98-11.39-36.58-11.39-59.97-3-86.96 32.98-90.56 33.58-136.13 29.99-50.38-3.6-104.35-20.99-142.73-46.18-29.99-20.39-32.98-20.39-43.78-7.8-4.2 5.4-14.39 11.99-22.79 15.59-27.59 10.2-193.71 24.59-314.25 26.99-115.74 2.4-120.54 1.8-170.92-13.79-86.36-26.39-85.16-25.79-85.16-54.57 0-23.99.6-25.19 21.59-29.39 15.59-3 35.38.6 73.16 12.59 69.57 22.19 160.12 28.19 247.08 16.79 34.78-4.8 88.76-10.2 119.94-11.99 55.77-3 58.17-3.6 98.35-31.18 29.99-19.79 44.38-34.18 52.77-51.58 6-13.19 13.79-28.19 16.79-32.98 12.59-19.79 29.39-64.17 31.18-80.96 1.8-16.79 0-17.99-29.39-25.79-29.99-7.2-31.78-6.6-58.17 9-14.39 9-28.19 20.39-29.99 25.79-1.8 4.8-7.8 19.79-13.19 32.98-5.4 13.19-11.39 34.78-13.19 47.98-3 17.39-7.2 24.59-16.19 25.79-6.6 1.2-21.59 6.6-32.98 11.99-12.59 6-36.58 10.2-59.97 10.2-37.18 0-38.98-.6-40.78-14.99-1.8-13.79-6-16.19-34.78-21.59-34.18-6-108.55-1.2-135.53 9-11.39 4.2-16.19 11.39-19.19 29.99-3.6 24.59-4.2 24.59-29.99 24.59-16.19 0-28.79-3.6-34.18-9.6-16.19-19.79-40.18-26.39-94.75-26.39h-53.97l-1.8 22.79c-1.8 20.39-3.6 22.19-21.59 23.99-25.79 2.4-63.57-21.59-115.14-73.76-41.98-41.98-68.97-54.57-103.75-47.98-41.38 8.4-74.96 22.19-88.16 35.98-7.8 8.4-17.39 14.99-21.59 14.99-16.19 0-54.57 28.19-106.15 77.96-29.39 28.19-58.17 54.57-63.57 58.77-145.13 110.35-171.52 131.34-190.11 151.73-23.39 25.19-56.37 86.96-56.37 104.95 0 7.8-3.6 16.19-8.4 18.59s-9.6 11.39-10.79 19.79c-1.2 10.2-8.4 17.99-23.99 25.19-11.99 6-23.99 13.19-25.79 17.39-5.4 8.4 8.4 35.38 17.99 35.38 4.2 0 13.19 5.4 20.99 11.99 7.8 6.6 21.59 11.99 31.18 11.99 15.59 0 16.79 1.2 16.79 25.79 0 14.39-3 28.79-7.2 32.98-5.4 5.4-1.2 9 16.79 16.19 12.59 5.4 29.99 13.19 38.38 17.99 53.37 31.18 126.54 62.37 182.91 77.96l54.57 15.59c10.2 3 42.58 5.4 71.97 5.4 49.18 0 55.17 1.8 79.76 17.99 14.39 10.2 28.79 17.99 31.78 17.99 2.4 0 4.8 4.2 4.8 9 0 15.59 25.79 37.78 44.98 40.18 17.39 1.8 17.99 3 17.99 31.78 0 26.39-1.8 29.99-13.19 31.78-20.99 3-16.79 17.99 6 20.39 17.39 1.8 19.19 3.6 20.99 24.59 1.8 17.39 4.2 22.19 13.79 22.19 13.19 0 13.79-3.6 2.4-23.99-9-15.59-12.59-127.14-5.4-146.33 4.8-13.19 47.98-13.19 52.77 0 1.8 5.4 3.6 25.79 3.6 46.18s4.8 49.78 10.2 65.97c9 24.59 9.6 34.18 3 76.76-9.6 66.57-27.59 97.75-74.96 128.94-20.39 13.79-46.18 29.39-56.97 35.38-26.99 13.19-21.59 16.19 10.79 6.6 40.18-12.59 85.16-36.58 103.15-55.77 26.99-28.79 52.77-91.76 52.77-128.34 0-17.99 4.2-56.37 9.6-86.36 11.99-67.17 9-84.56-20.39-127.74-13.19-18.59-34.78-51.58-48.58-73.16-13.79-21.59-32.38-43.18-41.38-48.58-9-4.8-17.39-15.59-17.99-23.39-4.2-26.99-80.36-119.94-98.95-119.94-3.6 0-17.39-4.8-30.59-10.79-13.79-6-35.38-14.39-47.98-18.59-12.59-4.8-38.38-19.19-56.97-32.98-40.18-29.39-63.57-42.58-85.76-47.98-15.59-3.6-16.79-6-16.79-34.78v-30.59l34.18 4.2c41.38 4.8 73.76 18.59 112.75 48.58 16.19 12.59 47.38 29.99 68.97 38.38l38.38 14.99 46.78-16.19c49.18-17.39 96.55-43.18 129.54-71.37 15.59-13.79 25.19-16.79 49.18-16.79h29.99v26.99c0 21.59-2.4 28.19-13.19 33.58-7.8 4.2-22.19 14.39-32.38 23.39-10.2 9-41.98 27.59-70.77 41.38-28.19 13.79-51.58 26.99-51.58 29.39s16.19 27.59 35.98 55.17l71.37 104.95c58.17 87.56 59.37 88.76 104.95 107.95l42.58 17.99v26.99 26.99h-31.18l-31.78-.6v31.18c0 16.79-3 45.58-6 62.97-3.6 17.99-10.2 62.37-14.99 98.35-6 44.98-13.79 75.56-23.99 95.95-17.39 34.18-55.17 80.96-65.37 80.96-3.6 0-17.39 5.4-30.59 12.59-37.78 20.39-86.36 31.18-142.73 31.78l-52.77.6 3 17.99c1.8 10.2 5.4 38.38 7.2 62.97 3.6 43.78 3 46.78-15.59 80.36l-19.79 34.18 3.6 85.16c3 74.96 5.4 91.16 21.59 136.13 10.2 28.19 18.59 56.97 18.59 63.57 0 16.19 7.8 22.19 46.78 37.78 39.58 15.59 90.56 11.99 95.35-6 1.8-6.6 6.6-11.39 11.39-11.39 9 0 6.6-8.4-19.19-64.77-14.39-30.59-15.59-41.38-15.59-103.15-.6-116.34 22.19-146.33 119.34-161.92 22.19-3.6 53.37-4.8 68.97-3 23.39 3.6 31.18 1.8 46.18-9.6 10.2-7.8 18.59-18.59 18.59-24.59 0-11.39 14.39-43.18 25.79-57.57 14.99-19.19 42.58-115.14 58.17-206.3 3-15.59 9.6-44.98 14.39-65.37 5.4-19.79 9.6-44.38 9.6-53.97 0-16.79 1.2-17.39 26.99-17.39 23.39 0 26.99 1.8 30.59 14.39 4.2 17.39-17.39 146.93-37.18 223.69-16.19 62.97-17.39 74.36-7.2 84.56 4.8 4.8 10.2 4.8 22.19-1.8 47.38-24.59 160.12-42.58 214.7-33.58 40.78 6.6 85.16 24.59 97.75 38.98 4.2 6 8.4 23.39 8.4 38.38l.6 28.19-28.19 1.8c-17.39 1.2-28.79-.6-28.79-4.2s-11.39-13.79-24.59-22.79c-40.18-26.39-104.35-22.79-200.3 11.99-25.19 9-105.55 60.57-122.34 78.56l-13.79 14.39 12.59 6.6c10.2 6 12.59 12.59 12.59 36.58v29.99h-23.99c-14.99 0-39.58-7.8-67.17-21.59-92.96-44.98-158.92-20.39-175.12 64.77-3 17.39-.6 31.18 11.39 59.97 32.98 79.16 45.58 128.34 43.78 167.92l-1.8 37.78-20.99 1.8c-20.39 1.8-21.59 3-39.58 50.98-17.99 47.38-18.59 51.58-11.99 86.36 3.6 20.39 9.6 40.18 12.59 43.18 9.6 9.6 180.51 15.59 203.3 6.6zm-409-859.99c2.4-12.59 1.8-13.79-8.4-7.8-12.59 8.4-14.39 22.19-2.4 22.19 4.2 0 9.6-6.6 10.79-14.39zm8.4-255.48c0-29.99-1.8-53.97-4.8-53.97-6 0-25.19 43.18-31.18 70.17-2.4 10.2-2.4 25.19-.6 33.58 3.6 13.79 6 14.39 20.39 9.6 15.59-5.4 16.19-6.6 16.19-59.37zm-788.02-515.75c39.58-115.74 46.78-144.53 46.18-197.9 0-59.37-13.79-136.73-28.19-155.33-17.99-24.59-36.58-22.79-68.37 6.6-25.79 23.99-41.38 46.78-49.18 72.57-4.2 12.59-49.18 14.39-66.57 1.8-25.79-17.39-36.58-16.79-55.77 3-34.78 35.38-46.78 102.55-28.19 155.92 24.59 70.77 38.38 89.36 95.95 128.34 23.39 15.59 46.78 32.98 52.77 37.78 17.99 16.19 54.57 35.98 62.97 35.38 4.8-.6 20.99-37.78 38.38-88.16zm1120.26-391.61c35.38-4.2 103.75-21.59 110.95-28.79 3-3 16.79-5.4 31.18-5.4 25.79 0 31.18-4.2 19.19-16.19-3-3-5.4-17.99-4.2-32.38 1.8-25.19 3-26.39 21.59-28.19 11.39-1.2 26.39 2.4 34.18 7.2 17.99 11.99 38.98 11.99 64.77 1.2 18.59-7.8 27.59-22.79 43.78-73.76 1.2-4.8 12.59-7.8 29.39-7.8h26.99v28.79c0 28.79 0 29.39 30.59 46.18 69.57 37.78 143.33 14.39 179.31-57.57 12.59-23.99 21.59-35.38 29.39-35.38 6.6 0 14.39-7.2 19.19-19.19 4.2-10.2 16.79-30.59 26.99-44.38 20.39-26.39 20.99-41.38 3-72.57-5.4-9-6-8.4-6.6 7.8 0 11.39-6.6 25.19-17.99 38.38-9.6 10.79-17.99 23.99-17.99 28.79 0 9.6-20.39 39.58-38.98 58.17-28.79 28.79-88.76 40.78-146.33 29.39-26.39-5.4-48.58-28.19-48.58-50.38v-17.99l-22.19 9.6c-16.79 6.6-31.78 8.4-55.77 5.4-54.57-6.6-59.37-9-76.76-38.38-15.59-26.39-16.19-31.18-15.59-102.55.6-61.77 2.4-79.76 12.59-101.95 7.2-14.99 16.19-35.98 20.39-46.18 6.6-15.59 11.99-19.79 24.59-19.79 9.6 0 16.79-1.8 16.79-4.2s-11.99-15.59-26.99-29.99c-21.59-20.39-26.99-29.39-26.99-45.58 0-23.39 7.2-28.19 38.98-28.19 15.59 0 24.59 5.4 43.18 25.19 12.59 13.79 36.58 38.98 53.37 55.77l31.18 29.99.6 83.96c0 46.18 1.8 97.75 4.2 115.14 3.6 29.39 4.8 31.18 22.79 32.98s18.59 3 20.39 30.59c1.8 23.99 4.2 29.39 16.79 34.18 31.18 11.99 78.56-24.59 92.96-71.37 6-20.99 5.4-25.79-9-50.38-19.19-32.98-49.18-53.97-64.17-45.58-14.99 7.8-49.78 6.6-58.17-1.8-7.8-7.8-9.6-40.18-2.4-50.38 5.4-7.8 40.78-20.39 58.17-20.39 7.8 0 14.99-4.2 17.39-9 1.8-4.8.6-9-2.4-9-3.6 0-6-13.19-6-29.39 0-27.59 2.4-32.38 31.78-64.77 17.99-19.19 39.58-46.18 48.58-59.97 14.39-23.39 17.99-25.79 39.58-25.79h23.99v25.79c0 19.19-5.4 32.98-20.99 56.97l-21.59 31.18h20.99 20.39l4.2 39.58c7.2 61.77 11.99 46.78 33.58-96.55 7.2-46.78 4.2-88.16-7.8-111.55-4.2-8.4-23.99-31.18-43.18-50.98-33.58-33.58-35.38-34.78-40.18-21.59-4.2 10.79-9.6 13.19-28.79 13.19h-23.99l-6.6-34.18c-9-41.98-15.59-52.77-40.18-68.37-13.19-8.4-19.79-17.39-19.79-25.79 0-14.39-11.39-26.99-35.38-39.58-17.99-9-14.39-3 22.79 41.98 53.97 64.17 66.57 86.36 66.57 116.34v27.59h-23.99c-17.39 0-23.99 2.4-23.99 9s-7.2 9-29.39 9c-23.99 0-29.99-1.8-32.38-11.99-2.4-9-8.4-11.99-21.59-11.99-16.79 0-18.59 1.8-18.59 17.99 0 16.79-1.2 17.99-23.99 17.99-13.19 0-23.99-1.8-23.99-4.8 0-2.4-6-10.79-13.19-19.19-7.8-8.4-20.39-25.19-28.79-37.18-13.19-19.79-17.99-22.79-37.78-22.79h-22.79l10.79 14.99c6 7.8 13.19 14.99 16.79 14.99 3 0 15.59 10.2 28.19 22.19 18.59 17.99 22.79 26.39 22.79 44.98 0 22.19-.6 22.79-22.19 22.79-23.39-.6-42.58-12.59-92.36-61.77-19.79-18.59-23.39-26.39-23.39-46.18 0-22.19 1.2-23.99 16.79-24.59 23.99-.6-86.96-35.38-113.95-35.38-11.99 0-23.99-2.4-25.79-6-1.8-3-22.19-6-45.58-6h-41.38v40.78c0 26.39-4.2 48.58-11.99 65.97l-11.39 25.19h16.79c15.59 0 19.19-4.8 38.38-44.98 11.99-24.59 24.59-44.98 28.19-44.98 3 0 6-4.2 6-9 0-6.6 7.2-9 26.99-9h26.99v22.19c0 14.99-7.8 34.18-23.99 61.77-29.39 47.98-52.77 114.54-57.57 160.72-3 26.99-.6 40.18 9 62.97 7.2 16.79 12.59 41.98 12.59 58.77v29.99l-24.59-1.8c-23.99-1.8-25.19-3-36.58-33.58-6.6-17.39-12.59-31.18-13.79-29.99-1.2 1.2 1.8 20.99 7.2 43.78 4.8 23.39 10.2 56.37 11.99 73.76l3 31.78-28.79-1.8c-26.99-1.8-28.79-3-33.58-21.59-3.6-12.59-10.2-21.59-19.79-25.19-10.79-4.2-14.99-10.2-14.99-20.99 0-7.8-2.4-26.39-6-40.18l-9-41.98c-3-14.99-6-16.79-27.59-16.79-18.59 0-29.39-4.2-44.98-17.39-17.99-16.19-21.59-17.39-38.98-10.79-63.57 23.39-109.75 180.51-73.76 250.08 10.2 20.39 56.37 65.97 66.57 65.97 10.79 0 58.17-27.59 67.77-38.98 10.2-11.99 45.58-11.39 50.38.6 9.6 24.59 3.6 44.98-18.59 65.97-28.19 25.79-43.18 32.38-77.36 32.38-14.39 0-26.39 3-26.39 6 0 3.6 9.6 30.59 20.99 59.97 11.39 29.39 20.99 56.37 20.99 59.97s16.19 6 37.78 6c58.77 0 80.36 9 120.54 48.58 23.39 23.99 37.18 33.58 41.98 29.99 3.6-3 18.59-6.6 33.58-8.4zm1569.44-110.95c31.18-32.98 37.18-43.18 26.39-43.18-14.99 0-108.55 142.13-108.55 164.92.6 3.6 11.39-14.99 25.19-40.78 13.79-25.79 38.98-62.37 56.97-80.96zm-759.83-25.19c0-7.2-4.8-7.2-20.99 0-10.79 4.8-10.2 5.4 4.8 5.4 9 .6 16.19-1.8 16.19-5.4zm216.5-11.99c31.18-6 65.97-14.99 77.36-18.59 26.99-9 79.16-45.58 95.95-67.17 11.99-14.99 11.99-16.19 1.8-16.19-25.19 0-37.18 7.2-38.98 23.39-1.8 14.99-3 15.59-58.77 20.99-38.98 3.6-66.57 3.6-88.76-1.2-30.59-6.6-34.78-6-86.96 14.99-29.99 11.99-50.38 23.39-45.58 24.59 4.2 1.8 17.99 7.2 29.39 11.99 17.99 8.4 39.58 15.59 54.57 18.59 1.8 0 28.79-4.8 59.97-11.39zm-270.47-42.58c14.99-5.4 31.18-11.99 35.98-13.19 4.8-1.8 1.8-3.6-7.2-3.6-14.99-.6-16.19-3-17.99-26.99l-1.8-26.99-27.59 25.19c-15.59 13.79-32.38 34.18-37.78 44.38l-9.6 19.79 19.19-4.2c10.79-1.8 31.78-8.4 46.78-14.39zm107.95-44.38c12.59-7.2 13.19-8.4 3.6-9-9.6 0-10.79-3.6-8.4-31.18 1.8-17.39 5.4-36.58 7.8-43.18 3.6-8.4 3-10.79-3.6-8.4-4.8 1.8-10.2 14.99-11.99 32.38-2.4 16.19-6 38.38-8.4 49.18-4.8 20.99-1.2 22.79 20.99 10.2zm77.96-31.18c74.96-31.78 77.96-33.58 77.96-47.98 0-7.8 4.2-23.99 9-35.98 4.8-11.39 9-22.79 9-23.99 0-6.6-61.77 41.98-82.76 64.77-22.19 24.59-42.58 56.97-32.98 52.17 2.4-1.2 11.39-5.4 19.79-9zm266.87-123.54c15.59-9 29.39-16.19 31.18-16.19 1.2 0 29.39-13.19 62.97-29.99 44.38-22.19 67.17-29.99 86.36-29.99 22.19 0 26.39 1.8 26.39 11.99 0 9 4.2 11.99 17.39 11.99s17.99 3 19.79 12.59c1.2 10.2 7.2 6 34.18-26.99 17.39-22.19 30.59-41.98 28.19-43.78-1.8-2.4-22.19-.6-44.38 3l-115.14 19.19c-77.96 12.59-191.91 45.58-191.91 54.57 0 3-7.2 16.19-15.59 29.39-11.99 18.59-19.79 23.99-32.38 23.99-13.19 0-17.99 3.6-23.39 18.59-3.6 10.79-6.6 19.79-6.6 20.99 0 2.4 87.56-40.18 122.94-59.37zm160.72 33.58 19.19-10.79-20.99-1.8c-11.39-1.2-23.99-4.8-27.59-7.8-4.8-4.2-18.59-.6-40.78 10.2-18.59 8.4-33.58 16.79-33.58 17.99s19.19 2.4 41.98 2.4c29.39 0 48.58-3.6 61.77-10.2zm-1531.06-301.06v-41.98l-56.97-1.8-56.97-1.8-11.99 28.19c-6.6 15.59-11.99 28.79-11.99 29.99s20.99 1.2 46.18 0c42.58-1.8 48.58-.6 67.17 13.19 11.39 8.4 21.59 15.59 22.79 15.59s1.8-18.59 1.8-41.38zm444.38 1451.91c-11.39-9-13.19-14.99-11.39-49.18l1.8-38.98 25.79-1.8c21.59-1.8 28.19.6 43.18 16.19 21.59 21.59 25.19 58.17 7.2 74.36-14.39 13.19-50.38 13.19-66.57-.6zm231.49-341.24c-5.4-4.8-5.4-69.57-.6-82.16 2.4-6.6 11.39-9.6 28.79-9.6 22.79 0 25.79 1.8 32.38 19.79 7.8 21.59 9.6 51.58 3.6 66.57-2.4 7.2-11.99 9.6-31.78 9.6-15.59 0-30.59-1.8-32.38-4.2zm-407.81-83.96c-2.4-1.8-4.2-23.39-4.2-47.38v-43.78l20.39-4.2c11.39-1.8 28.79-1.8 38.98.6 17.99 3.6 18.59 4.8 18.59 39.58 0 50.98-6 59.37-41.38 59.37-15.59 0-30.59-1.8-32.38-4.2zm-407.8-694.47c-15.59-15.59-9.6-82.16 8.4-93.55 4.8-2.4 1.8-7.8-9-14.39-13.79-9.6-15.59-13.79-15.59-47.38 0-56.37 19.19-72.57 81.56-68.37l29.39 1.8 1.8 25.19c1.8 23.39.6 25.79-14.99 29.39l-22.79 4.8c-3 1.2 3 6.6 13.79 11.99 19.79 10.2 20.39 11.39 17.99 43.18-1.8 31.78-1.8 32.38 14.99 32.38 14.99 0 16.19 1.8 16.19 26.99 0 26.99-.6 27.59-28.19 39.58-41.38 17.99-80.96 21.59-93.55 8.4zm-124.14 12c0-31.18-2.4-56.97-5.4-56.97s-11.39-15.59-19.19-34.18c-11.39-28.19-14.39-45.58-14.39-91.76 0-54.57 1.2-60.57 23.99-107.95 12.59-28.19 26.99-54.57 31.18-58.77 4.8-4.8 11.99-16.19 16.79-25.79 9-16.79 32.98-34.78 32.98-24.59 0 3-5.4 10.2-11.39 16.19-10.79 9-54.57 77.96-54.57 84.56 0 1.2-6 15.59-13.19 31.18-11.99 23.99-13.79 38.38-13.79 94.75 0 63.57 5.4 86.36 20.99 86.36 2.4 0 6-22.19 8.4-49.18 7.8-101.95 28.19-185.91 46.78-197.31 11.99-7.2 11.39-3-1.2 21.59-6.6 13.19-11.99 27.59-11.99 32.98 0 5.4-2.4 11.99-5.4 15.59-10.79 10.79-23.39 151.73-22.19 245.88 0 40.78-1.2 74.36-3.6 74.36-3 0-4.8-25.79-4.8-56.97z"/>
<path id="fill_heart" d="m599.71 2260.91c-3.6-6.6-10.2-11.99-14.99-11.99-9.6 0-48.58-20.99-65.97-35.98-6.6-6-30.59-23.39-53.97-38.98-49.18-33.58-58.77-43.78-77.36-83.96-23.39-49.18-29.39-75.56-29.39-118.14 1.2-78.56 34.78-136.73 79.16-136.73 11.99 0 32.38 5.4 44.98 12.59 24.59 13.19 39.58 11.39 39.58-3.6 0-23.39 47.38-76.76 85.76-96.55 15.59-8.4 19.19-8.4 37.78.6 11.39 5.4 24.59 16.19 29.99 23.99 23.39 35.98 34.78 200.9 17.99 266.87-14.39 55.77-76.76 233.89-82.16 233.89-3 0-7.8-5.4-11.39-11.99z"/>
<g id="fill_devil">
<path d="m1703.18 3793.77c-50.98-3.6-95.95-8.4-99.55-10.79-6.6-4.2-11.99-29.99-17.99-82.76-2.4-22.19 1.8-39.58 23.39-95.95 14.39-37.78 29.39-69.57 32.98-70.77 3.6-1.2 7.2 5.4 8.4 14.99 2.4 22.79 13.19 20.99 15.59-3 1.8-20.39-16.79-85.76-44.38-151.13-13.19-32.38-15.59-44.38-12.59-74.96 7.8-81.56 36.58-107.35 121.14-106.75 42.58 0 52.77 2.4 91.76 22.19 50.38 25.19 55.17 25.79 55.17 9.6 0-7.8-8.4-16.19-23.99-23.99-13.19-6.6-23.99-14.39-23.99-16.79 0-13.79 120.54-99.55 158.92-113.35 65.37-23.39 92.96-28.79 149.93-28.79 52.17 0 62.97 1.8 82.16 13.79 12.59 7.8 25.19 18.59 28.19 23.39 7.2 13.79 24.59 5.4 20.39-9.6-4.2-17.39-18.59-28.19-55.77-42.58-61.77-23.99-149.93-14.39-244.08 28.19-35.38 15.59-37.78 16.19-37.78 7.8 0-3.6-6-14.39-12.59-23.39-7.2-9.6-10.79-20.39-9-23.99 4.2-6.6 31.78-110.35 36.58-138.53 26.99-150.53 26.99-149.93 11.39-149.93-5.4 0-8.4 6.6-8.4 17.39 0 9.6-4.2 34.18-9.6 53.97-4.8 20.39-11.39 49.78-14.39 65.37-15.59 91.16-43.18 187.11-58.17 206.3-11.39 14.39-25.79 46.18-25.79 57.57s-24.59 32.98-46.18 39.58c-6.6 2.4-23.39 1.8-36.58-1.2-29.39-6.6-83.36 1.2-116.94 16.79-36.58 17.39-52.77 56.37-52.77 126.54 0 44.38 2.4 57.57 17.39 89.96 32.38 71.37 36.58 95.35 16.79 95.35-4.8 0-9.6 5.4-11.39 11.39-2.4 9-10.79 12.59-42.58 15.59-46.18 4.8-68.37 1.2-105.55-16.79-23.99-11.99-26.99-16.19-32.98-43.18-3.6-16.19-12.59-45.58-19.79-64.77-16.79-44.98-19.79-68.97-20.39-164.92 0-78.56.6-79.76 19.19-113.35 19.79-34.78 20.39-39.58 8.4-97.75-2.4-11.39-4.8-30.59-4.8-41.98l-.6-20.99 53.97-.6c57.57-.6 106.15-11.39 143.93-31.78 13.19-7.2 26.99-12.59 30.59-12.59 10.2 0 50.38-49.18 64.17-79.16 15.59-32.98 14.99-32.38 25.79-106.75l11.99-80.96c2.4-9.6 4.8-40.78 6-68.97 1.8-55.77 3-56.97 40.78-37.78 12.59 6.6 18.59 7.2 23.99 1.8 9-9-5.4-19.79-50.38-37.18-35.98-13.79-37.18-14.99-97.75-104.95l-71.97-105.55c-19.19-27.59-35.98-59.37-37.78-70.77l-3.6-20.39 55.17-26.39c30.59-14.39 63.57-33.58 73.76-42.58 10.79-9 25.19-19.19 32.98-23.39 7.2-3.6 13.19-10.79 13.19-15.59 0-14.39-22.19-10.2-43.18 7.8-50.38 43.18-145.73 85.16-193.11 85.16-32.98 0-89.36-22.19-125.94-50.38s-55.77-37.78-86.96-44.98c-22.19-4.8-24.59-4.2-24.59 6 0 7.2 6 12.59 16.79 14.99 22.19 5.4 45.58 18.59 85.76 47.98 18.59 13.79 44.38 28.19 56.97 32.98 12.59 4.2 34.18 12.59 47.98 18.59 13.19 6 26.99 10.79 30.59 10.79 18.59 0 94.75 92.96 98.95 119.94.6 7.8 9 18.59 17.99 23.39 9 5.4 27.59 26.99 41.38 48.58s35.98 55.17 49.78 74.96c20.39 29.99 24.59 41.38 26.39 71.97 1.2 19.79-.6 52.17-4.2 71.97-4.2 19.79-8.4 58.77-10.79 86.96-3.6 56.37-25.19 114.54-54.57 145.73-31.18 32.98-109.15 64.17-166.12 65.97-26.39 1.2-29.99 0-29.99-10.79 0-7.8 10.2-18.59 28.19-29.99l70.17-44.38c48.58-31.18 67.77-59.97 77.96-118.14 5.4-29.99 5.4-40.18-2.4-57.57-4.8-11.99-10.2-42.58-11.39-67.77-3.6-49.18-6.6-59.37-15.59-44.98-7.2 11.39-3 103.15 5.4 118.74 13.79 26.39 1.2 83.96-26.39 116.34-16.19 19.79-59.97 50.38-92.36 64.77-25.19 11.39-60.57 42.58-60.57 53.97 0 16.79-12.59 22.79-34.18 16.79-20.99-5.4-29.99-23.99-23.39-45.58 4.8-14.39 16.79-19.79 90.56-43.18 84.56-26.39 135.53-64.77 125.94-95.35-4.8-14.99-14.99-16.79-14.99-3 0 11.99-38.98 50.38-50.98 50.38-4.2 0-9 2.4-10.2 4.8-.6 3-25.79 12.59-55.77 21.59-71.37 20.99-92.36 32.38-106.15 57.57-11.99 22.19-18.59 23.39-35.98 7.8-25.19-22.79-3-60.57 42.58-74.36 13.19-4.2 24.59-9.6 24.59-12.59 0-3 2.4-4.2 6-1.8 7.8 4.8 82.16-8.4 106.15-18.59 10.2-4.8 28.79-21.59 40.18-37.78 20.99-28.79 26.39-44.98 16.79-50.98-7.2-4.2-14.99 3-28.19 28.19-16.19 29.39-40.78 42.58-107.95 54.57l-65.97 13.19c-23.39 6 16.19-20.39 50.98-34.18 67.77-25.79 101.95-47.38 101.95-62.97 0-22.79 15.59-55.77 26.99-57.57 7.2-1.2 11.99-6.6 11.99-13.79 0-9-4.2-11.99-16.19-11.99-17.99 0-46.78-25.79-46.78-41.98 0-4.8-2.4-9-4.8-9-3 0-17.39-7.8-31.78-17.99-24.59-16.19-30.59-17.99-79.76-17.99-29.39 0-61.77-2.4-71.97-5.4-10.2-3.6-34.78-10.2-54.57-15.59-59.37-16.19-140.33-50.38-176.91-74.96-8.4-6-25.19-13.79-37.78-17.99-15.59-4.8-27.59-14.39-37.18-30.59-8.4-12.59-14.99-24.59-14.99-25.79 0-1.8 7.2-2.4 16.19-1.8 11.39.6 16.79-1.8 18.59-9 1.8-8.4-1.8-10.79-15.59-10.79-9.6 0-23.39-5.4-31.18-11.99-7.2-6.6-15.59-10.2-17.99-9-7.2 4.8-29.99-35.38-29.99-52.17 0-16.19 11.39-28.79 38.98-41.38 11.99-6 17.99-13.19 18.59-22.79.6-7.8 5.4-16.79 10.79-19.79 5.4-3 9.6-11.39 9.6-19.19 0-17.99 32.98-79.76 56.37-104.95 18.59-20.39 44.98-41.38 190.11-151.73 5.4-4.2 34.18-30.59 63.57-58.77 51.58-49.78 89.96-77.96 106.15-77.96 4.2 0 12.59-6 19.19-12.59 9-10.79 39.58-28.19 56.37-32.38 22.19-6 77.96-9.6 100.15-6 24.59 3.6 34.18 10.2 73.76 47.38 48.58 46.78 88.76 76.76 97.15 71.97 10.79-7.2 3.6-20.99-20.39-37.18-14.39-9.6-43.18-35.38-64.77-56.97-43.78-43.78-64.17-52.17-124.14-52.17-21.59 0-37.78-2.4-37.78-6s-9-29.99-20.39-58.77c-10.79-28.79-21.59-63.57-23.99-77.36l-3.6-25.79h29.39c37.18 0 52.17-6 79.76-32.38 14.99-13.79 21.59-23.99 19.19-30.59-3.6-8.4-5.4-8.4-16.79 1.8-26.99 23.99-56.37 37.18-82.76 37.18-23.39 0-29.99-3-52.17-25.79-14.39-13.79-29.39-32.38-34.18-41.38-19.19-37.18-15.59-136.73 7.8-200.9 29.99-81.56 94.75-115.14 141.53-73.76 22.19 19.19 34.18 22.79 34.18 10.79 0-11.99-7.8-21.59-29.99-37.78-30.59-22.19-62.37-20.39-101.95 6-17.39 11.99-32.98 20.39-34.18 18.59-1.2-1.2 3.6-20.99 11.39-43.18l13.79-44.38c.6-1.8 6.6-14.99 14.39-28.79 11.99-23.99 14.99-25.79 29.39-21.59 22.79 6.6 64.77 8.4 102.55 4.2 27.59-3 35.98-7.2 56.37-27.59 33.58-33.58 48.58-70.17 43.78-108.55-5.4-45.58 2.4-50.98 67.17-47.38 28.79 1.8 54.57 5.4 57.57 8.4 3.6 3 14.99 5.4 26.39 5.4 23.99 0 116.34 26.99 140.33 40.78 9 5.4 17.99 7.8 20.39 6 17.39-17.39-94.15-62.97-168.52-68.97-19.79-1.2-45.58-5.4-56.97-8.4s-28.19-5.4-37.18-5.4c-9 0-17.99-3-20.39-7.2-3-4.2-1.2-5.4 4.8-3 5.4 1.8 14.39-.6 20.99-4.8 6-4.8 16.79-9 24.59-9s22.19-4.2 31.78-9.6c10.2-4.8 19.79-7.8 22.19-6 1.8 1.8.6 3.6-3 3.6-7.8 0-14.99 16.79-10.2 24.59 2.4 3.6 6.6 3.6 11.39-.6 13.79-11.39 47.38-7.8 92.96 10.79 91.76 37.18 95.35 39.58 125.94 82.76 16.19 22.79 35.98 49.18 43.18 58.77 7.8 9.6 15.59 20.39 17.99 23.99s5.4 4.8 7.2 3c1.8-1.2-3.6-13.19-11.39-26.39-7.8-13.19-25.79-46.78-40.18-74.96-27.59-56.37-30.59-59.37-73.76-82.16-25.19-13.79-27.59-16.79-16.79-18.59 28.19-4.2 137.93 63.57 130.74 80.96-3 8.4 43.78 84.56 52.77 85.16 9.6 1.2 3-17.39-16.79-46.78-11.99-16.79-18.59-30.59-15.59-30.59 10.79 0 48.58 44.98 62.37 73.16 8.4 18.59 16.79 28.19 24.59 28.79 9 0 10.2-3 6.6-16.19-13.79-58.17-157.72-176.91-231.49-191.91-9.6-1.8-17.39-6-17.39-8.4 0-3 6-4.2 13.79-3 11.39 2.4 35.38 6.6 73.16 13.19 32.98 5.4 70.77 23.99 89.96 43.78 29.39 30.59 76.16 88.76 95.35 119.34 8.4 13.79 18.59 25.19 21.59 25.19 19.19 0-7.2-44.98-74.36-125.34-38.38-46.18-64.77-64.77-111.55-77.36-39.58-11.39-121.14-19.79-157.72-16.79-31.18 3-34.18 2.4-19.19-3 10.2-3.6 47.38-7.2 83.96-8.4 41.38-1.2 66.57-4.2 67.77-8.4 1.2-3.6-1.2-6.6-5.4-6.6s-6-1.2-4.2-3c9-9 69.57 10.79 139.73 46.18 61.17 30.59 75.56 41.98 71.97 56.97-2.4 9.6 1.8 15.59 16.79 25.19 24.59 15.59 31.18 26.39 40.18 68.97 4.2 20.99 9.6 33.58 13.79 31.78 7.8-2.4 8.4-17.99 1.8-38.38s4.8-17.39 43.18 12.59c36.58 28.19 70.17 62.97 84.56 87.56 10.79 18.59 14.39 121.14 6 164.92-26.39 133.74-28.19 187.11-7.8 234.49l17.39 41.98c9 21.59 9 21.59-11.39 44.98-11.39 12.59-26.99 34.18-34.18 48.58-13.79 26.99-22.79 35.98-30.59 31.18-2.4-1.8-12.59 13.19-22.19 32.98-28.19 55.17-64.77 75.56-134.94 75.56-43.78-.6-52.77-2.4-81.56-19.19-32.98-18.59-32.98-18.59-31.78-46.18.6-20.39-1.2-27.59-7.8-27.59-4.8 0-9.6 3.6-10.79 7.8-16.19 50.98-25.19 65.97-43.78 73.76-26.99 11.39-82.76 10.79-100.75-1.2-13.79-9-14.99-9-18.59.6-8.4 20.99 11.99 29.99 71.97 30.59 90.56.6 91.76 16.79 1.8 26.99-98.35 10.2-115.14 13.19-121.14 17.99-9 6.6-79.16 23.99-112.15 27.59-15.59 1.8-31.18 6.6-34.78 10.79-14.99 17.99 0 21.59 79.76 20.39 82.16-1.8 103.75 3 123.54 26.99 9.6 11.39 24.59 12.59 25.19 2.4.6-11.39 4.2-28.79 7.8-37.78 3-8.4 56.97-21.59 92.36-23.39 10.79-.6 22.19-4.8 25.19-9 4.2-7.8 9-7.2 30.59 3 19.79 8.4 39.58 11.39 80.36 11.39 80.96 0 101.95-13.19 130.14-84.56 9-23.39 64.77-59.37 84.56-54.57 34.18 7.8 76.76 20.99 80.36 24.59 7.8 7.8-19.79 97.75-40.18 129.54-3 4.8-10.79 19.79-16.79 32.98-8.4 17.39-22.79 31.78-52.77 52.17-39.58 26.39-43.78 27.59-95.35 31.18-29.39 1.8-64.77 4.8-77.96 6.6l-68.97 9c-24.59 3-78.56 4.8-119.94 3-60.57-2.4-84.56-6.6-125.94-19.79-50.38-16.79-71.97-18.59-71.97-4.8 0 8.4 17.99 15.59 83.96 35.38 44.98 13.19 62.37 14.99 144.53 15.59 58.77 0 106.15-3 128.94-8.4 19.19-4.2 47.38-8.4 62.37-8.4 35.38 0 95.95-6 110.95-10.2 6.6-2.4 18.59-9.6 26.99-17.39 24.59-22.19 32.38-21.59 70.17 2.4 38.98 25.79 93.55 46.78 133.74 52.17 26.39 3 42.58-1.2 116.94-29.99 13.19-4.8 32.38-9 41.98-9 19.79-.6 66.57 12.59 87.56 23.99 15.59 7.8 157.72 12.59 176.91 5.4 6.6-3 16.19-2.4 20.99.6 7.2 4.8 7.2 6-.6 11.39-6.6 4.2-6.6 6-1.2 6 4.2 0 9-4.2 10.79-9 2.4-4.8 9-9 15.59-9 9.6 0 10.79 1.8 5.4 7.8-10.79 13.79-.6 16.19 12.59 3 6.6-6.6 18.59-11.39 27.59-10.79 39.58 3 49.18.6 49.18-12.59 0-7.2-4.8-13.79-11.39-15.59-9-2.4-13.19-11.99-18.59-45.58-14.99-87.56 14.99-222.49 53.37-242.28 8.4-3.6 16.79-6 19.19-4.8 1.8 1.8-8.4 41.38-22.79 88.16-26.99 86.36-35.38 142.13-21.59 146.93 4.2 1.8 8.4-6 10.79-20.39 1.8-12.59 9-41.38 15.59-64.77l18.59-65.97c23.99-88.76 42.58-127.74 62.97-132.54 31.18-7.8 32.98 1.2 7.8 37.18-13.19 19.19-23.99 36.58-23.99 39.58s-6.6 14.99-13.79 27.59c-26.39 41.38-62.37 169.12-54.57 190.11 7.2 17.99 19.19-3 23.39-38.98 2.4-19.79 6.6-37.78 9.6-39.58s5.4-9.6 5.4-17.39c0-23.99 63.57-140.93 94.75-175.12 32.98-36.58 53.37-42.58 65.37-19.79 12.59 24.59 9.6 32.98-26.99 70.17-37.18 38.38-83.36 117.54-107.95 187.71-20.39 56.97-22.19 65.97-11.99 65.97 9.6 0 18.59-15.59 28.79-50.98 14.99-49.78 69.57-146.33 103.15-182.91 20.39-22.19 38.98-20.39 47.38 4.8 10.79 31.78 1.2 85.16-25.19 149.93-37.78 89.96-49.78 118.14-53.37 121.14-26.99 24.59-89.96 144.53-89.96 170.32 0 8.4 7.2 30.59 15.59 49.18 30.59 67.77 32.38 133.74 4.8 191.91-13.19 27.59-43.78 42.58-67.77 32.38-19.79-7.8-24.59-22.19-18.59-60.57 5.4-38.38-3-67.77-29.99-107.95-23.39-33.58-23.39-35.38-11.99-41.38 13.79-7.8 16.19-17.99 3-17.99-4.8 0-22.79 6.6-40.18 14.39-35.38 15.59-191.91 67.77-264.47 87.56-25.79 7.2-70.17 14.39-98.95 15.59-45.58 3-56.37 1.2-86.36-11.39-28.19-11.39-46.18-14.39-101.95-15.59-67.77-1.2-82.76-6-82.76-23.99 0-5.4-5.4-26.99-11.99-48.58-7.2-21.59-18.59-62.97-26.39-92.96-21.59-82.76-36.58-112.15-47.38-94.15-1.8 2.4 3.6 23.99 11.39 47.98 13.79 39.58 23.39 77.96 29.39 113.35 1.2 7.2 7.8 30.59 14.39 50.98 7.2 21.59 13.79 60.57 15.59 92.36 2.4 46.18.6 68.97-10.79 128.34-1.2 4.8-4.8 15.59-8.4 23.99s-9.6 25.79-13.19 38.98c-9.6 31.78-43.78 119.34-47.98 122.94-1.8 1.8-13.79 23.99-26.99 49.78-12.59 25.19-26.39 46.18-31.18 46.18-4.8 0-8.4-3-8.4-6.6 0-3-3-4.2-6.6-1.8-9 5.4 0 75.56 23.39 179.31 15.59 68.37 16.79 72.57 56.97 173.92 37.18 95.35 38.98 100.15 42.58 128.94 1.2 11.39 7.2 43.18 12.59 70.77 9 44.98 9.6 51.58.6 72.57-9 23.39-35.38 54.57-45.58 54.57-2.4 0-6 1.8-7.2 4.8-.6 2.4-20.39 13.19-43.78 24.59-22.79 11.39-48.58 25.19-56.97 31.18-16.19 10.79-114.54 40.18-149.93 44.98-11.39 1.2-28.19 5.4-36.58 9-20.39 8.4-148.13 3.6-166.12-6-11.99-6.6-13.19-10.2-9-29.39 7.2-34.78 6-80.96-2.4-83.36-5.4-1.8-7.8 5.4-7.8 23.39-.6 14.39-4.8 36.58-9.6 49.78-5.4 13.19-9.6 28.19-9.6 32.98 0 4.8-6 17.39-13.79 26.99-7.2 10.2-19.19 29.99-27.59 44.38-7.8 14.99-20.99 32.98-28.79 41.38-11.99 11.99-13.79 17.99-10.2 41.98 1.8 14.99 7.8 33.58 12.59 41.38 11.39 17.39 32.98 18.59 32.98 1.8 0-14.39 16.79-23.99 41.38-23.99 13.79 0 24.59 6.6 42.58 24.59 47.98 49.18 37.18 92.36-23.39 96.55-18.59 1.8-21.59 0-26.39-17.39-7.8-26.99-22.19-25.79-22.19 1.2 0 34.78-25.19 39.58-155.92 30.59zm386.21-1268.39c8.4-9 9-14.39 3.6-23.99-8.4-16.19-33.58-32.98-41.98-27.59-11.39 7.2-7.2 43.78 7.2 53.37 16.79 11.99 18.59 11.99 31.18-1.8zm227.89-346.03c4.8-12.59-8.4-50.38-17.99-50.38-3.6 0-9 4.2-10.79 9.6-4.8 12.59-4.8 41.38.6 46.18 7.2 7.8 24.59 4.2 28.19-5.4zm-404.21-85.76c10.2-19.19 7.8-47.38-4.2-49.78-23.99-5.4-31.78 1.8-31.78 27.59 0 14.39 1.8 27.59 4.2 29.39 7.8 8.4 25.79 4.2 31.78-7.2zm349.03-296.86c10.79-4.8 25.19-9.6 31.18-10.79 6.6-1.2 12.59-5.4 14.39-10.2 3-8.4-10.79-7.8-76.16 4.8-37.18 7.2-39.58 8.4-34.18 22.19 4.2 11.39 31.78 9 64.77-6zm26.99-247.68c32.98-15.59 73.76-60.57 73.76-80.96 0-4.8 8.4-17.99 17.99-28.79 16.19-17.99 17.99-23.99 17.99-61.17 0-46.18-10.2-122.34-17.99-137.33-3-5.4-3.6-16.19-1.8-23.39 4.8-18.59-3.6-14.39-38.38 17.99-15.59 14.99-35.98 30.59-44.98 34.18-9.6 4.2-16.79 11.99-16.79 17.39 0 7.2-4.2 9-15.59 6.6-19.19-3.6-54.57 7.2-58.77 17.39-4.8 12.59 11.99 22.19 25.79 14.99 31.78-17.39 74.36 1.8 98.95 44.38 46.18 78.56-19.79 178.71-106.75 162.52-27.59-5.4-35.98-16.79-31.18-41.98 4.8-24.59-6-35.38-18.59-18.59-13.19 18.59-9.6 49.78 7.8 65.97 24.59 22.79 72.57 27.59 108.55 10.79zm-148.13-79.16c9-18.59 8.4-164.92-.6-181.71-3-6-21.59-18.59-41.38-28.79-19.19-9.6-36.58-20.39-38.98-23.99-7.8-12.59-23.99-5.4-32.38 13.79l-19.79 46.18c-9 19.79-11.99 40.78-13.19 83.96-.6 52.17.6 59.37 16.19 85.16 16.79 28.79 16.79 28.79 70.17 37.18 17.99 2.4 52.77-15.59 59.97-31.78zm-603.91-74.36c26.99-11.39 31.18-30.59 6-24.59-9.6 2.4-21.59 6.6-26.99 9-27.59 14.39-29.99-1.8-4.8-33.58 24.59-30.59 22.79-40.78-9-59.37-14.99-9-26.99-17.39-26.99-19.19 0-12.59 14.99-26.39 28.79-26.39 20.39 0 34.18-8.4 28.79-17.39-10.2-16.19-57.57-2.4-69.57 19.79-12.59 23.99-5.4 46.18 19.79 59.37 11.99 6 22.19 13.19 22.19 14.99 0 2.4-8.4 13.19-17.99 24.59-10.2 10.79-17.99 23.39-17.99 28.19 0 4.2-1.8 11.39-3.6 16.19s1.2 12.59 6 17.99c10.2 10.2 22.79 8.4 65.37-9.6zm160.12-55.77c0-4.8-2.4-14.39-6-20.39-3-6-7.2-21.59-9-34.18s-4.8-28.79-6.6-36.58c-5.4-25.79 9.6-195.51 18.59-209.3 11.39-16.79 11.39-25.79 0-25.79-19.79 0-27.59 33.58-31.78 145.73-3.6 87.56-6 106.15-11.39 94.15-11.39-25.79-18.59-90.56-17.99-154.73 1.2-51.58 0-61.17-7.8-59.97-13.19 3-14.39 78.56-2.4 151.73 17.99 111.55 16.79 107.95 26.99 106.15 9-1.2 14.39 7.8 25.79 42.58 4.2 12.59 21.59 13.79 21.59.6zm53.97-85.76c0-6.6-5.4-24.59-12.59-40.78-25.79-59.37-4.8-170.92 48.58-259.68 26.99-44.38 27.59-47.98 14.99-47.98-4.8 0-9 4.2-9 9s-3 9-6 9c-3.6 0-18.59 25.19-32.98 55.77-41.38 86.96-55.77 187.11-33.58 238.69 6 14.39 12.59 31.18 14.39 37.18 4.8 13.79 16.19 13.19 16.19-1.2zm393.41-13.19c1.8-3.6-10.79-20.39-28.19-37.78-17.99-16.79-42.58-42.58-55.17-56.37-24.59-26.99-26.39-27.59-39.58-19.79-6 4.2 6 19.19 49.78 62.97 31.78 31.78 60.57 57.57 63.57 57.57s7.2-3 9.6-6.6zm162.52-34.18c34.78-41.38 73.76-97.75 73.76-107.35 0-14.99-11.99-7.8-27.59 17.99-9 13.79-30.59 40.78-48.58 59.97-28.19 31.18-40.78 58.17-26.99 58.17 3 0 16.19-13.19 29.39-28.79zm-268.07-185.31c0-6-43.18-49.78-49.18-49.78-2.4 0-13.19-9.6-24.59-20.99-11.39-11.39-22.19-20.99-24.59-20.99-14.99 0 13.19 32.38 65.97 76.16 23.39 19.19 32.38 23.39 32.38 15.59zm323.86 364.61c-3.6-9.6-6-20.99-5.4-25.19 1.8-10.2-4.8-36.58-16.79-68.37-8.4-22.79-8.4-23.99 4.8-34.18 7.2-6 14.39-9.6 16.19-8.4 4.2 4.8 19.19 99.55 19.19 124.74 0 28.19-8.4 33.58-17.99 11.39zm-253.67-34.78c-16.79-32.98-38.38-50.98-60.57-50.98-16.79 0-19.19-5.4-9.6-23.39 9-15.59 21.59-14.39 58.77 6.6l31.18 17.99v38.98c0 21.59-1.2 38.98-2.4 38.98s-9-12.59-17.39-28.19z"/>
<path d="m2051.01 1336.76c0-8.4 3-11.39 10.2-10.2 15.59 3 17.39 22.79 2.4 22.79-9 0-12.59-3.6-12.59-12.59zm-521.75 2436.62c0-2.4 7.8-9 17.39-14.99 20.99-11.99 34.18-1.8 15.59 11.99-11.99 8.4-32.98 10.79-32.98 3zm-78.56-3.59c-1.2-1.8-20.39-3.6-41.38-4.8-33.58-1.8-38.98-3.6-40.78-14.39-1.2-6.6 3.6-16.79 10.79-23.39 6.6-6 11.99-7.8 11.99-4.2 0 4.2 1.8 7.2 4.8 7.2 6.6 0 19.79-41.98 21.59-71.97 1.2-14.99 4.8-32.98 8.4-40.18 4.2-7.2 7.2-23.39 7.2-35.98 0-28.19 7.2-39.58 21.59-36.58 15.59 2.4 18.59 28.79 4.8 38.98-11.39 8.4-25.79 77.96-25.79 129.54-.6 20.99 1.8 28.19 8.4 28.19 4.8 0 9 4.2 9 9 0 4.2 4.8 11.39 10.79 14.39 8.4 5.4 9 6 .6 6.6-5.4 0-10.79-1.2-11.99-2.4zm100.15-163.73c4.8-41.98 6-43.78 26.99-43.78 17.39 0 18.59 1.2 14.39 16.79-6 23.99-14.99 30.59-14.99 10.79 0-25.19-10.2-13.19-14.39 17.39-6 35.98-16.19 34.78-11.99-1.2zm-26.98-24.58c-9-16.79-8.4-19.19 4.8-19.19 16.19 0 19.79 7.8 10.2 20.99-7.8 10.79-8.4 10.79-14.99-1.8zm347.23-453.99c0-1.8 6-14.99 13.19-28.79l12.59-25.19 4.8 17.99c4.2 14.99 3 19.79-8.4 28.19-13.19 10.79-22.19 13.79-22.19 7.8zm-501.36-408.4c-1.8-14.99-2.4-39.58 0-53.97 4.2-32.38 31.18-91.76 43.78-96.55 5.4-1.8 16.79 4.2 27.59 15.59 16.79 16.79 17.99 19.79 11.39 31.18-10.2 15.59-10.79 74.96-1.2 86.36 4.2 4.8 6 12.59 4.2 16.79-2.4 6.6-58.77 28.19-74.96 28.19-3.6 0-8.4-12.59-10.79-27.59zm100.75-33.58c-9.6-9.6-9.6-41.38.6-55.17 7.2-9.6 8.4-9.6 18.59 1.2 7.8 9 9 14.99 4.8 23.39-3.6 6-8.4 16.79-11.39 24.59-3.6 10.79-6.6 11.99-12.59 6zm413.8-915.76c1.2-4.2 4.2-7.2 6.6-7.2 7.2.6 5.4 9-1.8 11.99-4.2 1.2-6.6-1.2-4.8-4.8zm53.38-14.99c1.2-1.2 12.59-3.6 25.19-6 16.19-3 22.19-2.4 19.19 1.8-1.8 3.6-13.19 6.6-25.19 6.6-11.99 0-20.39-1.2-19.19-2.4zm231.49-7.8c-9.6-2.4-9.6-4.2 3-21.59 17.39-25.19 22.79-28.79 35.98-21.59s9.6 27.59-6 40.18c-9.6 7.2-14.39 7.8-32.98 3zm61.17-20.99c3-14.39 7.8-20.39 17.99-21.59 11.99-1.8 13.19 0 11.39 17.99-1.2 16.19-4.8 20.39-17.39 21.59-14.99 1.8-15.59.6-11.99-17.99zm-110.35 4.8c-10.79-7.8-10.79-8.4 3.6-26.39 15.59-19.79 21.59-22.19 34.78-13.79 7.8 4.8 7.2 9-2.4 26.99-12.59 23.39-19.19 25.79-35.98 13.19zm158.92-15.6c0-11.39 21.59-28.19 28.79-21.59 5.4 5.4-11.99 33.58-20.99 33.58-4.2 0-7.8-5.4-7.8-11.99zm-189.51-26.38c-8.4-21.59 7.8-34.18 27.59-21.59 7.2 4.2 7.2 7.8 2.4 16.19-9 14.39-25.79 16.79-29.99 5.4zm380.22-61.77c-14.99-3.6-13.19-11.99 3-16.19 22.19-6 28.19-4.2 28.19 8.4 0 11.99-8.4 13.79-31.18 7.8zm-56.37-27.59c-6-16.19 50.38-106.15 66.57-106.15 1.8 0 3 9 3 19.79 0 22.19-14.99 40.18-32.98 40.18-9 0-9.6 1.8-4.2 7.2 10.2 10.2 9 40.78-1.2 40.78-4.8 0-12.59 1.8-17.99 3.6-5.4 2.4-10.79 0-13.19-5.4zm-473.17-789.82c-13.19-6-20.99-11.39-17.39-11.39 8.4-.6 50.38 16.19 50.38 20.39 0 4.8-7.8 3-32.98-9z"/>
</g>
<path id="fill_ink_and_feather" d="m2866.62 4012.07c11.99-7.8 37.78-7.8 32.98 0-1.8 3.6-12.59 6-22.79 6-14.39 0-16.79-1.8-10.2-6zm365.82-13.19c0-2.4 13.19-4.8 29.39-4.8 16.19 0 34.78-1.8 40.78-3.6 7.2-3 9-2.4 4.8 1.8-7.2 7.8-74.96 13.79-74.96 6.6zm368.83-10.8c-2.4-3.6 6.6-6 22.19-5.4 19.79 0 22.79 1.2 13.79 5.4-16.79 7.2-31.78 7.2-35.98 0zm-1642.01-4.2c-3-2.4-21.59-7.2-41.98-10.79-28.79-4.8-37.78-8.4-38.98-17.39-1.2-6 0-13.19 3-15.59 2.4-3 46.78 0 97.75 6.6 50.98 6 104.95 10.79 119.94 11.39 25.19 0 25.79.6 16.19 10.79-8.4 8.4-21.59 10.2-65.97 10.79-30.59 0-61.77 2.4-70.17 4.8s-17.39 2.4-19.79-.6zm313.65-4.79c-4.2-5.4-6.6-10.79-4.8-11.99 1.8-1.8 64.17-4.8 138.53-6.6 112.15-3 136.13-2.4 136.13 4.8 0 6.6-25.19 7.8-134.34 7.2-110.95 0-133.14 1.2-124.74 7.8 5.4 4.2 7.2 7.8 3.6 7.8s-10.2-4.2-14.39-9zm659.68-6c6-7.2 6-10.79.6-17.39-4.2-4.8-6.6-17.99-5.4-28.79 1.8-19.19 2.4-19.79 31.18-19.19 64.17 1.8 60.57 62.37-4.8 70.77-25.19 3-28.19 2.4-21.59-5.4zm542.74 3.6-17.99-4.2 17.39-3.6c9.6-1.8 28.79 0 41.98 4.2l24.59 7.8h-23.99c-13.19 0-31.78-1.8-41.98-4.2zm-696.87-4.8c-7.8-1.2-13.79-4.8-13.79-7.8s-25.19-6.6-55.17-7.8c-30.59-.6-5.4-2.4 56.97-3 108.55-1.2 112.15-.6 112.15 10.79 0 10.79-3.6 11.99-43.18 11.39-23.99-.6-49.78-2.4-56.97-3.6zm274.07-7.2c0-9.6 25.79-11.99 41.38-3.6 14.99 8.4 14.99 8.4-12.59 9-16.19 0-28.79-2.4-28.79-5.4zm380.82-24.59c1.8-3 10.2-6 18.59-6 8.4 0 13.19 2.4 11.39 6s-10.2 6-18.59 6c-8.4 0-13.19-2.4-11.39-6zm-977.53-8.39c3.6-1.8 16.19-4.2 28.79-6.6 16.79-2.4 22.19-6.6 22.19-14.99 0-7.2-4.2-11.99-10.2-12.59-7.2-.6-6-2.4 4.2-5.4 22.19-7.2 89.96-7.2 89.96 0 0 3.6-2.4 6-6 6-3 0-6 4.2-6 9 0 13.19-19.79 18.59-77.96 22.79-28.19 2.4-47.98 3-44.98 1.8zm-220.1-7.8c10.2-1.2 28.19-1.2 38.98 0 10.2 1.2 1.8 2.4-19.79 2.4s-29.99-1.2-19.19-2.4zm648.89-10.79c0-4.8 3-9 6-9 3.6 0 6 4.2 6 9s-2.4 9-6 9c-3 0-6-4.2-6-9zm755.64-3c4.8-3 21.59-6 37.18-6s29.99-2.4 31.78-6c1.8-3 13.79-6 25.79-6l22.19.6-17.99 7.8c-22.19 9.6-112.15 18.59-98.95 9.6zm-809.61-12c0-10.2-4.2-11.99-23.39-11.99-13.19 0-25.19-2.4-27.59-5.4-3.6-6 47.38-7.8 75.56-3 14.39 3 15.59 4.2 9 17.39-8.4 18.59-33.58 20.99-33.58 3zm323.84 6c11.99-7.8 29.99-7.8 29.99 0 0 3.6-9 6-19.19 6-14.99 0-17.39-1.8-10.79-6zm-458.78-17.39c-36.58-3-39.58-4.2-21.59-7.8 27.59-6.6 84.56-6 84.56.6 0 4.8-17.39 14.39-19.79 11.39-.6-.6-19.79-2.4-43.18-4.2zm427.6-9.6c-6.6-14.39-16.79-17.99-41.98-15.59-6 .6-10.79-1.2-10.79-3.6 0-6.6 35.38-19.79 52.17-19.79 6.6 0 18.59-4.8 25.79-10.79l12.59-10.2-20.39-41.98c-28.19-55.77-15.59-71.97 16.19-22.19 7.8 12.59 25.79 34.18 40.18 49.18 14.39 14.99 26.99 29.99 26.99 32.98.6 3.6 1.2 9 1.8 12.59 1.2 9.6 42.58 20.39 79.16 20.39 23.39 0 29.99 1.8 25.19 6.6-6.6 6.6-137.93 9-143.93 3-1.8-1.2-11.99 1.2-22.79 6-28.19 11.39-32.38 10.79-40.18-6.6zm-224.89 4.8c5.4-1.2 14.99-1.2 20.99 0 5.4 1.8.6 3-10.79 3s-16.19-1.2-10.2-3zm497.76-6c9-1.2 22.19-1.2 29.99 0 7.2 1.2 0 2.4-16.79 2.4-16.19 0-22.79-1.2-13.19-2.4zm-530.15-52.17c-1.2-1.8-32.98-9.6-70.17-17.99-65.97-14.99-108.55-33.58-130.14-57.57-7.8-8.4-9.6-16.79-6.6-31.78 1.8-10.79 6.6-60.57 9.6-109.75 6-94.75 9.6-111.55 24.59-133.14 9-12.59 10.79-13.19 34.18-4.8 13.19 4.8 31.78 8.4 41.38 8.4 23.39 0 122.94 25.19 132.54 33.58 5.4 5.4 6 22.19 1.2 78.56l-9.6 119.94c-1.8 26.39-6 53.97-10.2 61.77-8.4 17.39 2.4 31.18 15.59 19.79 9-7.2 13.19-39.58 19.79-150.53l7.8-98.35c3.6-34.18 4.2-35.38 26.39-43.18 11.99-4.2 38.98-9.6 59.97-11.39l37.18-4.2-19.19 17.39c-62.97 57.57-89.36 189.51-47.38 233.29 3.6 3.6 14.39 15.59 23.39 25.79 9.6 10.79 19.79 18.59 23.99 16.79 13.79-4.2 10.2-16.79-10.2-35.38-28.19-26.39-41.38-59.37-36.58-91.16 10.79-67.77 38.98-125.34 68.97-141.53 6.6-3.6 26.39-6.6 44.38-7.2 27.59-.6 36.58 1.8 55.77 16.19 31.78 24.59 35.38 28.79 40.78 44.98 4.2 14.39 3.6 14.39-15.59-3.6-25.19-23.39-67.77-34.18-93.55-23.39-28.19 11.99-36.58 28.79-50.98 106.75-9.6 51.58 1.2 95.95 28.79 114.54l20.39 13.79-25.79 7.2c-13.79 4.2-30.59 10.79-36.58 13.79-11.39 6-16.79 7.2-63.57 13.19-26.39 3.6-65.97 12.59-78.56 17.99-4.8 2.4-10.2 3-11.99 1.2zm-101.35-77.96c0-11.39 3-22.79 6-24.59 9-5.4 1.2-14.99-12.59-14.99-9.6 0-11.39-3-8.4-11.99 3-8.4 1.2-11.99-5.4-11.99-15.59 0-10.79-10.79 8.4-20.99 10.2-5.4 17.99-11.99 17.99-14.99 0-4.8-15.59-1.8-44.98 9-28.79 10.79 19.79-26.99 61.77-47.98 23.39-11.99 43.18-23.99 43.18-26.99 0-3.6-1.2-6-2.4-6-8.4 0-47.38 16.79-71.37 31.18-32.98 19.19-41.98 20.99-38.98 7.2 1.8-10.2 29.39-26.39 89.96-53.37 20.99-9 34.18-17.99 29.39-19.19-9.6-3.6-51.58 9-70.77 20.99-9 5.4-13.79 6-13.79 1.8 0-3.6 14.99-13.19 32.98-21.59 17.99-7.8 32.98-17.39 32.98-20.99 0-7.8-9.6-7.8-25.79 1.2-7.2 3.6-23.99 6-37.18 6-29.39-1.2-34.18 1.8-55.77 34.18-15.59 22.79-16.79 28.79-11.99 43.78 3.6 9 8.4 18.59 11.39 20.39 3 1.8 4.2 6 1.8 9-1.8 3.6-1.2 10.79 1.2 16.19 6.6 16.19 7.2 51.58 1.2 59.37-9 10.79 0 19.79 19.19 19.79 13.19 0 17.99 3.6 23.39 17.99 8.4 23.99 18.59 22.79 18.59-2.4zm303.45-15c-13.79-14.99-23.39-54.57-13.19-54.57 14.39 0 29.39 16.19 25.19 26.99-2.4 7.2 0 13.19 8.4 19.19 12.59 9 11.39 19.79-2.4 19.79-4.2 0-12.59-5.4-17.99-11.39zm90.56-6.59c-5.4-6.6-14.39-11.99-19.19-11.99-12.59 0-11.39-9.6 3.6-20.39 13.79-9.6 10.79-21.59-6-21.59-16.19 0-19.79-6.6-9.6-17.99 6-6.6 7.8-16.19 4.8-31.78-3.6-23.39-11.99-28.79-46.18-30.59-14.99-1.2-17.99-3.6-16.79-13.19 4.2-22.19 14.39-28.19 43.78-24.59 43.18 5.4 49.78 11.99 62.97 63.57 10.2 39.58 10.79 50.38 4.8 80.36-4.2 19.19-8.4 35.98-9.6 37.18-1.2 1.8-7.2-2.4-12.59-9zm46.78-70.17c0-29.39 2.4-38.98 11.39-45.58 9.6-7.2 10.2-10.2 2.4-31.78-16.19-47.38-29.39-61.77-82.76-92.36-13.19-7.8-3-13.79 31.78-17.99 72.57-9.6 97.75 5.4 88.16 53.97-3 14.99-5.4 54.57-6 87.56v61.17l-22.79 11.39-22.79 10.79.6-37.18zm-152.93-14.99c0-10.2 7.2-19.19 16.79-20.99 9-2.4 9.6 11.39 0 20.99s-16.79 9-16.79 0zm-185.91-160.12c-14.99-6-43.18-12.59-62.97-14.39-40.18-3.6-62.97-9.6-62.97-15.59 0-7.2 67.77-19.19 160.12-27.59 88.76-7.8 145.13-7.2 175.72 3l40.18 11.99c13.79 4.2 23.99 9.6 22.79 12.59-4.2 6-40.18 11.39-93.55 14.39-24.59 1.2-60.57 6.6-80.36 12.59-52.17 14.39-68.97 14.99-98.95 3zm-305.85-1840.52c-41.38-3-101.95-14.39-101.95-19.19 0-2.4 12.59-7.8 28.79-11.99 32.98-9 251.28-94.75 304.05-119.34 19.79-9.6 55.17-25.79 77.96-35.98 46.78-21.59 44.38-20.39 101.95-51.58 56.97-31.18 152.93-78.56 169.72-83.36 14.39-4.8 17.99-15.59 4.8-15.59-6.6 0-111.55 48.58-144.53 67.17-13.79 7.8-127.14 64.17-160.12 79.16-11.99 6-26.39 9.6-31.18 8.4-8.4-1.2-8.4-4.2-1.8-16.79 4.2-8.4 12.59-29.39 18.59-47.38 13.79-38.98 38.98-78.56 49.78-78.56 10.2 0 9.6 2.4-1.8 24.59-4.8 10.2-8.4 19.79-6.6 20.99 3 3 34.18-43.18 34.18-50.98 0-3 26.39-13.79 58.77-23.99 51.58-16.19 121.14-29.99 257.28-50.98 23.39-3.6 44.98-8.4 47.38-10.79 2.4-3 13.79-4.8 25.19-4.8 19.79 0 20.39.6 16.79 19.19-7.8 38.38-89.36 128.94-149.33 165.52-31.18 19.19-31.78 19.19-119.94 19.79-71.97.6-88.16 2.4-88.16 9 0 4.8 11.39 13.79 25.79 20.39 27.59 12.59 46.18 25.79 46.18 32.98 0 7.2-71.97 74.36-98.95 92.96-29.99 20.39-50.38 26.99-125.94 42.58-59.37 12.59-116.34 12.59-131.34 0-7.2-6-69.57-30.59-76.76-30.59-11.39 0-3 18.59 13.79 29.99 26.39 19.19 16.79 23.99-42.58 19.19zm338.84-121.74c3.6-3.6-13.79-5.4-47.98-4.8-29.99.6-61.77-1.2-71.37-3.6-12.59-3.6-16.79-3-14.39 3 1.2 4.2 7.2 8.4 13.19 9.6 6 .6 11.99 3 13.79 4.2 4.8 5.4 100.75-2.4 106.75-8.4zm43.18-35.98c20.99-3.6 37.78-8.4 37.78-10.79 0-3.6-120.54-1.2-125.34 2.4-.6 1.2 0 4.8 2.4 8.4 4.8 8.4 37.18 8.4 85.16 0zm219.49-129.54c15.59-5.4 28.19-13.79 28.19-17.99 0-9-9.6-10.2-14.99-1.8-1.8 3.6-10.2 6-17.99 6-20.39 0-46.18 10.79-41.98 17.99 5.4 8.4 13.79 7.8 46.78-4.2zm-732.85 242.88c.6-4.2-.6-12.59-3.6-18.59-3-7.2.6-16.79 12.59-31.78 9.6-11.99 20.99-26.99 25.79-34.18 9.6-15.59 102.55-89.96 106.75-86.36 1.2 1.8-3 14.99-10.2 28.79-16.79 34.78-22.19 71.37-11.39 71.37 4.8 0 11.99-2.4 15.59-4.8 10.2-6.6 25.19-59.37 23.99-85.16-1.2-19.19 1.2-22.19 28.79-37.18 49.78-26.99 52.17-23.39 26.39 47.98-13.79 37.78-13.79 43.18-3.6 43.18 4.2 0 13.79-10.2 20.99-22.19 29.99-53.37 140.93-139.73 178.11-139.73 8.4 0 8.4 1.8-1.8 16.79-14.99 21.59-43.18 94.15-43.18 110.95 0 16.19-14.39 23.39-146.93 76.16l-65.97 26.39c-48.58 20.99-68.97 28.19-100.75 36.58-42.58 10.79-52.77 11.39-51.58 1.8z"/></svg>