<svg preserveAspectRatio="xMidYMid meet" viewBox="0 0 3350 1047" xmlns="http://www.w3.org/2000/svg">
<path d="m2591.8 1041.2c-.4-.6-113-1.4-249.8-2-137-.6-256-1-264.4-1-15.2-.2-15.4-.2-23.4-8.2-4.6-4.6-8.2-9-8.2-9.8 0-1-3.6-5.6-8-10.4s-8-9.4-8-10.2c0-1.8-11-14.4-18.4-21.4-3.2-2.8-5.6-6-5.6-7.2s-3-5.4-6.4-9.4c-6-6.6-17.4-23.4-19.4-28.4-.4-1.2-3.8-5.4-7.6-9.2-3.6-3.8-6.6-7.6-6.6-8.4s-8-9.6-17.8-19.6c-10-10-20-21-22.4-24.6-2.4-3.4-7.4-9-10.8-12.4-3.6-3.2-7.6-8.2-9-11s-4.4-6.2-6.4-7.8c-2.2-1.4-6.6-6.4-9.8-11-3.4-4.4-9.6-12-14-16.6-4.2-4.6-7.8-9.8-7.8-11.4 0-1.8-.8-3.2-1.8-3.2s-2.8-2.6-4-6c-1-3.2-3.2-6-4.8-6-4.6 0-15.4-14.6-15.4-20.8 0-1.6-1-3.2-2-3.6-1.6-.4-5-97.4-4-113.6.6-9.6 0-98.6-.8-107-.6-5.4 0-11 1.2-12.4 1.4-1.8 1.4-2.6 0-2.6-1 0-1.6-1.8-1-4s0-6.6-1.4-9.8l-2.4-6-13 7c-10.4 5.4-17 7.4-32.2 9.2-37.2 4.4-46.6 3-59.6-9.2-10.8-10-29.4-27-38.8-35.2-5.8-5-20-18.4-31.8-29.8-11.6-11.4-24.6-23-28.6-25.8-4.2-2.6-8-6.4-8.6-8.2-1.2-4-13-12.2-17.6-12.2-2.4 0-3.4 1.8-3.6 6.6-.4 6.4-1.4 37.8-1.6 43.4 0 1.6.2 19.2.8 38.8.6 31.8 1 36 4.2 37.8 2 1.2 5.4 4 7.6 6.2 2.4 2.4 6.6 5.6 9.8 7 3 1.6 5.4 3.6 5.4 4.4s7 7.2 15.6 14.2c8.4 7.2 16.8 14.2 18.4 15.8s6.8 5.6 11.2 8.8c10.6 7.6 27.2 21.2 39 31.8 5.2 4.4 12.2 10.4 15.6 13.2 3.6 2.8 9.4 7.4 12.8 10.4l6.4 5.2v125c0 68.8-.6 125.6-1.2 126.2-.6.8-28.6 1.6-62 2.2-66 1-76.4 1.8-80.2 6.4-1.6 2.2-2.4 19.8-2.8 66-.2 39-1.2 63.8-2.4 65-1.4 1.4-51.6 2-144.8 1.8-78.4-.2-148.6-.2-155.8-.2-14.4 0-15.4-.6-27.8-16-3.8-4.8-8.4-10.2-10.2-11.8-1.8-1.8-6.8-8.2-11-14.2-4.4-6-10.8-14.2-14.4-18s-13.2-15.6-21.4-26-15.8-20-17-21.4c-1-1.4-2-3-2-3.4 0-.6-5.8-7-12.8-14.2-10.4-10.4-14.2-13-19.6-13.2-18.4-.8-234.8-1-239.6-.2-5.6.8-16.4 10.2-29.4 25-3.6 4.2-6.6 8.2-6.6 9s-3.4 5-7.6 9.4c-4 4.4-9.8 11.2-12.6 15-3 3.8-7 9-9 11.4-2.2 2.4-7 8-10.8 12.6s-10 11.6-13.4 15.6c-3.6 4.2-6.6 8-6.6 9 0 .8-1.4 1.4-3 1.4s-3 1.2-3 2.6-3.2 6.2-7 10.6c-3.8 4.2-7 8.4-7 9.2s-2.6 2.8-5.8 4.4c-5 2.6-40 3-269.4 2.8-145.2 0-268.2-.8-273.8-1.8-9.4-1.6-14-5.2-22.6-16.8-12.8-17.4-36-45-40.8-48.6-2-1.4-3.6-3.6-3.6-4.8 0-2.2-5-8.4-27.2-33.8-7.8-8.8-15.4-18.6-16.8-21.4-1.4-3-3.6-7.6-4.8-10.4s-3.4-5.8-4.6-6.6c-1.4-.8-2.6-3-2.6-4.4 0-1.6-.8-3-1.8-3s-2.4-1.6-3-3.6c-.8-2-5.2-8-10-13.2s-12.8-14.6-17.6-20.8c-4.6-6.2-11.2-13.4-14.2-16.2-3-2.6-6.8-7-8.4-10-1.6-2.8-4.8-7.6-7.4-10.6-2.6-2.8-6.4-7.8-8.6-10.8s-8.2-10-13.4-15.6c-5.4-5.6-9.6-10.8-9.6-11.6 0-.6-3.8-6-8.4-12l-8.6-10.6v-49.4c0-38.4.6-49.6 2.6-49.6 3 0 3-2.6 0-5.6-2.8-2.8-3.4-38.4-3.4-218.4 0-53.4-.2-104.2-.2-113s-.2-45.6-.4-82l-.4-66 5.8-9c3.4-5 9.6-13 14-17.6 4.4-4.8 8-9.4 8-10.2 0-.6 3.8-5.8 8.4-11.2 16.8-19.8 34.4-43.2 35.6-47 .8-2.2 2-4 3-4 1.8 0 18-23 18-25.6 0-1 2-2.8 4.6-4.2 2.4-1.4 6.2-5.4 8.4-8.8 2.2-3.6 6-7.2 8.6-8.4 2.4-1 4.4-3.6 4.4-5.4 0-2 .6-3.6 1.6-3.6h112.4 211c62 0 102.6.8 107 2 4.6 1.4 7.2 1.4 7.6 0 .8-2.2 36-2.8 46-.8 3.4.6 10.4 5.2 15.6 10s10.2 8.8 11 8.8c1 0 1.8 1 1.8 2 0 1.2 1 2 2 2 1.2 0 4.2 2 6.8 4.4 5.2 5 8 7.4 21.2 17.6 5 3.8 9.4 7.4 10 8s5.4 4.2 10.6 8 15 12.2 21.8 18.6c6.8 6.2 13.2 11.4 14.4 11.4s5.6 3.2 9.8 7 11.4 9.8 15.8 13.4c4.6 3.6 10 8.6 12.2 11.2 2.2 2.4 5.4 4.4 6.8 4.4s2.6 1 2.6 2c0 1.2 1.2 2 2.8 2s3.2.8 3.6 1.6c.2.8 4.6 4.6 9.6 8.4 4.8 3.8 11.6 9.4 15 12.4 3.2 3.2 6.8 5.6 7.8 5.6s4.2 2.2 7 5c2.8 2.6 12.8 11 22.2 18.4s18.8 15 20.8 17c2.2 2 5 3.6 6.4 3.6s3.2 1.8 3.8 4 2.4 4 3.8 4 4.4 1.8 7 4.2c8.2 7.6 12.8 4 19.2-14.6 3-9.2 7.8-20.6 10.4-25.6 2.4-5 4.6-10.4 4.6-12 0-1.8.8-4 1.8-5 1-1.2 3.6-7.4 6.2-14 2.4-6.6 5-12.8 6-14 1-1 1.6-2.4 1.6-3s1-3.2 2-6 5.2-13.4 9.2-23.4c4-10.2 7.2-20.2 7.2-22.4s.8-4.4 1.8-5.2c1-.6 2.4-3.6 3.2-6.8.6-3.2 2.6-7 4.2-8.2 1.4-1.4 2.2-3.2 1.8-4.2-.6-.8 1.6-7.4 5-14.4 3.2-7 6-13.8 6-15.2 0-3 5.6-11.8 11.4-17.4l4.4-4.4 104.6.8c57.6.6 106.4 1 108.6 1 2.2-.2 17-.2 33 0 120 .4 180.4.2 188.2-.6 10.6-1.2 11.6-.4 23.8 14.4 5 6 9.4 11.4 10 12s3.4 4.6 6.4 9 11 13.6 17.6 20.6c6.6 6.8 12 13 12 13.6 0 2 32.2 38.8 33.8 38.8.6 0 1.4-2 1.6-4.4.4-4.4 2.6-63 2.6-67.8 0-1.6.8-1.6 2.8 0 2.2 2 2.8 12.4 3 54.8.2 28.8.2 53.8.2 55.4-1 56.6-.8 70.2 1 72.8 2 2.4 8.6 3 40.2 3 35.2-.2 38.6.2 45.6 4.2 4.4 2.4 9.4 6.2 11.4 8.6 5.6 6.8 11.8 20.8 11.8 26.8-.2 16.2-14.8 37.2-27.6 39.6-4 .8-8.2 2-9.4 3-1 .8-6.4 2-11.6 2.6-5.2.4-10.2 1.6-11 2.2-1.6 1.8-1.8 58.4-.2 60 .6.8 25.4 1.4 55 1.6 50.4.2 54.8-.2 68.8-4.4 12.4-3.6 36.4-17 40-22.2 1.8-2.6 15-18.2 20.6-24.2 3-3.2 5.4-6.8 5.4-8 0-1 2.2-4.8 5-8.4s5-7.6 5-8.8c0-3 8.2-19 10.6-20.6 1-.8 1.4-2.2.6-3.4-.6-1 .2-5.8 1.6-10.6 8-25.2 8.2-30 8.2-139.2-.2-58.6-.8-107-1.4-107.8-1.2-1.2-40.4-3.6-52.6-3.2-19.4.6-64.2 1-90 .6-16.4-.2-32.2 0-35 .4s-6.8 0-9-.8c-2.2-.6-10.6-.8-18.6 0s-15.2.8-16 0c-2.4-2.2-44 1-46.6 3.6-1.2 1.2-2.6 5.2-2.8 9-.4 3.6-.6 7.2-.8 8.2-.2.8-1.6 1.4-3.2 1.4-2.4 0-2.6-1-1.4-3.4 1-2 1.8-8.8 2-15.4.2-13.2.4-13.6 6.8-13.6 23 .4 44.2 2.4 46.8 4.6 2.4 2 3 2 2.4-.4-.4-2.4 3.4-2.6 23.4-2 13.8.4 24.6 1.6 25.4 2.8.8 1.4 2.2 1.4 4.4-.4 2.4-2 12.2-2.6 37.2-2.8 18.8 0 34.6-.8 35.2-1.8.6-.8 2-1 3.2-.4 4 2.4 48.4 2.8 49.8.4 1.2-1.8 2.2-1.8 4.2-.2 1.4 1.2 10.2 2.2 19.6 2.4l17 .2 7 7.6c12.8 13.8 20 22.8 20 24.4 0 1 2 3.4 4.6 5.4 6.6 5.4 15 17.2 16.6 23.4.8 3 3.4 6.4 6 7.6s4.8 3.4 4.8 4.8 1.6 3.8 3.6 5.2c1.8 1.4 7.4 7.6 12.4 13.6 4.8 6 9.6 11.4 10.4 11.6 1 .4 1.6 1.6 1.6 2.8s2.2 4.6 4.8 7.4c2.8 2.8 10.4 11 17 18 6.8 7 12.2 13.6 12.2 14.6 0 .8 3.6 5.4 8 10l7.8 8.4 10-2c5.6-1.2 11.2-1.4 12.6-.4 1.4.8 17.4 1.6 35.8 1.6 23 0 33.8.8 35.4 2.4s2.4 1.8 2.4.2 5.6-2.2 16.6-2.2c9 0 30 0 46.4-.2 85.2-.6 105.4-.2 108.2 2 2.2 1.8 3.6 1.8 5.2.2 3.6-3.6 12.2-3 10.8.6-1.4 3.8 2.6 3.8 8.2 0 3.6-2.6 16.4-3 87-2.8l82.6.2 8.4 9.4c4.8 5 8.6 10.2 8.6 11.2 0 1.2 5 7.4 11 14 6 6.4 11 12.6 11 13.4 0 2 9.8 11.6 12 11.6 1.2 0 2 1 2 2.2 0 1.8 17.8 26 22 29.8.6.6 5 6 9.8 12 5 6 11.2 13.2 14.2 16s6.2 6.4 7.2 8.4c1 1.8 5.4 7.2 9.8 12 4.4 4.6 11.2 12.6 15 17.6s9.4 11.4 12.4 14.6c2.8 3 7.4 8.8 10 12.6 5.8 8.6 10.4 8.2 11-1.2.2-3.8.6-45.6.8-93 .4-61.4 1.2-86.6 2.8-88.2 2.2-2.4 19.8-2.4 139 0 20.4.4 40.4 0 44.6-.8 4.4-1 10.2-.8 14.4.6 4.8 1.4 9 1.4 13.6 0 3.4-1 8.8-1.2 11.8-.4s15 .8 26.6 0c11.8-.6 21.8-.6 22.4.4.6.8 2.2.6 3.8-.8 2-1.6 2.8-1.6 2.8 0 0 1.2 1.4 2.2 3 2.2s3 .8 3 2c0 1 7.2 9.2 15.8 18.2 17.4 17.8 17 17.8 30.4 5.6 3-3 11.8-8.2 19.2-11.8 7.4-3.4 16-7.6 19-9.2 5.4-3 43.4-6.8 53.6-5.6 8.4 1 108.4.8 116-.4 3.8-.6 9.2-.8 12-.8 7.2.2 24.4 1.2 28.4 1.6 2 .2 7.4 4.2 12.4 8.8 19 18.2 54.6 51.4 61.8 57.6 4 3.6 13.2 12 20 18.8 7 6.6 21 19.8 31.2 29.2s23.8 22 30.4 28l11.8 11 .2 39v103c-.2 35.2-.2 85.6-.2 111.8 0 26.4-.4 49.6-1.2 51.6-1 3.4-5.4 3.6-79 3.6-45.2-.2-79.4.6-81.4 1.8-2.2 1.2-4.8 1.2-7 0-2-1.2-24.2-1.6-55.8-1-29 .4-57.2 1-62.8 1l-10.2.2-1.4 8.4c-1.2 7.6-3.8 155.6-3.6 196.6.6 67.8-.8 182.8-2.2 184.2-.6.8-5.2 1.6-9.8 2-17 1.4-310.8 1-314.6-.4-5.2-1.8-22.2-19.4-24-24.6-.6-2.4-2-4.2-2.8-4.2s-6-4.4-11.4-10c-5.4-5.4-10.8-10-12-10-1.6 0-2.4 6.6-2.6 19.6-.4 23-1.4 28-5.8 29.2-2 .6-12.6 1-23.8 1s-22.2.4-24.2 1c-2 .8-4 .8-4.6.4zm-159.8-145.2c42.4 0 74.2-.8 76-2 2.6-1.6 3-9.6 3.4-49.4.2-26.2.4-54.8.2-63.6 0-8.8-.2-32.8-.4-53.4 0-20.4-.8-37.8-1.6-38.6-2.8-2.8-23.2-6.4-26.6-4.6-2 1.2-4.2 1.2-5.6 0-1.6-1.4-3.6-1.2-6.2.8-2 1.4-4.6 2.2-5.8 1.4-1-.6-80.2-1.2-176-1.2-163.8.2-174 0-177.4-3.4-3-3-3.4-7.2-3.2-33.6 0-16.6.8-30.6 1.4-31.2s19.4-1.2 41.8-1.2c53-.2 272.6-.2 318-.2 27.8.2 35.8-.4 38.8-2.8 3.6-2.8 3.8-8 4.2-150.2.4-142.8-.2-156.8-5.4-156.8-1 0-1.6-.8-1.6-2 0-1-2-4-4.4-6.8-2.6-2.6-6.6-7.4-9-10.6-2.4-3-6.6-8.4-9.4-11.8-2.8-3.6-5.2-7.4-5.2-8.6s-1.8-2.2-4-2.2c-2.6 0-4-1.4-4-3.8 0-2.2-2.4-6.4-5.4-9.6-3.2-3.2-7.6-8.4-10.2-11.6-8-10.4-17.2-21-26.8-31.2-5.4-5.2-9.6-10.6-9.6-11.6 0-4-13.8-5.4-54-5.8-22.6-.2-44.6-.8-49-1.2-4.4-.6-8.6-.4-9.4 0-1.2.8-24.6 1-61.6.6-2.8-.2-23 0-45 0-92 .6-133-.6-135-3.8-1.6-2.4-2.2-2.4-5.6.6-3.2 3-9.4 3.4-54.2 3.2-52.4 0-62.2 1.4-62.2 8.4 0 1.6-2.4 5.2-5.2 8-2.8 2.6-7.4 8.4-10 12.8-2.6 4.6-7.4 10.2-10.8 12.6-3.2 2.4-5.8 5.2-5.4 6.2.2.8-2.6 4.4-6 7.6-3.6 3.4-6.6 6.8-6.6 7.4 0 1.8-9.8 15.8-15.6 22.2-7.6 8.2-16.4 21.6-16.4 24.6 0 1.4-1.2 4-2.4 5.4-1.4 1.6-4.4 5.2-6.6 8.2-2.2 2.8-5.6 6.8-7.4 8.6-5.6 5.4-8 22.2-5 33.6 1.4 5.4 2.2 14.6 1.6 20.6-1 12.4-1 14 .4 69.6.6 22.2.4 40.4-.4 40.4-1 0-1.4 4.2-1 9.6.4 5.2 0 12-.8 15.4-1 3.2-.8 10.8.2 17 1 6 1.8 12.6 1.8 14.6-.6 17.2-.4 47.4.6 51.4 2 9.8 1.6 34.8-.8 35.6-1.2.4-1.8 1.4-1.2 2.4s-.4 3.2-2.2 4.8c-2.8 3-2.8 3.2 0 3.2 2.6 0 3 1.6 2.2 7.8-.4 4.4 0 12.8 1.2 18.6 2.2 10.4 2.8 28.6 2.2 60.6-.8 30.4-1.2 28.2 8.6 37.6 5.4 5.2 9 10.6 9 13.2 0 3.6 5.6 13.8 10 18.2.6.6 4.6 5.6 9 11 9.6 12.2 15.6 18.8 25.6 28.4 4 4 7.4 8.4 7.4 9.8s1.4 4 3.4 5.8c1.8 1.8 8.4 10.2 14.8 18.6 16 21.2 16.2 21.2 22 23.8 3.4 1.4 46.4 2.2 141.8 2.4 75.2.2 137 .6 137.2.8s27.8.2 61.2 0 93.4-.4 133.6-.6zm428.2-2.2c.8-1.2 1.2-7.4.8-13.6-.2-6.2.4-13.4 1.4-16s1-5.6-.2-7c-1-1.2-1.4-10.2-.8-20.2.4-9.8.8-19.4.6-21-.2-5.8.2-164 .8-240 .4-50.2 1.4-79.4 3-84.2 4-12.4 13.8-28.6 20.2-32.8 3.2-2.2 6-4.6 6-5.4 0-1 1.4-1.6 3-1.6s3-.8 3-1.6c0-1 3.8-3 8.6-4.4 6.2-1.8 33.6-2.8 106.4-3.2 54-.4 104-.8 111.2-.8 7.2-.2 13.8 0 15 .2 1 .2 5.6.2 10.4 0 7-.2 8.8-1 10.4-5.2 1-2.6 2-22.4 2-44 .2-21.6 1-41.6 1.8-44.6 1-3 .8-7.4 0-10-1.8-4.6-2-28.2-1.6-103 .2-24.4-.6-40.6-1.8-41.8-1.8-1.8-21.8-2.4-63.4-1.8-26 .4-38-.8-37.6-3.2.8-3.2-1.8-3.4-5-.2-1.6 1.6-11 2.6-27 2.8-13.4.4-24.8.6-25.4.8s-8 .2-16.4.4c-11.2 0-15.6.8-16.4 2.8-.6 1.6-3.2 2.8-5.8 2.8-4.4 0-21.2 7-23.4 9.8-.6.6-5.4 3.4-10.6 6.2-9.6 5-25 20.8-31.2 32-12.4 22.8-18.8 35.6-21.6 43.6-1.6 5.2-4.4 10.2-6 11.2-2.4 1.2-2.4 2-.6 3.2s1.8 2.6.2 5.8c-5.2 9.6-6.2 3.4-6.2-39.2 0-24-.2-51-.4-60.2-.6-18.8-.4-18.4-18.6-18.2-5.4 0-16.2 0-24 0-72.6-.2-193.2-.4-198-.2-3.2 0-11.2 0-17.4 0s-11.8.8-12.6 2c-1.4 2.2-4 243.8-2.8 266 0 1.6-.4 29.6-1.2 62-1 32.4-1.4 61.8-1.4 65 .6 18.8.6 63.4-.2 177.4-.8 98.2-.6 127.8 1.4 129.4 3.6 3 17.6 3.2 149 2.6 86.6-.2 121.4-1 122.4-2.6zm-2229-2.2c3.2-2.6 6.8-5.8 8-7.6 1.4-1.6 4.8-5.6 7.8-9 3-3.2 9.2-11 13.8-17 9.8-13.2 12-15.8 21.4-25.6 3.8-4 9.2-10.6 11.8-14.4s5.6-7.8 6.8-9c1.2-1 6.2-7 11.2-13s11-13.2 13.4-16c2.6-2.8 4.6-5.6 4.6-6.4s3.2-4.6 7.2-8.6 8-10 9-13.4c1-3.6 1.8-22.2 2-41.4 0-19.4.2-37.4.2-40.2.6-37.6-1.4-206-2.4-212.6-1.8-12.4-4.4-14.8-58.2-53.2-11.4-8.2-22.2-16.2-23.8-18s-9.2-7.6-17-12.6c-7.6-5-16.4-11.4-19.2-14.2-2.8-2.6-9-5.8-14-6.8-4.8-1-78-2-162.4-2.2-128.6-.2-154-.8-156.4-3.2-1.6-1.4-2.4-3.2-1.8-3.8.6-.4 1-9.8.8-20.6-.4-68.2-.2-83 1-86.6 1.8-5.8 10.6-7.6 30.6-6 9.6.8 44.6 1.4 78 1.2 43.8-.2 61 .4 62.8 2.2 1.2 1.2 2.6 8 2.8 14.8.2 7 .6 16.8 1 22l.6 9.4 17 1.6c9.4.8 49.2 1.4 88.2 1 170.6-1 165.8-.8 168.2-3.6 2.4-3 4-129.6 1.6-144.6-1.4-9.2-7.8-16.4-30.4-34.2-4.8-3.8-17-13.8-26.8-22.2s-20-16.4-22.8-17.8c-2.6-1.4-9.8-7.8-16-14.2-6.2-6.6-12-11.8-12.6-11.8-.8 0-4.8-2.6-8.8-5.8-7-5.4-9-6-31.4-7.2-13.2-.6-25-2.2-26.2-3.2-1.6-1.4-3-1.2-3.8.2-1 1.4-8.4 2.2-20.8 2.2-10.6 0-44.8 0-75.8.4-31.2.2-57.2-.4-57.8-1.2-.4-.8-2.8-1-5.2-.2-5.6 1.8-51.2 2.4-64.8.8-7-1-10.6-.6-10.6.8 0 1.6-.6 1.6-1.6 0-.8-1.2-6.6-1.6-15.4-1-7.6.6-18.2.8-23.2.2-6.6-.8-138.2-.8-152.2 0-1 0-1.6 1.6-1.6 3.6 0 2.2-2 5.4-4.2 7.6-2.4 2-6.6 7.4-9.4 11.8-2.6 4.4-9.4 12.4-14.8 17.8-5.6 5.4-10.8 12-11.8 14.8-1 2.6-3.6 5.2-5.6 5.8-2.2.6-3.6 2-3 3.4s-1.4 4.6-4.2 7.2-5 5.8-5 7c0 1.4-4 6.6-9 11.4-5 5-9 10.2-9 11.6s-3.6 6.8-8.2 11.8c-10.6 12-11.8 13.6-11.8 15.8 0 1-2.4 3.8-5.2 6.6-3 2.6-6.4 7.6-7.8 10.8-3.4 7.8-3.6 45-.4 45 1.4 0 .8 1.4-1.4 3-2 1.4-3.2 3.4-2.6 4.4s1.4 21.4 1.6 45.2c.6 35.6.2 44-2.2 45.4-2.2 1.4-2.4 2.2 0 5 1.8 2.2 2.8 11.6 3.2 31.6 1.2 46.6 1 216 0 221.2-.6 2.8-.2 6 1 7.4s1.6 5.2 1 8.2c-1.8 8.4-1 121.8 1 152.6 0 1.6 0 6.4-.4 10.4-.4 6.2.8 8.8 7.2 16 4.2 4.8 9.4 9.8 11.4 11.2s3.6 3.6 3.6 4.8c0 2 6.4 10.8 14.4 19.4 2.6 2.8 6.2 7.6 8.2 11 2.2 3.2 6 7.6 8.6 9.8 2.6 2 4.8 4.8 4.8 6s1.8 4 3.8 6.4c15 15.8 22.8 25 29.2 34.2 2.2 3.4 7 9.2 10.6 13 3.4 3.8 6.4 8.4 6.4 10.2s1.4 4.2 3 5c1.6 1 111.4 2 243.8 2.2l240.8.2zm808.6 2.6c2.4-1.6 3-13.4 3.4-70.4.4-37.6 1.4-69.2 2.4-70.2 2.4-2.4 14.2-5.6 15.2-4 .4.8 26.8 1.2 58.6 1 31.6-.4 60-.6 63-.6 5.4 0 11.2-6.4 9.8-11-.2-1-.4-46.2-.4-100.2 0-69.6-.8-100.4-2.4-104.6-2.6-6.8-7-8.2-24.4-8-30.8.8-116.6-.8-118.6-2-1.8-1.2-2.6-17-2.6-61.4-.4-100.8-.2-183 .4-201.8.4-9.8.6-21.6.4-26 0-4.4-.2-21-.2-37s-.2-30.4-.2-32c-.2-6-.2-57.8 0-96.4 0-21.6-.4-40.4-1-41.4-1.8-2.8-19.4-4-78-5.2-28.6-.6-52.6-1.6-53.6-2.2-.8-.6-1.6-.2-1.6 1 0 1-4 1.8-9 1.8-5-.2-9-1-9-2s-1.2-1.2-2.4-.2c-1.4.8-44 1.8-94.6 2s-93.8.4-96 .4c-2.2.2-23.4-.2-47-.6-51-1-54.6-.2-58 13-1.2 4.6-4.4 13-7 18.8-2.8 5.8-8 19.2-11.8 29.8-7.6 21-11 29-18.2 44.2-2.6 5.6-6.2 14.4-7.8 19.6-1.8 5.2-4.6 11.8-6.4 14.4-1.8 2.8-3.4 7.6-3.8 11-.2 3.2-1.4 7-2.6 8.4-1 1.4-3.6 7.6-5.6 13.6s-5.2 13.8-7.2 17c-2 3.4-3.6 7.2-3.6 8.6 0 2.8-.6 4.2-12.8 31.8-4 9-7.2 17-7.2 17.6 0 2.4-26.4 68.4-32.2 80.2-3.2 6.6-5.8 12.8-5.8 13.8 0 3.2-10 29.4-16.4 43-6.8 14.4-10.8 24.4-19.8 50-3.2 9.4-8.6 22.4-11.6 29-10.2 21.4-12 25.8-14.2 36-1.2 5.6-2.2 15.4-2 22 0 6.6.4 54.4.6 106.4.2 51.8 1 94.8 1.6 95.4 3.6 3.8 33 4.2 208.8 3.4 2.2 0 19.4.2 38 .6 18.8.2 35-.4 36.4-1.4s3.4-1.2 4.6-.4 19.2 1.2 40 1.2c34-.2 38 .2 39.8 3.4 1 1.8 1.8 28.6 1.8 59.4.2 86-.2 79 4.4 80.6 6.2 2.2 262.4 2.8 265.8.6z"/>
<path d="m2114.2 438.8-5.2-2-.2-28c-.4-29.4 1.4-39.8 6.8-42.4 2.8-1.2 29.4-1.6 29.4-.4 0 .2 4.8.8 10.6 1.2 7 .6 11.8.2 13.8-1.4 2.4-2 3.2-2 4.6.2 1.2 2 2.4 2.2 4.4.6 2.8-2.2 13.8-2.2 26.6.2 4.4.6 11 .4 14.8-.8 4-1 7.8-1.2 9-.2s7.2 1.4 13.2 1.2c17-1 17-1 17.2 28.4 0 36.4-.6 42.2-6 43.8-7 2.4-133 2-139-.4z"/>
<path d="m304.6 682.4c-5.2-.6-6.8-1.8-8.4-7-3-10.2-1.8-109.2 1.4-111.2 1.4-.8 29.4-1.4 62-1.2s67.6-.2 77.4-1c22.6-1.6 30.4.2 31.8 7.6 2.2 10.6.6 106.4-1.8 109.8-2 2.6-11.6 3.2-79.2 3.4-42.2 0-79.6 0-83.2-.4z"/>
<path d="m1072 525.8c-5-.6-8-1.4-7-1.6 1.2-.2.8-1-.6-2-3-1.8-.4-10.2 12.6-40.2 4-9.4 8.8-21 10.4-26 1.8-5 4.6-12.6 6.6-17 1.8-4.4 4.2-11.2 5-15s3-9.2 4.8-12c2-2.8 4.6-9 6.2-14s5.6-14.8 9.2-22c3.4-7.2 7-15.6 7.6-19 .8-3.2 5.6-15.8 10.6-28 5-12 10.4-25.6 12.2-30 1.6-4.4 5.2-12.6 7.8-18.4 2.4-5.6 4.6-11.2 4.6-12.2 0-2.6 5.8-7.2 7.4-5.8.6.8 1.4 8 1.6 16.2.2 12-.2 15.2-2.8 16.2-2.4 1-2.6 1.6-.4 2.8 2 1.4 2.8 11.4 3 46.2 0 24.4-.4 44.8-1.2 45.2-.6.4-.6 3.4.2 6.4s1.2 32.2 1.2 65c-.2 48.8-.8 60-3.2 62.4-2.2 2.2-11.8 3-44.8 3.4-23 .4-46 0-51-.6z"/>
</svg>