<svg height="100%" width="100%" preserveAspectRatio="xMidYMid meet" viewBox="0 0 447 480" version="1.0" xmlns="http://www.w3.org/2000/svg">
<g fill="#2b90d8">
<path d="m170.5 479.7c-0.7-0.1-4.15-0.55-7.75-1-9.6-1.15-17.9-2.5-28-4.5-39.55-7.85-60.65-17.9-81.25-38.65-31.35-31.6-48.05-81.55-53-158.55-0.4-6-0.5-30.9-0.4-79.5l0.15-70.75 1.15-5.75c4.5-22.6 9.6-37.1 18.6-52.75 10.8-18.8 26.35-34.95 42.8-44.45 15.25-8.85 45.15-16.45 81.2-20.75 23.5-2.8 22.8-2.8 80.25-2.8 57 0 54.25-0.1 77.75 2.55 29 3.25 55.2 9.05 72.9 16.15 7.25 2.9 9.55 4.15 15.85 8.45 26 17.8 44.3 45.55 53 80.6 3.45 13.95 3.3 10.65 3.1 73.25-0.15 59.65-0.1 57.75-2.6 78.5-2.4 19.9-4.45 31.25-6.7 37-6.2 16.15-22.25 32.8-44.45 46.15-20.15 12.2-46.35 21.1-71.35 24.3-60.45 7.7-96.7 8.05-148.5 1.3-13.55-1.75-38.15-5.95-42.95-7.35-0.9-0.25-0.95 0-0.65 5.3 0.7 12.25 4.45 24.7 10 33.45 2.85 4.35 8.4 10.3 12.8 13.6 5.65 4.25 14.65 8.4 23.05 10.7 5.25 1.4 15.8 3.25 23.05 4 13.65 1.45 33.8 2.05 44.8 1.4 19.1-1.15 37.05-3.9 54.6-8.4 3.7-0.95 7.65-1.7 8.8-1.7h2.05l0.65 14.65c0.35 8 0.75 17.55 0.9 21.1l0.3 6.55-1.95 0.8c-1.05 0.45-3.85 1.6-6.2 2.6-12.75 5.45-32.7 10.5-53.5 13.5-8.75 1.3-8.75 1.3-43 1.25-18.85-0.05-34.8-0.15-35.5-0.25zm-43.1-189.7h1.6v-63.4c0-40.65 0.2-64.9 0.5-67.6 2.5-20.45 13.25-30 33.7-30 21.55 0.05 33.35 10.9 36.5 33.45 0.65 4.65 0.8 11.8 0.8 42.55v37l1.4 0.1c0.75 0.05 11.2 0.1 23.25 0.1 19.05 0.05 21.9-0.05 22.05-0.7 0.1-0.4 0.2-17.4 0.25-37.7 0.05-39.15 0.25-42.45 2.55-50.45 2.7-9.55 8.8-17.2 16.6-20.85 5.15-2.4 10.95-3.5 18.35-3.5 7.5 0.05 12.45 1.05 17.5 3.55 9.6 4.75 14.65 13.65 16.05 28.4 0.3 3.2 0.5 29.5 0.5 67.2v61.85h23.5 23.55l-0.2-67.35c-0.15-65.8-0.2-67.55-1.2-73.9-1.3-8.1-2.7-13.6-5-19.75-10.2-27.65-33.45-44.7-62.65-45.85-23.3-0.9-43.25 8-56.05 25-2.95 3.9-4.95 7.2-12.7 20.5-2.4 4.1-2.6 4.3-4.25 4.35h-1.75l-6.35-10.65c-7.35-12.45-11-17.5-16.05-22.1-8.9-8.3-17.9-12.8-31.35-15.85-4.5-1-6.6-1.15-14.75-1.15-10.8 0-16.1 0.9-24.75 4.1-6.15 2.3-8.7 3.6-14.55 7.45-13.1 8.6-23.65 23.8-28.4 40.7-4 14.45-4.05 15.2-4.05 89.6v64.85l2.4 0.15c1.8 0.1 32.95 0.05 43-0.1z"/>
</g>
<g fill="#fff0">
<path d="m0 361.95c0-108.15 0.35-137.8 1.15-105.1 1 38.55 6.5 78.65 14.65 106.15 9.05 30.55 21.65 53.35 39.2 71.05 20.6 20.75 41.7 30.8 81.25 38.65 16.85 3.35 38.65 6.25 47.25 6.3 1.8 0 3.6 0.25 4 0.5 0.5 0.3-32.4 0.5-93.35 0.5h-94.15v-118.05z"/>
<path d="m226.7 479.55c0.15-0.2 2.9-0.55 6.15-0.75 10.65-0.6 29.6-3.65 42.4-6.85 8-2 20.5-6 25.75-8.25 2.35-1 5.1-2.15 6.2-2.6l1.95-0.8-0.3-4.8c-0.15-2.6-0.55-11.45-0.9-19.6-0.45-10.35-0.8-14.9-1.2-14.9-0.3 0-3.6 0.75-7.3 1.7-28.1 7.2-54.75 9.8-84.55 8.3-27.5-1.4-42.95-4.5-55.9-11.1-19.05-9.7-29.2-27.2-30.95-53.15-0.25-3.85-0.3-7.2-0.05-7.4 0.2-0.25 3.6 0.25 7.55 1.1 25.65 5.5 60.9 9.8 90.95 11.1 24.05 1 55.2-0.95 93.75-5.85 20.45-2.6 40.05-8.45 58.6-17.5 28.35-13.75 49.7-33.55 57.2-52.95 2.2-5.7 4.2-16.75 6.65-36.75 1.6-12.95 3.3-34.25 3.3-41.35 0-2.25 0.25-4.25 0.5-4.4 0.35-0.2 0.5 44.4 0.5 133.45v133.8h-110.3c-60.65 0-110.15-0.2-110-0.45z"/>
<path d="m81.1 291.6c-0.95-0.3-0.85-130.6 0.15-139.6 1.8-17.05 6.3-29.95 14.6-41.9 5.85-8.4 15.4-16.7 24.4-21.2 4.3-2.2 11.8-4.75 17.25-6 4.65-1 6.55-1.15 16.25-1.15s11.6 0.15 16.25 1.15c13.45 3.05 22.45 7.55 31.35 15.85 5.05 4.6 8.7 9.65 16.05 22.1 3.5 5.85 6.45 10.65 6.6 10.65s1.4-1.95 2.75-4.35c7.75-13.3 9.75-16.6 12.7-20.5 10.25-13.6 25.2-22.1 43.05-24.5 7.8-1.05 21.4-0.65 27.75 0.8 14.6 3.4 25.2 9.05 34.8 18.65 11 11.1 17.9 25.95 21.1 45.65 1 6.35 1.05 8.05 1.2 75.4 0.2 66 0.15 68.85-0.7 68.9-0.85 0-43.05 0-47.25-0.05h-1.9v-61.85c0-37.7-0.2-64-0.5-67.2-1.4-14.75-6.45-23.65-16.05-28.4-9.5-4.7-22.85-4.7-32.85-0.05-7.8 3.65-13.9 11.3-16.6 20.85-2.35 8.05-2.5 11.3-2.55 50.75 0 20.45-0.2 37.45-0.35 37.7-0.25 0.3-9.35 0.5-24.85 0.45h-24.5l-0.3-39.5c-0.3-42.35-0.3-42.55-3-50.6-2.95-8.95-8.45-15.85-15.45-19.3-9.65-4.8-23.95-5.05-33.35-0.55-7.9 3.75-12.85 10.75-15.45 21.7-0.85 3.45-0.9 8.8-1.2 70l-0.25 66.25-24.3 0.05c-13.35 0-24.55-0.1-24.85-0.2z"/>
<path d="m0.05 72.9-0.05-72.9h99.25c65.85 0 99.25 0.15 99.25 0.5 0 0.3-2.1 0.5-5.25 0.5-13.95 0-42.25 2.5-62.75 5.55-27.8 4.1-53.4 11.35-66.2 18.75-19.65 11.35-37.35 31.5-48.45 55.2-7.45 15.95-12.75 35.8-14.35 53.8-0.35 3.55-0.75 7.6-1 8.95-0.2 1.4-0.4-30.3-0.45-70.35z"/>
<path d="m446.3 132.9c-0.15-0.65-0.35-2.5-0.55-4.15-0.8-8.65-3.7-21.55-7.15-32-9.45-28.65-26.75-52.4-49.35-67.85-6.3-4.3-8.6-5.55-15.85-8.45-17.7-7.1-43.9-12.9-72.9-16.15-17-1.9-36.25-3.3-45.85-3.3-3.45 0-5.65-0.2-5.65-0.5 0-0.35 33.35-0.5 99-0.5h99v67c0 36.85-0.1 67-0.25 67-0.1 0-0.35-0.5-0.45-1.1z"/>
</g>
</svg>
