<svg preserveAspectRatio="xMidYMid meet" viewBox="0 0 447 480" xmlns="http://www.w3.org/2000/svg">
<path d="m170.5 479.7c-.7-.1-4.15-.55-7.75-1-9.6-1.15-17.9-2.5-28-4.5-39.55-7.85-60.65-17.9-81.25-38.65-31.35-31.6-48.05-81.55-53-158.55-.4-6-.5-30.9-.4-79.5l.15-70.75 1.15-5.75c4.5-22.6 9.6-37.1 18.6-52.75 10.8-18.8 26.35-34.95 42.8-44.45 15.25-8.85 45.15-16.45 81.2-20.75 23.5-2.8 22.8-2.8 80.25-2.8 57 0 54.25-.1 77.75 2.55 29 3.25 55.2 9.05 72.9 16.15 7.25 2.9 9.55 4.15 15.85 8.45 26 17.8 44.3 45.55 53 80.6 3.45 13.95 3.3 10.65 3.1 73.25-.15 59.65-.1 57.75-2.6 78.5-2.4 19.9-4.45 31.25-6.7 37-6.2 16.15-22.25 32.8-44.45 46.15-20.15 12.2-46.35 21.1-71.35 24.3-60.45 7.7-96.7 8.05-148.5 1.3-13.55-1.75-38.15-5.95-42.95-7.35-.9-.25-.95 0-.65 5.3.7 12.25 4.45 24.7 10 33.45 2.85 4.35 8.4 10.3 12.8 13.6 5.65 4.25 14.65 8.4 23.05 10.7 5.25 1.4 15.8 3.25 23.05 4 13.65 1.45 33.8 2.05 44.8 1.4 19.1-1.15 37.05-3.9 54.6-8.4 3.7-.95 7.65-1.7 8.8-1.7h2.05l.65 14.65c.35 8 .75 17.55.9 21.1l.3 6.55-1.95.8c-1.05.45-3.85 1.6-6.2 2.6-12.75 5.45-32.7 10.5-53.5 13.5-8.75 1.3-8.75 1.3-43 1.25-18.85-.05-34.8-.15-35.5-.25zm-43.1-189.7h1.6v-63.4c0-40.65.2-64.9.5-67.6 2.5-20.45 13.25-30 33.7-30 21.55.05 33.35 10.9 36.5 33.45.65 4.65.8 11.8.8 42.55v37l1.4.1c.75.05 11.2.1 23.25.1 19.05.05 21.9-.05 22.05-.7.1-.4.2-17.4.25-37.7.05-39.15.25-42.45 2.55-50.45 2.7-9.55 8.8-17.2 16.6-20.85 5.15-2.4 10.95-3.5 18.35-3.5 7.5.05 12.45 1.05 17.5 3.55 9.6 4.75 14.65 13.65 16.05 28.4.3 3.2.5 29.5.5 67.2v61.85h23.5 23.55l-.2-67.35c-.15-65.8-.2-67.55-1.2-73.9-1.3-8.1-2.7-13.6-5-19.75-10.2-27.65-33.45-44.7-62.65-45.85-23.3-.9-43.25 8-56.05 25-2.95 3.9-4.95 7.2-12.7 20.5-2.4 4.1-2.6 4.3-4.25 4.35h-1.75l-6.35-10.65c-7.35-12.45-11-17.5-16.05-22.1-8.9-8.3-17.9-12.8-31.35-15.85-4.5-1-6.6-1.15-14.75-1.15-10.8 0-16.1.9-24.75 4.1-6.15 2.3-8.7 3.6-14.55 7.45-13.1 8.6-23.65 23.8-28.4 40.7-4 14.45-4.05 15.2-4.05 89.6v64.85l2.4.15c1.8.1 32.95.05 43-.1z" fill="#fff"/>
</svg>