<?xml version="1.0" encoding="utf-8"?>
<!DOCTYPE svg PUBLIC "-//W3C//DTD SVG 1.0//EN" "http://www.w3.org/TR/2001/REC-SVG-20010904/DTD/svg10.dtd">
<svg version="1.0" xmlns="http://www.w3.org/2000/svg" width="447px" height="480px" viewBox="0 0 447 480" preserveAspectRatio="xMidYMid meet">
 <g fill="#2b90d8">
  <path d="M170.50 479.70 c-0.70 -0.10 -4.15 -0.55 -7.75 -1 -9.60 -1.15 -17.90 -2.50 -28 -4.50 -39.55 -7.85 -60.65 -17.90 -81.25 -38.65 -31.35 -31.60 -48.05 -81.55 -53 -158.55 -0.40 -6 -0.50 -30.90 -0.40 -79.50 l0.15 -70.75 1.15 -5.75 c4.50 -22.60 9.60 -37.10 18.60 -52.75 10.80 -18.80 26.35 -34.95 42.80 -44.45 15.25 -8.85 45.15 -16.45 81.20 -20.75 23.50 -2.80 22.80 -2.80 80.25 -2.80 57 0 54.25 -0.10 77.75 2.55 29 3.25 55.20 9.05 72.90 16.15 7.25 2.90 9.55 4.15 15.85 8.45 26 17.80 44.30 45.55 53 80.60 3.45 13.95 3.30 10.65 3.10 73.25 -0.15 59.65 -0.10 57.75 -2.60 78.50 -2.40 19.90 -4.45 31.25 -6.70 37 -6.20 16.15 -22.25 32.80 -44.45 46.15 -20.15 12.20 -46.35 21.10 -71.35 24.30 -60.45 7.70 -96.70 8.05 -148.50 1.30 -13.55 -1.75 -38.15 -5.95 -42.95 -7.35 -0.90 -0.25 -0.95 0 -0.65 5.30 0.70 12.25 4.45 24.70 10 33.45 2.85 4.35 8.40 10.30 12.80 13.60 5.65 4.25 14.65 8.40 23.05 10.70 5.25 1.40 15.80 3.25 23.05 4 13.65 1.45 33.80 2.05 44.80 1.40 19.10 -1.15 37.05 -3.90 54.60 -8.40 3.70 -0.95 7.65 -1.70 8.80 -1.70 l2.05 0 0.65 14.65 c0.35 8 0.75 17.55 0.90 21.10 l0.30 6.55 -1.95 0.80 c-1.05 0.45 -3.85 1.60 -6.20 2.60 -12.75 5.45 -32.70 10.50 -53.50 13.50 -8.75 1.30 -8.75 1.30 -43 1.25 -18.85 -0.05 -34.80 -0.15 -35.50 -0.25z m-43.10 -189.70 l1.60 0 0 -63.40 c0 -40.65 0.20 -64.90 0.50 -67.60 2.50 -20.45 13.25 -30 33.70 -30 21.55 0.05 33.35 10.90 36.50 33.45 0.65 4.65 0.80 11.80 0.80 42.55 l0 37 1.40 0.10 c0.75 0.05 11.20 0.10 23.25 0.10 19.05 0.05 21.90 -0.05 22.05 -0.70 0.10 -0.40 0.20 -17.40 0.25 -37.70 0.05 -39.15 0.25 -42.45 2.55 -50.45 2.70 -9.55 8.80 -17.20 16.60 -20.85 5.15 -2.40 10.95 -3.50 18.35 -3.50 7.50 0.05 12.45 1.05 17.50 3.55 9.60 4.75 14.65 13.65 16.05 28.40 0.30 3.20 0.50 29.50 0.50 67.20 l0 61.85 23.50 0 23.55 0 -0.20 -67.35 c-0.15 -65.80 -0.20 -67.55 -1.20 -73.90 -1.30 -8.10 -2.70 -13.60 -5 -19.75 -10.20 -27.65 -33.45 -44.70 -62.65 -45.85 -23.30 -0.90 -43.25 8 -56.05 25 -2.95 3.90 -4.95 7.20 -12.70 20.50 -2.40 4.10 -2.60 4.30 -4.25 4.35 l-1.75 0 -6.35 -10.65 c-7.35 -12.45 -11 -17.50 -16.05 -22.10 -8.90 -8.30 -17.90 -12.80 -31.35 -15.85 -4.50 -1 -6.60 -1.15 -14.75 -1.15 -10.80 0 -16.10 0.90 -24.75 4.10 -6.15 2.30 -8.70 3.60 -14.55 7.45 -13.10 8.60 -23.65 23.80 -28.40 40.70 -4 14.45 -4.05 15.20 -4.05 89.60 l0 64.85 2.40 0.15 c1.80 0.10 32.95 0.05 43 -0.10z"/>
 </g>
 <g fill="#ffffff">
  <path d="M0 361.95 c0 -108.15 0.35 -137.80 1.15 -105.10 1 38.55 6.50 78.65 14.65 106.15 9.05 30.55 21.65 53.35 39.20 71.05 20.60 20.75 41.70 30.80 81.25 38.65 16.85 3.35 38.65 6.25 47.25 6.30 1.80 0 3.60 0.25 4 0.50 0.50 0.30 -32.40 0.50 -93.35 0.50 l-94.15 0 0 -118.05z"/>
  <path d="M226.70 479.55 c0.15 -0.20 2.90 -0.55 6.15 -0.75 10.65 -0.60 29.60 -3.65 42.40 -6.85 8 -2 20.50 -6 25.75 -8.25 2.35 -1 5.10 -2.15 6.20 -2.60 l1.95 -0.80 -0.30 -4.80 c-0.15 -2.60 -0.55 -11.45 -0.90 -19.60 -0.45 -10.35 -0.80 -14.90 -1.20 -14.90 -0.30 0 -3.60 0.75 -7.30 1.70 -28.10 7.20 -54.75 9.80 -84.55 8.30 -27.50 -1.40 -42.95 -4.50 -55.90 -11.10 -19.05 -9.70 -29.20 -27.20 -30.95 -53.15 -0.25 -3.85 -0.30 -7.20 -0.05 -7.40 0.20 -0.25 3.60 0.25 7.55 1.10 25.65 5.50 60.90 9.80 90.95 11.10 24.05 1 55.20 -0.95 93.75 -5.85 20.45 -2.60 40.05 -8.45 58.60 -17.50 28.35 -13.75 49.70 -33.55 57.20 -52.95 2.20 -5.70 4.20 -16.75 6.65 -36.75 1.60 -12.95 3.30 -34.25 3.30 -41.35 0 -2.25 0.25 -4.25 0.50 -4.40 0.35 -0.20 0.50 44.40 0.50 133.45 l0 133.80 -110.30 0 c-60.65 0 -110.15 -0.20 -110 -0.45z"/>
  <path d="M81.10 291.60 c-0.95 -0.30 -0.85 -130.60 0.15 -139.60 1.80 -17.05 6.30 -29.95 14.60 -41.90 5.85 -8.40 15.40 -16.70 24.40 -21.20 4.30 -2.20 11.80 -4.75 17.25 -6 4.65 -1 6.55 -1.15 16.25 -1.15 9.70 0 11.60 0.15 16.25 1.15 13.45 3.05 22.45 7.55 31.35 15.85 5.05 4.60 8.70 9.65 16.05 22.10 3.50 5.85 6.45 10.65 6.60 10.65 0.15 0 1.40 -1.95 2.75 -4.35 7.75 -13.30 9.75 -16.60 12.70 -20.50 10.25 -13.60 25.20 -22.10 43.05 -24.50 7.80 -1.05 21.40 -0.65 27.75 0.80 14.60 3.40 25.20 9.05 34.80 18.65 11 11.10 17.90 25.95 21.10 45.65 1 6.35 1.05 8.05 1.20 75.40 0.20 66 0.15 68.85 -0.70 68.90 -0.85 0 -43.05 0 -47.25 -0.05 l-1.90 0 0 -61.85 c0 -37.70 -0.20 -64 -0.50 -67.20 -1.40 -14.75 -6.45 -23.65 -16.05 -28.40 -9.50 -4.70 -22.85 -4.70 -32.85 -0.05 -7.80 3.65 -13.90 11.30 -16.60 20.85 -2.35 8.05 -2.50 11.30 -2.55 50.75 0 20.45 -0.20 37.45 -0.35 37.70 -0.25 0.30 -9.35 0.50 -24.85 0.45 l-24.50 0 -0.30 -39.50 c-0.30 -42.35 -0.30 -42.55 -3 -50.60 -2.95 -8.95 -8.45 -15.85 -15.45 -19.30 -9.65 -4.80 -23.95 -5.05 -33.35 -0.55 -7.90 3.75 -12.85 10.75 -15.45 21.70 -0.85 3.45 -0.90 8.80 -1.20 70 l-0.25 66.25 -24.30 0.05 c-13.35 0 -24.55 -0.10 -24.85 -0.20z"/>
  <path d="M0.05 72.90 l-0.05 -72.90 99.25 0 c65.85 0 99.25 0.15 99.25 0.50 0 0.30 -2.10 0.50 -5.25 0.50 -13.95 0 -42.25 2.50 -62.75 5.55 -27.80 4.10 -53.40 11.35 -66.20 18.75 -19.65 11.35 -37.35 31.50 -48.45 55.20 -7.45 15.95 -12.75 35.80 -14.35 53.80 -0.35 3.55 -0.75 7.60 -1 8.95 -0.20 1.40 -0.40 -30.30 -0.45 -70.35z"/>
  <path d="M446.30 132.90 c-0.15 -0.65 -0.35 -2.50 -0.55 -4.15 -0.80 -8.65 -3.70 -21.55 -7.15 -32 -9.45 -28.65 -26.75 -52.40 -49.35 -67.85 -6.30 -4.30 -8.60 -5.55 -15.85 -8.45 -17.70 -7.10 -43.90 -12.90 -72.90 -16.15 -17 -1.90 -36.25 -3.30 -45.85 -3.30 -3.45 0 -5.65 -0.20 -5.65 -0.50 0 -0.35 33.35 -0.50 99 -0.50 l99 0 0 67 c0 36.85 -0.10 67 -0.25 67 -0.10 0 -0.35 -0.50 -0.45 -1.10z"/>
 </g>
</svg>