<svg height="2134" preserveAspectRatio="xMidYMid meet" viewBox="0 0 2134 2134" width="2134" xmlns="http://www.w3.org/2000/svg"><path d="m521.5 2133.3c-30.1-2.8-60-16.9-81.9-38.9-18.6-18.6-30.7-40.8-36.9-67.9-2-8.6-2.1-12.6-2.4-86.2l-.4-77.3h636.3c564.2 0 637.1-.2 642.3-1.5 21.8-5.5 39.5-21.9 47.7-44.2 2-5.3 2.2-8.9 3.1-45.8.6-22.7 1.1-184.6 1.1-375 .1-317 0-335.4-1.7-341.9-4.7-18.3-18.5-35.5-34.7-43.4-4.7-2.3-11.2-5-14.5-5.9-5.7-1.7-38.4-1.8-643.7-2.1-421.7-.1-637.8-.5-637.8-1.2 0-.6.4-1 1-1s1.1-151.4 1.3-441.8l.2-441.7 2.3-9.7c6.3-27.2 17.7-48.3 36.7-67.4 18.9-19 41.6-31.3 68.5-37.1 8.2-1.7 27.9-1.8 484-1.8h475.5l.3 202.2c.1 111.3.6 202.3 1.1 202.3.4 0 1.1 3.1 1.4 6.8.6 6.1 2.6 15 6.9 30.2.7 2.5 1.8 5.1 2.5 5.8s1.3 2.2 1.3 3.3c0 2.5 1.7 5.8 4.1 8.2 1.1 1 1.9 2.7 1.9 3.8s.7 2.2 1.5 2.5c.8.4 1.5 1.4 1.5 2.5 0 1 .8 2.4 1.9 3.1 1 .7 2.2 2.4 2.6 3.7 1.3 4.1 23.2 25.2 32.5 31.4 20.6 13.5 42.7 21.2 67.6 23.2l8.1.7 198.6 198.6 198.7 198.7-.3 544.5-.2 544.5-2.1 9c-6.5 27.4-18.4 49.4-37 67.9-18.5 18.6-40.5 30.5-67.9 37l-9 2.1-679 .1c-373.4 0-680.8-.1-683-.3z" fill="#e2e5e7"/><g fill="#ea551e"><path d="m400 1801.5c0-1.3-12.3-1.5-104.8-1.5-116.9 0-109.7.4-125.2-7.2-11.9-5.8-23-16.9-28.8-28.8-7.9-16.1-7.2 19-7-365.6l.3-344.9 2.7-7.3c3.8-10.4 8.3-17.6 15.8-25.2 7.8-7.9 15.8-12.9 26.5-16.6l8-2.8 149.5-.8c82.2-.4 417.3-.7 744.5-.5 564.6.2 595.3.3 601 2 3.3.9 9.8 3.6 14.5 5.9 16 7.8 29.7 24.8 34.7 42.9 1.7 6 1.8 26 2.1 338.4.4 331.8.1 363-3 373.3-1.7 5.5-10.5 17.7-17.1 23.7-6.9 6.3-18.9 12.6-28.2 15-5.2 1.3-78.4 1.5-645.7 1.5-568 0-639.8-.2-639.8-1.5zm68.2-205.5c10.2-3.1 17.1-10.1 21.3-21.5 1.6-4.5 1.9-9.3 2.3-44.2l.4-39.1 53.1-.5c58.8-.5 60.9-.7 81.7-7.6 50.4-16.9 82.3-60.6 84.7-115.6 1.1-27.5-5.3-54.7-17.9-75.9-17.6-29.4-43.4-48.5-77.3-57.1-16.9-4.3-24.1-4.6-95.5-4.3-67.1.3-67.5.3-72.3 2.5-7 3.3-14.9 11.3-18.3 18.6l-2.9 6.2-.3 155-.2 154.9 2.1 6.3c3.6 10.8 14.3 20.5 25.6 23.2 5.6 1.3 6.5 1.3 13.5-.9zm493.9 1c62.7-6.2 110.4-39 137.5-94.5 15-30.8 22.5-68.9 19.6-100.3-5.5-61-35-112.8-80.2-140.6-17.9-11-41-19.8-63-23.8-12.3-2.3-13.5-2.3-88-2.3h-75.5l-5.8 2.7c-7.5 3.6-15.9 11.5-18.8 18.1l-2.4 5.2-.3 151.5c-.2 110 0 153.1.8 157.5 2.6 13.8 10.7 22 25.2 25.9 4.3 1.2 17.8 1.5 72.9 1.5 39.4.1 72-.3 78-.9zm283.6-2.6c6-2.9 11.6-8.7 14.7-15.3 2.1-4.5 2.1-5.7 2.4-65.3l.3-60.7 72.2-.3c71.8-.3 72.2-.3 78.1-2.5 7.9-3 15.6-9 19.7-15.4 2.9-4.6 3.4-6.2 3.4-11.4 0-7.6-2.8-13.6-10.2-21.6-3.7-3.9-7.7-6.9-12.1-9.1l-6.7-3.3-72.2-.3-72.3-.2v-45.5-45.5l82.8-.2 82.7-.3 6.7-3.3c3.6-1.8 8.2-5.1 10.3-7.3 5.4-6 9.8-15.9 9.8-22.2.1-12.1-9.4-23.8-22.6-27.9l-7.2-2.3h-98c-90.3 0-98.4.1-103.6 1.7-11 3.4-20.4 12-23.1 21.1-1 3.3-1.3 36.3-1.3 159.2 0 150.1.1 155.2 1.9 159.9 3.7 9.6 13 17.3 24.1 20 7.3 1.8 13.3 1.2 20.2-2z"/><path d="m491.8 1429.3c-.2-.5-.2-31.7 0-69.5l.3-68.8h47.7c48.9 0 57.1.5 66.9 4 18.2 6.4 33.4 22.6 40.1 42.7 2.3 7 2.6 9.4 2.6 23.3.1 13.3-.2 16.5-2.1 22.5-5.3 16.5-18.7 32.2-33.8 39.5-13.5 6.6-17 6.9-72.7 7-26.8 0-48.8-.3-49-.7z"/><path d="m850 1416v-122h50.8c30.8 0 54.2.4 59.7 1.1 38.4 4.7 69.5 28.5 84.1 64.4 12.4 30.2 13.5 70.4 2.9 102.2-13.3 40-41.7 66.6-79.2 74.2-9.5 2-13.5 2.1-64.2 2.1h-54.1z"/></g><g fill="#fff"><path d="m451.7 1599.9c-11.3-2.7-22-12.4-25.6-23.2l-2.1-6.3.2-157.9.3-158 2.9-6.2c3.4-7.3 11.3-15.3 18.3-18.6 4.8-2.2 5.2-2.2 75.3-2.5 49.1-.2 73.4 0 80 .8 54.6 6.7 95.6 41.4 108.9 92.4 4 15.4 5.4 28.7 4.8 47.1-.8 23.8-4.4 38.8-13.7 57.5-17.5 34.9-47.9 57.2-89.9 66.2-8.8 1.9-14 2.1-62.8 2.5l-53.1.5-.4 39.1c-.5 42.3-.6 43.6-6.4 52.8-7 11.3-22.6 17.1-36.7 13.8zm142.6-174.4c12.2-2.1 23.1-8 32.5-17.3 8.7-8.7 14.2-17.5 17.5-27.7 3.3-10.5 3.1-28.9-.5-39.8-6.7-20.1-21.9-36.3-40.1-42.7-9.8-3.4-18-4-63.9-4h-44.8l-.2 66.1c-.2 36.3-.1 66.3.1 66.5s20.9.4 46 .4c34.3-.1 47.5-.4 53.4-1.5z"/><path d="m808.2 1599.4c-14.5-3.9-22.6-12.1-25.2-25.9-.8-4.4-1-48.3-.8-160.5l.3-154.5 2.4-5.2c2.9-6.6 11.3-14.5 18.8-18.1l5.8-2.7h78.5c77.6 0 78.6 0 91 2.3 22 4 45.1 12.8 63 23.8 76 46.8 103.5 158.9 60.6 246.9-27.1 55.5-74.8 88.3-137.5 94.5-6 .6-39.5 1-81 .9-57.7 0-71.6-.3-75.9-1.5zm157.1-66.5c15.6-3.1 29.8-9.6 41.8-19.1 30.8-24.2 47.7-67.1 43.9-111.5-5-57.4-41.2-97.8-93.5-104.2-5.4-.7-28.1-1.1-56.7-1.1h-47.8v119 119h51.1c47.7 0 51.8-.1 61.2-2.1z"/><path d="m1222.5 1599.5c-11.2-2.9-20.4-10.6-24.1-20.1-1.8-4.7-1.9-9.9-1.9-162.9 0-125.3.3-158.9 1.3-162.2 2.7-9.1 12.1-17.7 23.1-21.1 5.2-1.6 13.4-1.7 106.6-1.7h101l7.2 2.3c9 2.8 16.9 9.5 20.4 17.4 3.7 8.2 3.4 19.2-.8 27.9-4.1 8.9-9.2 14.2-17.1 18.1l-6.7 3.3-82.7.3-82.8.2v42.5 42.5l72.3.2 72.2.3 5.7 2.7c10.8 5 20.1 15.9 23.3 27.2 1.4 4.9 1.5 6.8.6 11.4-2.2 10.9-11.4 20.8-23.7 25.5-5.9 2.2-6.3 2.2-78.1 2.5l-72.2.3-.3 60.7c-.3 59.6-.3 60.8-2.4 65.3-6.9 14.8-23.3 21.8-40.9 17.4z"/></g><g fill="#cad1d8"><path d="m400 1833v-33h638.3c565.9 0 639-.2 644.2-1.5 21.4-5.4 39.6-22.1 47-43.2l2.5-6.8v30.5c0 34.6-.3 37-7.2 51-8 16.3-25 29.9-43.3 34.5-5.2 1.3-78.2 1.5-643.7 1.5h-637.8z"/><path d="m1798.5 733c-113.1-113.1-199.8-199-200.7-199-1.1 0-1.8-.8-1.8-2 0-2 .7-2 199.8-2h199.9l2.1 2.3 2.2 2.3v198.7c0 158.4-.3 198.7-1.3 198.7-.6 0-90.8-89.5-200.2-199z"/><path d="m1585.6 532.9c-29.9-3.4-57.1-16.1-78.6-36.5-8.5-8.1-16.1-17-16-18.7.1-.4-.8-1.6-1.9-2.5s-2.1-2.3-2.3-3.1-1.1-2.3-2.1-3.3-1.5-2.3-1.2-2.8c.4-.6.1-1-.5-1s-.8-.4-.5-1c.3-.5.2-1-.4-1-1.4 0-5.3-7.8-4.6-9 .3-.6.1-1-.6-1s-1-.3-.6-.6c.3-.4-.1-1.3-.9-2.1-.8-.9-1.3-2.2-1-2.9.3-.8.1-1.4-.5-1.4s-.9-.7-.5-1.5c.3-.8.1-1.5-.5-1.5s-.9-.7-.5-1.5c.3-.8.1-1.5-.5-1.5s-.9-.7-.5-1.5c.3-.8 0-1.5-.5-1.5-.6 0-.9-.9-.6-2s.1-2-.5-2-.8-.9-.5-2 .1-2-.5-2-.7-1.1-.4-2.5c.4-1.6.2-2.5-.5-2.5s-.9-1.1-.5-3c.3-1.9.1-3-.6-3s-.9-1.5-.5-4.5c.4-2.7.3-4.5-.3-4.5-.7 0-1-71.3-1-204 0-116.4.4-204 .9-204s1.4.6 2 1.4c.8 1 1.1 54.3 1.1 202.7 0 218.5-.2 209.6 5.5 229.4 3.4 12.1 13 31.1 20.9 41.6 16.4 21.7 40.2 38.9 65.1 46.8 10.2 3.3 23.8 6.1 29.6 6.1 3.5 0 3.9.3 3.9 2.5 0 1.4-.3 2.4-.7 2.4-.5-.1-3.9-.5-7.7-1z"/></g><path d="m1591.5 533.1c-.4-.7-2.5-1.2-4.9-1-2.2.1-4.8-.1-5.6-.4s-4.4-1.1-8-1.7c-15.7-2.9-33.8-10.4-49-20.5-9.6-6.3-28.1-24.8-34.3-34.3-10.3-15.5-16.6-30.3-21-49.4l-2.1-9.3-.3-207.2c-.2-114 0-207.3.4-207.3.5 0 120.3 119.5 266.3 265.5l265.5 265.5h-198c-108.9 0-200.3.3-203.1.6-3.5.4-5.4.3-5.9-.5z" fill="#b0b7bd"/></svg>