<svg height="585" preserveAspectRatio="xMidYMid meet" viewBox="0 0 584 585" width="584" xmlns="http://www.w3.org/2000/svg"><path d="m90 574.3c-19.5-3.4-39.8-14.6-54.8-30.3-14.2-14.9-23-31-27.5-50.5-2.1-8.9-2.1-10.2-2.5-192.5-.2-119.5.1-187.9.7-196 2.4-28.5 11.5-48.5 31.2-67.7 16.4-16.1 34.2-25.3 56.3-29.2 4.1-.8 66.9-1.1 196.2-1.1 206.2 0 197.7-.2 214.1 5.4 14.3 4.9 26.9 12.9 39.2 24.9 11.8 11.5 19.2 22.5 24.6 36.7 7.4 19.1 6.9 2.9 7.2 205 .2 109.8 0 187.4-.6 196.5-1.2 18.4-3.5 27.8-10.1 41.1-6.1 12.5-11.4 19.7-22.2 30-17 16.3-34.9 25.4-56.2 28.3-5.3.8-66.3 1.1-197.4 1-163-.1-190.9-.3-198.2-1.6zm75.6-102.2c17.8-8.3 29.9-29.1 26.6-45.8-3.5-17.3-17.1-31.6-34.5-36.3-12.4-3.3-28.7 2.1-39 12.9-9.7 10.2-14.6 23.8-12.6 35 2.1 11.4 10.1 23.7 19.6 30.3 12.4 8.5 27 9.9 39.9 3.9zm149.9 2.7c1.4-.6 3.4-2.6 4.5-4.3 1.9-3.1 1.9-3.6.5-15.6-3.3-26.2-10-48.8-21.2-71.4-11.4-23-24.7-41.1-44.6-60.8-33.8-33.4-75.8-54.1-123.8-61.1-17.4-2.6-20.7-1.9-24 4.6-1.7 3.3-1.9 6-1.9 25.9 0 30.1.3 30.7 18.5 32.8 35.9 4.3 64.6 18.6 90.7 45.3 17.3 17.5 28.8 35.9 35.6 56.8 3.9 11.8 4.7 15.6 6.7 30.4 1.5 12 2.7 15 6.7 17.3 3.1 1.7 48.6 1.8 52.3.1zm141.5-.4c1.4-1 3.1-2.4 3.8-3.2 3.3-4.2-.3-39.3-7.2-70-19.6-86.9-71.3-163.1-147.4-217.5-29.3-20.9-64.1-37.7-102-49.3-25.9-7.9-49.9-12.5-75.2-14.5-16.7-1.3-18.2-1-22 5.4-1.8 2.9-2 5.2-2 25.5 0 31.1-.1 30.9 21.3 32.8 22.5 2.1 36.1 4.3 52.3 8.4 52.8 13.5 100.2 41.7 140.4 83.5 31.6 32.8 57.8 79.4 69.4 123.5 5 19.3 9.6 48.1 9.6 60.7 0 6.7 2.5 13 5.9 14.8 2 1.1 7.8 1.4 26.6 1.5 20.7 0 24.4-.2 26.5-1.6z" fill="#fff"/><g fill="#00A7D1"><path d="m133.9 476.7c-16.6-6-28.1-19.9-31-37.3-3.2-19.5 7.5-40 25.4-48.7 8.3-4 12.3-4.9 22.1-4.8 29.8.2 51.7 29.2 44.1 58.4-3.3 12.8-13.8 25.1-26.2 30.9-5.9 2.8-7.9 3.2-17.2 3.5-9.2.3-11.5.1-17.2-2z"/><path d="m260.2 477.7c-4-2.3-5.2-5.3-6.7-17.3-2-14.8-2.8-18.6-6.7-30.4-6.8-20.9-18.3-39.3-35.6-56.8-26.1-26.7-54.8-41-90.7-45.3-18.4-2.2-18.5-2.3-18.5-35.8 0-22.9.2-25.5 1.9-28.9 1.1-2.1 3.1-4.3 4.6-5 8.6-3.9 46.7 2.6 73 12.5 51.6 19.4 95.8 59.6 120.8 109.8 11.5 23 18.9 49.3 21.8 76.9 1.2 11 1.1 12.1-.6 15.3-3.3 6.1-4.4 6.3-34.2 6.3-19.6-.1-27.4-.4-29.1-1.3z"/><path d="m400.9 477.5c-3.4-1.8-5.9-8.1-5.9-14.8 0-12.6-4.6-41.4-9.6-60.7-11.6-44.1-37.8-90.7-69.4-123.5-40.2-41.8-87.6-70-140.4-83.5-16.2-4.1-29.8-6.3-52.3-8.4-21.7-2-21.3-1.3-21.3-35.6 0-27.2.3-28.7 5.6-32.9 3.1-2.5 8.2-2.7 26.9-1.1 29.7 2.6 65.3 10.7 95 21.8 26.9 9.9 57.6 26.1 79.7 41.9 76.1 54.4 127.8 130.6 147.4 217.5 5 22.1 6.8 34.9 8.3 58.3 1 14.8.4 17.5-4.4 20.5-3 1.9-4.8 2-30.1 2-21.4-.1-27.4-.4-29.5-1.5z"/></g></svg>